<svg width="84" height="84" viewBox="0 0 84 84" fill="none" xmlns="http://www.w3.org/2000/svg">
<g clip-path="url(#clip0)">
<path d="M61.3398 21.6354L58.8879 46.1574C58.1852 53.1865 53.2586 58.858 46.7768 60.7588C36.5495 63.7454 26.1657 56.7037 25.1119 46.1574L22.6602 21.6354L23.8257 20.5583C24.4725 19.9611 25.471 19.9611 26.1181 20.5583L28.3146 22.5878C29.4379 23.6284 31.2542 22.7528 31.1427 21.2264L30.9353 18.381L33.5716 18.7841C34.5662 18.9357 35.2765 19.8268 35.2035 20.8289L34.9558 24.233C34.8272 25.9765 36.9008 26.9748 38.1852 25.7883L40.6927 23.4727C41.4299 22.7892 42.5704 22.7892 43.3077 23.4727L45.8152 25.7883C47.0997 26.9748 49.1733 25.9763 49.0445 24.233L48.7969 20.8289C48.7239 19.8266 49.4343 18.9357 50.4288 18.7841L53.065 18.381L52.8576 21.2264C52.7462 22.7528 54.5627 23.6284 55.6857 22.5878L57.8822 20.5583C58.5292 19.9611 59.5277 19.9611 60.1748 20.5583L61.3398 21.6354Z" fill="#FFC373"/>
<path d="M49.4438 74.8803H34.5582C32.4884 74.8803 30.9677 72.9333 31.4709 70.925L32.4577 66.9718C33.1355 64.2569 34.9039 62.047 37.2251 60.7586C40.3426 61.669 43.6681 61.6665 46.7769 60.7586C47.2243 61.0063 47.6525 61.2885 48.0537 61.6034C49.7376 62.9185 50.9951 64.7811 51.5424 66.9716L52.5312 70.9229C53.0343 72.9333 51.5136 74.8803 49.4438 74.8803Z" fill="#FFC373"/>
<path d="M54.136 56.3332C52.1257 58.3896 49.599 59.9311 46.7768 60.7568C36.5905 63.7473 26.1686 56.7291 25.1119 46.1572L22.6602 21.6352L23.8257 20.5581C24.4725 19.9609 25.471 19.9609 26.1181 20.5581L26.9072 21.2875L29.0919 43.1369C29.9596 51.8133 37.2592 58.4199 45.9799 58.4199C48.9252 58.4201 51.7072 57.6675 54.136 56.3332Z" fill="#EF9A4D"/>
<path d="M48.2147 61.7302C47.4505 61.5401 46.6556 61.4402 45.8395 61.4402C41.3257 61.4402 37.3916 64.5121 36.2973 68.8917L34.7996 74.88C32.2676 74.88 31.0009 72.799 31.4705 70.9228L32.4573 66.9715C33.135 64.2586 34.9015 62.0487 37.2226 60.7583C40.3718 61.6779 43.7077 61.6574 46.7765 60.7565C47.2239 61.0061 47.6521 61.2883 48.0532 61.6031C48.1072 61.6456 48.161 61.6879 48.2147 61.7302Z" fill="#EF9A4D"/>
<path d="M43.4405 74.8798V82.5597C43.4405 83.3546 42.7952 83.9996 42.0005 83.9996C41.2055 83.9996 40.5605 83.3546 40.5605 82.5597V74.8798H43.4405Z" fill="#17DDC0"/>
<path d="M39.6008 74.8806C39.6008 75.1513 37.5948 83.0773 37.6367 82.91C37.4734 83.5648 36.8859 84.0005 36.2408 84.0005C35.2999 84.0005 34.6179 83.1161 34.843 82.2109L36.6766 74.8806H39.6008Z" fill="#17DDC0"/>
<path d="M48.1093 83.9572C47.3423 84.147 46.556 83.6866 46.3624 82.909C44.2931 74.6321 44.4004 75.1389 44.4004 74.8796H47.3243L49.156 82.2099C49.3499 82.982 48.8814 83.7634 48.1093 83.9572Z" fill="#17DDC0"/>
<path d="M61.3389 21.6354L58.887 46.1574C58.5549 49.479 57.28 52.4973 55.3408 54.9586C45.499 48.8241 38.6311 38.3624 37.3965 26.2339C37.9587 26.0777 37.9579 25.997 40.6913 23.4729C41.4285 22.7894 42.569 22.7894 43.3063 23.4729L45.8139 25.7885C47.0983 26.975 49.1719 25.9765 49.0431 24.2332L48.7955 20.829C48.7225 19.8268 49.4329 18.9359 50.4275 18.7843L53.0636 18.3812L52.8562 21.2266C52.7448 22.753 54.5613 23.6286 55.6843 22.5879L57.8808 20.5585C58.5279 19.9613 59.5263 19.9613 60.1734 20.5585L61.3389 21.6354Z" fill="#FFD176"/>
<path d="M70.0643 12.9394L67.5971 11.2497C66.8713 10.7524 66.6485 9.77907 67.0864 9.01487L68.5762 6.42285C69.3404 5.09608 68.0827 3.5196 66.6182 3.96897L63.7609 4.84277C63.5112 4.91938 63.258 4.93481 63.0139 4.89806C62.4088 4.80799 61.9032 4.39455 61.6912 3.84018L60.5986 1.06786C60.0362 -0.354888 58.0202 -0.354888 57.4574 1.06786L56.3633 3.84018C55.9855 4.74384 55.0739 5.08246 54.2951 4.8426L51.4365 3.96881C50.5302 3.69056 49.7048 4.1875 49.3861 4.9207L49.3854 4.92086L47.4024 5.5297C46.4402 5.82353 45.4148 5.33003 45.0443 4.39504C45.044 4.39422 45.023 4.34139 44.1751 2.18988C44.0852 1.96167 44.0133 1.77891 43.9559 1.63387C43.9038 1.50131 43.8498 1.36465 43.7925 1.21913C43.7714 1.16564 43.7482 1.11413 43.7236 1.06409C43.701 1.01569 43.6864 0.991079 43.6634 0.950719C43.6632 0.950883 43.6632 0.951047 43.6631 0.951211C42.8857 -0.400989 40.8117 -0.312067 40.2061 1.21913C40.2061 1.21913 38.9573 4.38749 38.9543 4.39504C38.5835 5.32987 37.5583 5.82337 36.5964 5.5297C36.6995 5.56103 33.4359 4.56091 33.3324 4.52924L34.6129 4.9207C34.2943 4.18767 33.4689 3.69023 32.5625 3.96864L29.7035 4.84227C28.8912 5.09263 27.9782 4.70102 27.6358 3.84002L26.5415 1.0677C25.979 -0.355052 23.963 -0.355052 23.4004 1.0677C23.4055 1.0549 22.3099 3.8351 22.304 3.84953C21.9752 4.67854 21.0683 5.0992 20.2381 4.84244L17.381 3.96881C15.9162 3.51944 14.6584 5.09608 15.4227 6.42285L16.9127 9.0147C17.3503 9.77858 17.1277 10.7521 16.4018 11.2494L13.9357 12.9394C12.6724 13.8035 13.1216 15.7693 14.6346 15.9998L17.5893 16.451C18.4612 16.585 19.0831 17.3648 19.0198 18.2442L18.8009 21.2257C18.6895 22.7523 20.5059 23.6279 21.631 22.5872C21.628 22.59 22.2174 22.0439 23.8255 20.5576C24.4724 19.9609 25.471 19.9609 26.1178 20.5576L28.3142 22.5872C29.4377 23.6277 31.2539 22.7523 31.1423 21.2257L30.935 18.3807L30.22 18.2708C30.5174 18.3164 33.4717 18.7685 33.5713 18.7838C34.5658 18.9352 35.2762 19.8262 35.2032 20.8287L34.9555 24.2326C34.8501 25.6613 36.2237 26.589 37.43 26.2243C37.5908 26.1786 37.7091 26.1339 37.8684 26.0265C37.9777 25.9595 38.0838 25.8813 38.1849 25.7879L38.3225 25.6608C38.7245 25.3066 39.3643 24.7002 40.5285 23.6236L40.6924 23.4724C40.7385 23.4295 40.7861 23.3895 40.8351 23.3521C41.5705 22.7917 42.6159 22.832 43.3069 23.4725L45.8144 25.7881C46.4969 26.4186 47.4024 26.4322 48.0816 26.0447C48.6809 25.7031 49.1045 25.0495 49.0441 24.2325L48.7967 20.8285C48.7328 19.9516 49.2684 19.1598 50.0697 18.874C50.1841 18.8332 50.3038 18.8027 50.428 18.7838L53.0642 18.3805H53.0645L52.8571 21.2259C52.7462 22.7521 54.5624 23.6277 55.6854 22.5871L57.8822 20.5575C58.5291 19.9604 59.5274 19.9604 60.1746 20.5575C60.1746 20.5575 60.8991 21.2267 62.3691 22.5871C63.4939 23.6276 65.3106 22.7521 65.1992 21.2259L64.9802 18.244C64.9168 17.3646 65.5388 16.5852 66.4108 16.4508L69.3654 15.9997C70.8784 15.7693 71.3277 13.8035 70.0643 12.9394Z" fill="#EF2235"/>
<path d="M53.8015 18.2677C52.7086 18.4355 50.4284 18.784 50.4284 18.784C49.4335 18.9354 48.7231 19.8266 48.7965 20.8289L49.0439 24.2327C49.1727 25.976 47.0991 26.9746 45.8143 25.7881L43.3071 23.4724C42.5695 22.7887 41.4291 22.7887 40.692 23.4724L38.1844 25.7881C36.8998 26.9746 34.8264 25.9758 34.955 24.2327L35.2028 20.8289C35.2756 19.8264 34.5652 18.9354 33.5708 18.784C33.4644 18.7677 30.0908 18.2514 30.1972 18.2677C28.4693 18.0044 27.9566 15.76 29.4005 14.771L32.2152 12.8436C33.0447 12.2752 33.2982 11.1656 32.7971 10.2936L31.0979 7.33294C30.2261 5.81816 31.6605 4.01921 33.3328 4.52978C33.4362 4.56144 36.6997 5.56156 36.5968 5.53023C37.5587 5.82406 38.5839 5.33056 38.9547 4.39574C38.9577 4.38819 40.2067 1.21982 40.2067 1.21982C40.8498 -0.406363 43.15 -0.406363 43.7932 1.21982C45.0583 4.43003 45.045 4.39574 45.045 4.39574C45.4155 5.33056 46.4407 5.82406 47.4031 5.53023L49.3861 4.92139L50.6671 4.52994C52.3392 4.01921 53.7736 5.81832 52.9018 7.33311L51.2026 10.2938C50.7016 11.1658 50.9552 12.2753 51.7842 12.8438L54.5992 14.7712C56.0425 15.76 55.5296 18.0044 53.8015 18.2677Z" fill="#FC3842"/>
<path d="M53.8012 18.2677L53.0639 18.3811L50.4277 18.7842C49.433 18.9358 48.7226 19.8268 48.7958 20.8289L49.0434 24.233C49.1721 25.9765 47.0984 26.9749 45.8141 25.7884L43.3066 23.4728C42.5693 22.7893 41.4287 22.7893 40.6916 23.4728C37.9687 25.9872 37.9613 26.0769 37.3967 26.2338C36.4934 17.2689 38.6887 8.39153 43.6638 0.951477C43.7696 1.13752 43.6982 0.984782 45.0442 4.39596C45.4148 5.33095 46.44 5.82445 47.4021 5.53062L49.3853 4.92227L50.6659 4.53049C52.3382 4.01977 53.7725 5.81887 52.9008 7.33382L51.2016 10.2943C50.7004 11.1662 50.9539 12.2759 51.7834 12.8442L54.5982 14.7717C56.0418 15.7604 55.5291 18.0046 53.8012 18.2677Z" fill="#FC5162"/>
<path d="M69.365 16L66.4105 16.4511C65.5385 16.5855 64.9163 17.365 64.9798 18.2443L65.1989 21.2262C65.3103 22.7524 63.4936 23.628 62.3688 22.5874C60.8988 21.227 60.1743 20.5578 60.1743 20.5578C59.5271 19.9606 58.5288 19.9606 57.8819 20.5578L55.6851 22.5874C54.5619 23.628 52.7459 22.7524 52.8568 21.2262L53.0642 18.3807L53.8018 18.2675C55.5299 18.0042 56.0424 15.7598 54.5985 14.7708L51.7835 12.8434C50.9545 12.2749 50.7009 11.1654 51.2019 10.2934L52.9011 7.33273C53.7731 5.81827 52.3387 4.019 50.6664 4.52957L49.3857 4.92135C49.7042 4.18799 50.5299 3.69072 51.4364 3.96897L54.2948 4.84276C55.0736 5.08262 55.9851 4.744 56.363 3.84018L57.4571 1.06785C58.0197 -0.354893 60.0357 -0.354893 60.5982 1.06785L61.6909 3.84018C61.9029 4.39454 62.4083 4.80798 63.0136 4.89805C63.2577 4.93464 63.5108 4.91938 63.7605 4.8426L66.6178 3.9688C68.0824 3.51944 69.3403 5.09591 68.5759 6.42252L67.0861 9.01453C66.6482 9.77857 66.8708 10.7521 67.5968 11.2494L70.064 12.9391C71.3272 13.8035 70.8779 15.7693 69.365 16Z" fill="#FC3842"/>
<path d="M31.0985 7.33306L32.7977 10.2937C33.2988 11.1657 33.0453 12.2753 32.2158 12.8437L29.4011 14.7711C27.9572 15.7601 28.4699 18.0045 30.1978 18.2678L30.9351 18.381L31.1425 21.2262C31.2539 22.7528 29.4377 23.6284 28.3144 22.5877L26.1178 20.5581C25.471 19.9614 24.4724 19.9614 23.8255 20.5581C22.2174 22.0443 21.628 22.5903 21.631 22.5877C20.5057 23.6284 18.6895 22.7528 18.8009 21.2262L19.0198 18.2445C19.0831 17.365 18.4612 16.5853 17.5893 16.4513L14.6346 16.0001C13.1216 15.7696 12.6724 13.8037 13.9357 12.9396L16.4027 11.2499C17.1283 10.7526 17.3511 9.77922 16.9136 9.01519L15.4235 6.42333C14.6593 5.0964 15.917 3.51992 17.3818 3.96929L20.2389 4.84292C21.0689 5.09968 21.976 4.67902 22.3048 3.85002C22.3107 3.83574 23.4063 1.05538 23.4012 1.06834C23.9636 -0.354405 25.9796 -0.354405 26.5424 1.06834L27.6367 3.84066C27.9789 4.70183 28.8921 5.09344 29.7043 4.84308L32.5633 3.96945C33.4697 3.69104 34.2951 4.18848 34.6137 4.92151L33.3332 4.53005C31.6611 4.01916 30.2267 5.81811 31.0985 7.33306Z" fill="#EF2235"/>
<path d="M43.9199 13.4404C43.9199 14.5005 43.0606 15.3604 42.0001 15.3604C40.9398 15.3604 40.0801 14.5005 40.0801 13.4404C40.0801 12.3804 40.9398 11.5205 42.0001 11.5205C43.0606 11.5207 43.9199 12.3804 43.9199 13.4404Z" fill="#FFD176"/>
<path d="M61.1994 11.5207C61.1994 12.5808 60.3399 13.4406 59.2794 13.4406C58.2189 13.4406 57.3594 12.5808 57.3594 11.5207C57.3594 10.4607 58.2189 9.60089 59.2794 9.60089C60.3399 9.60089 61.1994 10.4607 61.1994 11.5207Z" fill="#FFD176"/>
<path d="M26.6397 11.5207C26.6397 12.5808 25.7802 13.4406 24.7198 13.4406C23.6595 13.4406 22.7998 12.5808 22.7998 11.5207C22.7998 10.4607 23.6595 9.60089 24.7198 9.60089C25.7802 9.60089 26.6397 10.4607 26.6397 11.5207Z" fill="#FFCA54"/>
</g>
<defs>
<clipPath id="clip0">
<rect width="84" height="84" fill="white"/>
</clipPath>
</defs>
</svg>
