<svg width="110" height="110" viewBox="0 0 110 110" fill="none" xmlns="http://www.w3.org/2000/svg">
<g clip-path="url(#clip0)">
<path d="M62.9194 109.573C57.6147 105.006 61.4916 100.436 64.1969 97.1363C67.8387 92.6948 71.2785 88.4994 65.0857 81.7999C60.0491 76.3515 59.2518 71.4346 59.4699 68.2695C59.7103 64.7884 61.165 62.6359 61.3304 62.4019C61.892 61.6059 62.9931 61.4158 63.7898 61.9774C64.5825 62.5368 64.7744 63.6312 64.2209 64.4266C64.0244 64.7171 59.9221 71.0139 67.6775 79.404C71.3254 83.3507 72.6714 87.1639 71.7922 91.062C71.053 94.3412 68.8605 97.0151 66.926 99.3741C63.4795 103.578 62.8616 104.866 65.2221 106.898C65.9605 107.534 66.0437 108.648 65.4079 109.387C64.7722 110.126 63.6576 110.208 62.9194 109.573Z" fill="#BAD8E8"/>
<path d="M44.2462 110C43.8315 110 43.4152 109.855 43.0794 109.559C32.38 100.121 36.9926 91.8215 42.1551 84.783C46.3688 79.0396 41.5177 73.3568 41.3093 73.1177C40.6701 72.3851 40.7419 71.2711 41.4721 70.6296C42.2024 69.9878 43.3118 70.0549 43.9563 70.783C46.386 73.528 49.7313 80.4226 45.0009 86.8704C40.0359 93.6393 36.9131 99.4132 45.4138 106.911C46.1449 107.556 46.2148 108.671 45.5702 109.402C45.2218 109.798 44.7351 110 44.2462 110Z" fill="#BAD8E8"/>
<path d="M69.4783 63.0741C69.0662 64.3373 67.7082 65.0278 66.4444 64.6164L59.7707 62.4416C58.5072 62.0295 57.8167 60.6715 58.2284 59.4078L58.6634 58.0732C59.0751 56.8092 60.4333 56.1189 61.6968 56.5306L68.3707 58.705C69.6344 59.1171 70.3247 60.4755 69.9131 61.7388L69.4783 63.0741Z" fill="#9EC6D8"/>
<path d="M36.8275 71.5516C37.2007 72.697 38.4321 73.323 39.5777 72.9498L45.6277 70.9782C46.7734 70.6048 47.3993 69.3731 47.0259 68.2278L46.6316 67.0178C46.2584 65.872 45.027 65.2462 43.8814 65.6192L37.8316 67.5908C36.6857 67.9642 36.06 69.1959 36.433 70.3412L36.8275 71.5516Z" fill="#9EC6D8"/>
<path d="M51.6914 51.0724L55.2825 44.5072C54.2212 42.567 52.1518 31.4196 51.1906 29.662C48.9552 25.5754 43.0861 18.5963 44.0329 14.3827C37.9894 14.2364 32.0773 17.3856 28.9762 23.0553L27.5271 25.7048L24.795 24.4181C16.4571 20.491 6.51545 24.0662 2.58833 32.4038C-1.33857 40.7412 2.23642 50.6831 10.5741 54.6102C11.9615 55.2635 36.7284 66.9289 38.0106 67.5326L43.7023 65.6781L49.1084 55.7944" fill="#DD2234"/>
<path d="M87.516 49.5303C89.4417 48.6233 97.1833 44.9769 98.4382 44.3859C107.636 40.0538 111.579 29.0869 107.248 19.8897C102.915 10.6925 91.9484 6.74858 82.7512 11.0805L79.7376 12.4999L78.139 9.57763C73.2599 0.657553 62.0753 -2.61709 53.1561 2.26157C44.2365 7.14002 40.9616 18.3248 45.8403 27.2442C46.6526 28.7292 61.1513 55.2357 61.8947 56.595L68.1732 58.641L82.2128 52.0279" fill="#EF2235"/>
<path d="M82.7515 11.0804L79.7379 12.4999C77.9796 9.28607 75.3635 3.27475 67.4102 0.824036C53.2228 17.7657 58.5584 43.863 78.8332 53.6201C80.6813 52.7497 96.5874 45.2577 98.4385 44.3861C107.636 40.054 111.58 29.0871 107.248 19.8899C102.915 10.6926 91.9485 6.74877 82.7515 11.0804Z" fill="#FC3842"/>
<path d="M10.4883 24.4592C-2.12217 30.4783 -2.1862 48.5997 10.5736 54.6099C11.961 55.2632 36.7279 66.9286 38.0101 67.5323L43.7018 65.6778C44.2479 64.6796 49.0112 55.9709 49.5754 54.9393C29.9404 57.8392 12.3578 43.6275 10.4883 24.4592Z" fill="#C6122C"/>
</g>
<defs>
<clipPath id="clip0">
<rect width="110" height="110" fill="white"/>
</clipPath>
</defs>
</svg>
