<svg width="84" height="84" viewBox="0 0 84 84" fill="none" xmlns="http://www.w3.org/2000/svg">
<path d="M84 42C84 65.1963 65.1963 84 42 84C18.8037 84 0 65.1963 0 42C0 18.8037 18.8037 0 42 0C65.1963 0 84 18.8037 84 42Z" fill="#FFDB66"/>
<path d="M68.5487 44.7096H63.6774V50.1288C63.6774 51.6252 62.4643 52.8384 60.9678 52.8384H23.0322C21.5358 52.8384 20.3226 51.6252 20.3226 50.1288V44.7096H15.4514C13.7697 44.7096 12.4508 46.2329 12.7802 47.8819C15.5116 61.526 27.5523 71.8062 42 71.8062C56.4478 71.8062 68.4884 61.526 71.2192 47.8819C71.5492 46.2329 70.2303 44.7096 68.5487 44.7096Z" fill="#966A5B"/>
<path d="M27.6904 68.1513C31.9375 70.4822 36.8126 71.8062 41.9998 71.8062C47.187 71.8062 52.0646 70.4815 56.3116 68.1507C53.5604 63.0769 48.1771 59.613 41.9998 59.613C35.8224 59.613 30.4417 63.0776 27.6904 68.1513Z" fill="#FF8086"/>
<path d="M31.0239 32.5171C30.4273 32.5171 29.8806 32.1191 29.7179 31.5161C29.2442 29.769 26.9525 28.4521 24.3871 28.4521C21.8217 28.4521 19.53 29.769 19.0563 31.5161C18.8609 32.2377 18.113 32.6613 17.3946 32.469C16.6723 32.2736 16.2461 31.5289 16.4422 30.8066C17.2504 27.8246 20.5175 25.7418 24.3871 25.7418C28.2573 25.7418 31.5238 27.8246 32.332 30.8066C32.5281 31.5289 32.1019 32.2736 31.3796 32.469C31.2604 32.5011 31.1419 32.5171 31.0239 32.5171Z" fill="#966A5B"/>
<path d="M66.1133 32.5171C65.5166 32.5171 64.97 32.1191 64.8072 31.5161C64.3336 29.769 62.0419 28.4521 59.4765 28.4521C56.9111 28.4521 54.6193 29.769 54.1457 31.5161C53.9502 32.2377 53.2062 32.6613 52.4839 32.469C51.7617 32.2736 51.3355 31.5289 51.5316 30.8066C52.3397 27.8246 55.6069 25.7418 59.4765 25.7418C63.3467 25.7418 66.6132 27.8246 67.4213 30.8066C67.6174 31.5289 67.1912 32.2736 66.469 32.469C66.3498 32.5011 66.2312 32.5171 66.1133 32.5171Z" fill="#966A5B"/>
<path d="M46.0644 79.9356C22.8688 79.9356 4.06439 61.1312 4.06439 37.9356C4.06439 27.3722 7.96472 17.7194 14.4029 10.3385C5.57684 18.0379 0 29.3678 0 42C0 65.1963 18.8037 84 42 84C54.6328 84 65.9615 78.4232 73.6609 69.5965C66.2806 76.0346 56.6278 79.9356 46.0644 79.9356Z" fill="#FFD064"/>
<path d="M20.3226 44.7096H15.4514C13.7697 44.7096 12.4508 46.2329 12.7802 47.8819C12.8411 48.1844 12.9308 48.4753 13 48.774H20.3226V44.7096Z" fill="#785353"/>
<path d="M68.5485 44.7096H63.6772V48.774H70.9998C71.069 48.4753 71.1587 48.1844 71.2196 47.8819C71.549 46.2329 70.2301 44.7096 68.5485 44.7096Z" fill="#785353"/>
<path d="M20.3228 44.7096V50.1288C20.3228 51.6252 21.5359 52.8384 23.0323 52.8384H60.968C62.4644 52.8384 63.6776 51.6252 63.6776 50.1288V44.7096H20.3228Z" fill="white"/>
<path d="M20.3228 44.7096H63.6776V48.774H20.3228V44.7096Z" fill="#FFF5D7"/>
<path d="M41.9999 69.0966C46.6078 69.0966 50.9035 67.7963 54.5789 65.5757C51.5976 61.9375 47.0705 59.613 41.9999 59.613C36.9294 59.613 32.4042 61.9381 29.4229 65.5763C33.0989 67.7969 37.3921 69.0966 41.9999 69.0966Z" fill="#E5646E"/>
<path d="M41.9998 71.8062C42.4548 71.8062 42.9047 71.7831 43.3546 71.7626V66.387C43.3546 65.6391 42.7484 65.0322 41.9998 65.0322C41.2513 65.0322 40.645 65.6391 40.645 66.387V71.7626C41.0949 71.7831 41.5448 71.8062 41.9998 71.8062Z" fill="#FF9A9F"/>
<path d="M41.9998 69.0966C42.4555 69.0966 42.9054 69.0838 43.3546 69.0588V66.387C43.3546 65.6391 42.7484 65.0322 41.9998 65.0322C41.2513 65.0322 40.645 65.6391 40.645 66.387V69.0588C41.0943 69.0838 41.5442 69.0966 41.9998 69.0966Z" fill="#FF8086"/>
</svg>
