<svg width="110" height="106" viewBox="0 0 110 106" fill="none" xmlns="http://www.w3.org/2000/svg">
<path d="M32.8206 86.5885C32.8206 95.1318 36.8775 99.2396 36.8775 99.2396H28.073C27.3604 99.2396 26.6896 98.901 26.278 98.3211C25.1071 96.6767 22.958 92.8078 22.958 86.5885C22.958 80.3671 25.1071 76.4982 26.278 74.8538C26.6896 74.2739 27.3604 73.9353 28.073 73.9353H36.8775C36.8775 73.9353 32.8206 78.0431 32.8206 86.5885Z" fill="#FB3A82"/>
<path d="M36.8773 73.9353C36.8773 73.9353 32.9354 77.9258 32.8226 86.2257L24.5627 95.1718C23.7061 93.1112 22.958 90.2604 22.958 86.5887C22.958 80.3673 25.1071 76.4984 26.278 74.854C26.6896 74.2741 27.3604 73.9355 28.073 73.9355H36.8773V73.9353Z" fill="#FB1466"/>
<path d="M100.634 86.5875C100.634 91.5081 102.394 95.9721 105.247 99.2401H34.6647C34.6647 99.2401 30.6074 95.1321 30.6074 86.5875C30.6074 78.043 34.6647 73.9349 34.6647 73.9349H105.247C102.394 77.2029 100.634 81.6669 100.634 86.5875Z" fill="#E0D3CE"/>
<path d="M44.1681 73.9354L30.6805 88.5452C30.6341 87.9211 30.6074 87.2682 30.6074 86.5887C30.6074 78.0432 34.6643 73.9354 34.6643 73.9354H44.1681Z" fill="#CDBFBB"/>
<path d="M100.634 86.5886C100.634 91.5096 102.394 95.9721 105.247 99.2405H96.8835C94.0306 95.9721 92.271 91.5094 92.271 86.5886C92.271 81.6676 94.0304 77.2018 96.8835 73.9366H105.247C102.394 77.2018 100.634 81.6676 100.634 86.5886Z" fill="#CDBFBB"/>
<path d="M109.997 71.5738C109.997 72.5875 109.586 73.5061 108.922 74.17C108.257 74.8339 107.339 75.2457 106.325 75.2457H36.1533C34.1261 75.2457 32.4814 73.6013 32.4814 71.5738C32.4814 70.5602 32.8931 69.6394 33.5572 68.9755C34.2213 68.3114 35.1397 67.8998 36.1533 67.8998H106.325C108.353 67.8998 109.997 69.5442 109.997 71.5738Z" fill="#FB3A82"/>
<path d="M49.7386 67.8998L42.9594 75.2457H36.1533C34.1261 75.2457 32.4814 73.6013 32.4814 71.5738C32.4814 70.5602 32.8931 69.6394 33.5572 68.9755C34.2213 68.3114 35.1397 67.8998 36.1533 67.8998H49.7386Z" fill="#FB1466"/>
<path d="M110 71.5724C110 72.5865 109.587 73.506 108.924 74.1688C108.258 74.8346 107.339 75.2471 106.325 75.2471H99.2017C100.216 75.2471 101.135 74.8346 101.798 74.1688C102.461 73.506 102.873 72.5865 102.873 71.5724C102.873 69.5441 101.23 67.9008 99.2017 67.9008H106.325C108.353 67.9008 110 69.5441 110 71.5724Z" fill="#FB1466"/>
<path d="M106.325 105.275H36.1537C34.1254 105.275 32.481 103.63 32.481 101.602C32.481 99.5736 34.1254 97.9292 36.1537 97.9292H106.326C108.354 97.9292 109.998 99.5736 109.998 101.602C109.998 103.63 108.354 105.275 106.325 105.275V105.275Z" fill="#FB3A82"/>
<path d="M109.999 101.602C109.999 102.616 109.587 103.535 108.924 104.198C108.258 104.861 107.339 105.274 106.325 105.274H99.2012C100.215 105.274 101.135 104.861 101.798 104.198C102.46 103.535 102.873 102.616 102.873 101.602C102.873 99.5738 101.23 97.9304 99.2012 97.9304H106.325C108.353 97.9304 109.999 99.5738 109.999 101.602Z" fill="#FB1466"/>
<path d="M65.8249 82.7906C65.8249 83.7069 65.0835 84.4505 64.165 84.4505H30.6958C30.7955 83.2353 30.9792 82.1287 31.2114 81.1305H64.165C65.0835 81.1307 65.8249 81.8743 65.8249 82.7906Z" fill="#CDBFBB"/>
<path d="M101.386 81.1307C101.082 82.1974 100.865 83.3086 100.746 84.4507H77.843C76.9267 84.4507 76.1831 83.7071 76.1831 82.7908C76.1831 81.8745 76.9269 81.131 77.843 81.131H101.386V81.1307Z" fill="#CDBFBB"/>
<path d="M83.4524 91.9909H44.7805C43.8638 91.9909 43.1206 91.2478 43.1206 90.331C43.1206 89.4143 43.8638 88.6711 44.7805 88.6711H83.4524C84.3693 88.6711 85.1122 89.4143 85.1122 90.331C85.1122 91.2478 84.3691 91.9909 83.4524 91.9909Z" fill="#CDBFBB"/>
<path d="M48.3474 62.8823L42.4182 56.953L2.0561 94.2129C-0.611183 96.6753 -0.694757 100.862 1.87198 103.429C4.43872 105.995 8.62538 105.912 11.0877 103.245L48.3474 62.8823Z" fill="#873F30"/>
<path d="M10.9092 103.431C8.42754 105.912 4.3773 105.934 1.87266 103.429C1.13166 102.688 0.612598 101.813 0.313965 100.882C2.52771 101.602 5.05342 101.075 6.79988 99.329C6.86111 99.2678 6.92234 99.2027 6.98186 99.1395L44.2426 58.7766L48.3483 62.8823L11.0873 103.245C11.0278 103.308 10.9685 103.371 10.9092 103.431V103.431Z" fill="#6C3328"/>
<path d="M54.1863 42.9043L40.5332 59.1905L46.1105 64.7679L62.3968 51.1148L54.1863 42.9043Z" fill="#873F30"/>
<path d="M54.1861 42.9043L49.7743 48.1669L51.0981 49.4908C52.0725 50.4651 52.0725 52.0448 51.0981 53.0191L42.73 61.3873L46.1103 64.7677L62.3963 51.1146L54.1861 42.9043Z" fill="#6C3328"/>
<path d="M42.603 68.1122L37.189 62.6982C35.6239 61.133 35.6239 58.5953 37.189 57.0299C38.7541 55.4648 41.2919 55.4648 42.8572 57.0299L48.2713 62.444C49.8364 64.0091 49.8364 66.5469 48.2713 68.1122C46.7061 69.6774 44.1684 69.6774 42.603 68.1122Z" fill="#BA5D4F"/>
<path d="M48.27 68.1119C47.4869 68.895 46.4604 69.2858 45.4377 69.2858C44.4114 69.2858 43.3849 68.8952 42.6018 68.1119L38.498 64.0082C39.2812 64.7913 40.3077 65.1821 41.3321 65.1802C42.3566 65.1821 43.383 64.7915 44.1663 64.0082C45.7327 62.4418 45.7308 59.9045 44.1663 58.34L48.27 62.4437C49.8362 64.0101 49.8364 66.5455 48.27 68.1119V68.1119Z" fill="#A34F41"/>
<path d="M61.2603 5.68146L73.2816 17.7028L54.4084 36.576L42.3871 24.5547L61.2603 5.68146Z" fill="#BA5D4F"/>
<path d="M80.7412 62.9243L68.7198 50.9029L87.593 32.0297L99.6144 44.0511L80.7412 62.9243Z" fill="#A34F41"/>
<path d="M39.0056 28.6972L38.5879 28.2795C37.0045 26.6961 37.0045 24.1287 38.5879 22.5451L59.2458 1.88726C60.8292 0.303858 63.3966 0.303858 64.9802 1.88726L65.3979 2.30491C66.9813 3.88831 66.9813 6.45569 65.3979 8.03931L44.74 28.6972C43.1564 30.2806 40.5892 30.2806 39.0056 28.6972Z" fill="#873F30"/>
<path d="M76.6041 66.2954L77.0217 66.713C78.6051 68.2964 81.1725 68.2964 82.7561 66.713L103.414 46.0552C104.997 44.4718 104.997 41.9044 103.414 40.3208L102.996 39.9031C101.413 38.3197 98.8455 38.3197 97.2619 39.9031L76.6041 60.561C75.0207 62.1446 75.0207 64.7118 76.6041 66.2954Z" fill="#6C3328"/>
<path d="M78.499 13.2868L91.999 26.7867L63.4949 55.2908L49.995 41.7909L78.499 13.2868Z" fill="#FCC16D"/>
<path d="M56.6538 48.4738L85.1579 19.9697L91.9907 26.8025L63.4866 55.3066L56.6538 48.4738Z" fill="#FCA62F"/>
<path d="M78.5646 12.7186L75.2571 11.3664C74.1233 10.9028 72.822 11.1649 71.9558 12.0309L48.7312 35.2558C47.8649 36.122 47.603 37.4231 48.0667 38.557L49.4189 41.8646C49.9672 43.2056 51.7046 43.5554 52.7292 42.531L79.231 16.0287C80.2554 15.0042 79.9056 13.2669 78.5646 12.7186V12.7186Z" fill="#873F30"/>
<path d="M92.5824 26.7361L93.9347 30.0436C94.3983 31.1773 94.1362 32.4786 93.2701 33.3449L70.0453 56.5695C69.1791 57.4357 67.878 57.6976 66.744 57.234L63.4365 55.8818C62.0955 55.3335 61.7457 53.5961 62.7701 52.5715L89.2719 26.0696C90.2969 25.0452 92.0341 25.395 92.5824 26.7361V26.7361Z" fill="#6C3328"/>
</svg>
