<svg width="84" height="70" viewBox="0 0 84 70" fill="none" xmlns="http://www.w3.org/2000/svg">
<path d="M73.7487 50.1731C73.7487 50.1731 84 45.9596 84 36.9953C84 29.5107 72.5729 0.80719 42 0.80719C11.4271 0.80719 0 29.5107 0 36.9953C0 45.9596 10.2513 50.1731 10.2513 50.1731H73.7487Z" fill="#7C7F2A"/>
<path d="M71.5167 40.4002C66.938 37.6926 55.7475 32.0505 42 32.0505C28.2526 32.0505 17.062 37.6926 12.4834 40.4002C11.1011 41.2175 10.2515 42.701 10.2515 44.3068V47.3553H73.7487V44.3068C73.7486 42.701 72.8989 41.2175 71.5167 40.4002Z" fill="#6A6925"/>
<path d="M36.1161 21.7322C36.3386 21.9971 36.4493 22.3382 36.4252 22.6834L36.2311 25.4518H47.769L47.5749 22.6834C47.5508 22.3382 47.6615 21.9973 47.884 21.7322L50.3167 18.8339C50.9508 18.0784 50.5744 16.9197 49.6173 16.6812L45.9456 15.7664C45.6099 15.6827 45.3198 15.4721 45.1364 15.1785L43.1317 11.9692C42.6092 11.1326 41.3909 11.1326 40.8683 11.9692L38.8636 15.1785C38.6804 15.4721 38.3903 15.6827 38.0545 15.7664L34.3828 16.6812C33.4256 16.9197 33.0493 18.0784 33.6834 18.8339L36.1161 21.7322Z" fill="#F7E471"/>
<path d="M73.7486 52.0372V47.3552C73.7486 45.7493 72.8989 44.2659 71.5167 43.4485C66.938 40.741 55.7475 35.0989 42 35.0989C28.2526 35.0989 17.062 40.741 12.4834 43.4485C11.1011 44.2659 10.2515 45.7493 10.2515 47.3552V52.0372H73.7486Z" fill="#08475E"/>
<path d="M10.2515 52.0372V55.0856H73.7487V52.0372C73.7487 52.0372 58.7964 42.9114 41.9995 42.9114C25.2028 42.9114 10.2515 52.0372 10.2515 52.0372Z" fill="#05303D"/>
<path d="M73.7489 55.0856C73.7489 55.0856 73.7489 69.1926 42.0002 69.1926C10.2515 69.1926 10.2515 55.0856 10.2515 55.0856C10.2515 55.0856 25.2026 45.9598 41.9995 45.9598C58.7966 45.9598 73.7489 55.0856 73.7489 55.0856Z" fill="#0A617D"/>
<path d="M47.769 25.4519L42.5002 23.3222C42.1794 23.1926 41.8208 23.1926 41.5001 23.3222L36.2312 25.4519L36.1606 26.4582C36.0917 27.4421 37.0773 28.1582 37.9917 27.7886L41.4999 26.3705C41.8206 26.2408 42.1793 26.2408 42.5 26.3705L46.0083 27.7886C46.9228 28.1582 47.9085 27.4421 47.8394 26.4582L47.769 25.4519Z" fill="#F1CB66"/>
</svg>
