<svg width="66" height="84" viewBox="0 0 66 84" fill="none" xmlns="http://www.w3.org/2000/svg">
<path d="M49.2879 60.9936L40.5847 51.4811V39.9094H25.4093V51.4847L16.8027 60.9936H49.2879Z" fill="#FFDDCE"/>
<path d="M47.7049 60.8225L39.9026 58.5319L32.9995 66.4474L21.064 52.76L8.37652 56.4839C3.4243 57.9375 0.0224609 62.481 0.0224609 67.6423V79.8848C0.0224609 82.1575 1.86505 84 4.13797 84H9.71954L10.7254 83.2822H11.2486L12.2545 84H53.7387L55.2152 82.9464H56.4398V72.4905C56.4399 67.0938 52.8831 62.3427 47.7049 60.8225Z" fill="#407093"/>
<path d="M57.6237 56.4833L44.9376 52.7589L39.04 59.5214L46.9211 61.8352C51.873 63.2889 55.2743 67.8325 55.2743 72.9932V82.9462H56.2745V83.9998H61.8616C64.1345 83.9998 65.977 82.1572 65.977 79.8845V67.6415C65.977 62.4806 62.5756 57.937 57.6237 56.4833Z" fill="#365E7D"/>
<path d="M12.2548 83.9998V77.2685C12.2548 76.5685 11.6873 76.001 10.9873 76.001C10.2872 76.001 9.71973 76.5685 9.71973 77.2685V83.9998H12.2548Z" fill="#365E7D"/>
<path d="M56.2743 83.9998V77.2685C56.2743 76.5685 55.7069 76.001 55.0068 76.001C54.3067 76.001 53.7393 76.5685 53.7393 77.2685V83.9998H56.2743Z" fill="#365E7D"/>
<path d="M10.1333 24.8038L8.83371 23.3708H6.05613L4.75659 24.8038L3.04395 34.8559C2.88235 35.8047 3.61324 36.6707 4.5758 36.6707H10.3137C11.2763 36.6707 12.0072 35.8047 11.8456 34.8559L10.1333 24.8038Z" fill="#E4F6FF"/>
<path d="M8.71283 22.3603V9.64938C8.71283 8.94933 8.14534 8.38184 7.44528 8.38184C6.74523 8.38184 6.17773 8.94933 6.17773 9.64938V22.3603H8.71283Z" fill="#407093"/>
<path d="M40.0221 8.63092H39.7425H26.2505H25.9709C20.8912 8.63092 16.7734 12.7487 16.7734 17.8284V17.9733V26.6999L18.2945 28.04H49.2194V17.9733V17.8284C49.2196 12.7489 45.1016 8.63092 40.0221 8.63092Z" fill="#EFC984"/>
<path d="M40.0221 8.63092H39.7425H38.5518V28.04H47.8154L49.2194 26.6999V17.9733V17.8284C49.2196 12.7489 45.1016 8.63092 40.0221 8.63092Z" fill="#EABC6B"/>
<path d="M32.9994 46.6063C33.1523 46.6063 33.3043 46.6036 33.4559 46.5986C37.0848 44.2938 39.5497 40.3204 39.7694 35.7562V19.6917H22.3186V23.9192C22.3186 25.455 21.0735 26.6999 19.5379 26.6999H16.7764V31.2472C16.7764 32.4091 17.7182 33.3512 18.8803 33.3512C19.2468 33.3512 19.5452 33.6384 19.5682 34.0043C20.0118 41.038 25.8538 46.6063 32.9994 46.6063Z" fill="#FFDDCE"/>
<path d="M46.4609 26.6999C44.9251 26.6999 43.6802 25.455 43.6802 23.9192V19.6917H38.5519V35.3427C38.3193 40.178 35.5368 44.3422 31.5205 46.5231C32.0065 46.5762 32.4991 46.6063 32.9992 46.6063C40.1448 46.6063 45.9867 41.038 46.4303 34.0043C46.4535 33.6384 46.7517 33.3512 47.1183 33.3512C48.2801 33.3512 49.2222 32.4093 49.2222 31.2472V26.6999H46.4609Z" fill="#FFCBBE"/>
<path d="M39.7693 14.2936V11.1604C38.2254 11.1482 36.9774 9.89414 36.9774 8.34736V2.7164L35.793 0.818692L33.4317 0.0676138C33.1485 -0.0224565 32.8445 -0.0224565 32.5613 0.0676138L6.85423 8.24432C5.42016 8.70042 5.56486 10.7752 7.04831 11.0278L32.9966 15.4472L39.7693 14.2936Z" fill="#407093"/>
<path d="M39.7699 11.2088L36.031 10.7463C34.016 10.4971 31.978 10.4971 29.9632 10.7465L15.7344 12.5072V18.8479C15.7344 19.535 16.2914 20.092 16.9785 20.092H39.7699V11.2088Z" fill="#4A80AA"/>
<path d="M59.1389 8.24436L35.793 0.818726V8.25847C35.793 9.78687 37.0262 11.0262 38.5517 11.0382V14.5012L58.9446 11.028C60.4283 10.775 60.573 8.70045 59.1389 8.24436Z" fill="#365E7D"/>
<path d="M38.5518 11.0582V20.0919H49.0204C49.7075 20.0919 50.2645 19.5349 50.2645 18.8479V12.507L38.5518 11.0582Z" fill="#407093"/>
<path d="M10.1333 24.8038H4.75684V21.2745C4.75684 20.5246 5.36469 19.9167 6.11462 19.9167H8.77538C9.52531 19.9167 10.1332 20.5246 10.1332 21.2745V24.8038H10.1333Z" fill="#FFE07D"/>
<path d="M40.5849 47.2449C40.5849 52.1681 39.1558 56.9854 36.4711 61.1121L33 66.4474L52.3659 54.9397L40.5849 47.2449Z" fill="#4A80AA"/>
<path d="M25.4148 47.2449C25.4148 52.1681 26.8439 56.9854 29.5287 61.1121L32.9997 66.4474L13.6338 54.9397L25.4148 47.2449Z" fill="#4A80AA"/>
<path d="M39.4639 54.7002C37.4722 55.1387 35.2897 55.3819 32.9995 55.3819C30.7096 55.3819 28.5269 55.1387 26.5352 54.7002C27.2267 56.9547 28.2289 59.1148 29.5283 61.1121L32.9995 66.4474L36.4706 61.1121C37.7701 59.1148 38.7724 56.9547 39.4639 54.7002Z" fill="#F4FBFF"/>
</svg>
