<svg width="110" height="72" viewBox="0 0 110 72" fill="none" xmlns="http://www.w3.org/2000/svg">
<path d="M37.8729 16.9697L40.913 15.3367L40.1019 13.68H15.0718L13.1382 15.2698L15.0718 16.9697L25.916 18.9033L37.8729 16.9697Z" fill="#7C7F2A"/>
<path d="M15.0718 16.9697L13.1382 18.9033L15.0718 20.9617H35.1681L38.4541 18.9656L37.8729 16.9697H15.0718Z" fill="#6A6925"/>
<path d="M81.4473 5.38109L68.0752 7.31468L54.7031 5.38109V4.48025C54.7031 2.0899 56.6408 0.152222 59.0312 0.152222H77.1191C79.5094 0.152222 81.4471 2.0899 81.4471 4.48025V5.38109H81.4473Z" fill="#7C7F2A"/>
<path d="M54.7041 9.37302L68.076 11.3066L81.4481 9.37302V5.38123H54.7041V9.37302Z" fill="#6A6925"/>
<path d="M88.5968 23.0769V13.7009C88.5968 11.3106 86.6591 9.37292 84.2688 9.37292H47.6109C44.7397 9.37292 42.0552 10.7967 40.4447 13.1737L28.6206 30.625L40.1016 32.5586L51.4561 30.625L88.5968 23.0769Z" fill="#C1B455"/>
<path d="M28.6207 30.6251L25.916 34.6171L38.9794 36.5507L48.7616 34.6171L52.0425 32.6212L51.4564 30.6251H28.6207Z" fill="#B2A34B"/>
<path d="M51.4561 30.6249L71.3201 32.5585L91.1841 30.6249V24.1857C91.1841 23.5731 90.6876 23.0768 90.0753 23.0768H57.141C56.7726 23.0768 56.4282 23.2599 56.2219 23.5652L51.4561 30.6249Z" fill="#7C7F2A"/>
<path d="M48.7617 34.6171L69.973 36.5507L91.1846 34.6171V30.6251H51.4565L48.7617 34.6171Z" fill="#6A6925"/>
<path d="M0.107734 51.2365C0.107734 61.1086 9.00871 69.7896 18.6152 69.7896H91.3845C100.991 69.7896 109.892 62.4898 109.892 51.2365H109.893C108.897 41.8943 100.991 34.6171 91.3848 34.6171H18.6152C9.0085 34.6171 1.10246 41.8943 0.106445 51.2367C0.106875 51.2365 0.107305 51.2365 0.107734 51.2365Z" fill="#9D7D52"/>
<path d="M18.8169 60.463H91.1836V64.455H18.8169V60.463Z" fill="#6A6925"/>
<path d="M18.8169 42.0097H91.1836V62.3965H18.8169V42.0097Z" fill="#7C7F2A"/>
<path d="M7.7749 51.2353C7.7749 57.28 13.3 62.3943 18.8157 62.3943C24.3316 62.3943 29.8565 57.2419 29.8565 51.2353C28.9145 45.9908 24.3314 42.0099 18.8157 42.0099C13.2998 42.0097 8.71699 45.9906 7.7749 51.2353Z" fill="#F7E471"/>
<path d="M2.16412 21.7065H12.9078C14.103 21.7065 15.0719 19.9132 15.0719 17.6088V13.041C15.0719 11.8458 14.103 10.8771 12.9078 10.8771H2.16412C0.968945 10.8771 0 11.8458 0 13.041V17.6088C0 20.4613 0.968945 21.7065 2.16412 21.7065Z" fill="#C1B455"/>
<path d="M12.9078 19.7729H2.16412C0.968945 19.7729 0 18.8039 0 17.6088V21.6008C0 22.796 0.968945 23.7649 2.16412 23.7649H12.9078C14.103 23.7649 15.0719 22.796 15.0719 21.6008V17.6088C15.0717 18.8039 14.103 19.7729 12.9078 19.7729Z" fill="#B2A34B"/>
<path d="M91.3847 67.856H18.6154C9.00883 67.856 1.10408 60.5786 0.107852 51.2366C0.0380273 51.8925 0 52.5579 0 53.2325C0 63.5134 8.33443 71.8478 18.6154 71.8478H91.3847C101.666 71.8478 110 63.5134 110 53.2325C110 52.5579 109.962 51.8925 109.892 51.2366C108.896 60.5786 100.991 67.856 91.3847 67.856Z" fill="#8A6D49"/>
<path d="M18.8155 60.4607C13.2996 60.4607 8.7168 56.4799 7.77471 51.2354C7.65826 51.8835 7.59424 52.5498 7.59424 53.2313C7.59424 59.4286 12.6184 64.4528 18.8157 64.4528C25.0131 64.4528 30.0372 59.4286 30.0372 53.2313C30.0372 52.5496 29.9732 51.8833 29.8568 51.2354C28.9143 56.4799 24.3314 60.4607 18.8155 60.4607Z" fill="#F1CB66"/>
<path d="M43.6631 51.2353C43.6631 57.28 49.1882 62.3943 54.7039 62.3943C60.2198 62.3943 65.7447 57.2419 65.7447 51.2353C64.8026 45.9908 60.2196 42.0099 54.7039 42.0099C49.1882 42.0097 44.6052 45.9906 43.6631 51.2353Z" fill="#F7E471"/>
<path d="M54.7037 60.4607C49.1878 60.4607 44.605 56.4799 43.6629 51.2354C43.5464 51.8835 43.4824 52.5498 43.4824 53.2313C43.4824 59.4286 48.5065 64.4528 54.7039 64.4528C60.9013 64.4528 65.9254 59.4286 65.9254 53.2313C65.9254 52.5496 65.8614 51.8833 65.745 51.2354C64.8025 56.4799 60.2194 60.4607 54.7037 60.4607Z" fill="#F1CB66"/>
<path d="M80.1436 51.2353C80.1436 57.28 85.6687 62.3943 91.1844 62.3943C96.7003 62.3943 102.225 57.2419 102.225 51.2353C101.283 45.9908 96.7001 42.0099 91.1844 42.0099C85.6687 42.0097 81.0856 45.9906 80.1436 51.2353Z" fill="#F7E471"/>
<path d="M91.1842 60.4607C85.6683 60.4607 81.0855 56.4799 80.1434 51.2354C80.0269 51.8835 79.9629 52.5498 79.9629 53.2313C79.9629 59.4286 84.9868 64.4528 91.1844 64.4528C97.3818 64.4528 102.406 59.4286 102.406 53.2313C102.406 52.5496 102.342 51.8833 102.225 51.2354C101.283 56.4799 96.7001 60.4607 91.1842 60.4607Z" fill="#F1CB66"/>
</svg>
