<svg width="84" height="84" viewBox="0 0 84 84" fill="none" xmlns="http://www.w3.org/2000/svg">
<g clip-path="url(#clip0)">
<path d="M51.0695 29.3069L54.6924 32.9298L20.868 66.7549L17.2451 63.132L51.0695 29.3069Z" fill="#F2BB88"/>
<path d="M51.0697 29.3076L49.6207 30.7566L51.0697 32.2056C51.4702 32.6062 51.4702 33.2547 51.0697 33.6546L19.4185 65.3059L20.8675 66.7555L54.6925 32.9305L51.0697 29.3076Z" fill="#E3A76F"/>
<path d="M22.0752 67.9629L15.9158 61.8041C13.2485 59.1362 8.92266 59.1362 6.25536 61.8041L0.70031 67.3592C-0.233437 68.2929 -0.233437 69.8066 0.70031 70.7404L13.1383 83.179C14.072 84.1121 15.5864 84.1121 16.5195 83.179L22.0746 77.624C24.7425 74.956 24.7425 70.6308 22.0752 67.9629ZM14.1124 76.9068L6.9725 69.7669C6.57644 69.3709 6.57644 68.7287 6.9725 68.3326L9.8782 65.4269C10.5447 64.7598 11.6265 64.7598 12.293 65.4269L18.4517 71.5857C19.1189 72.2528 19.1189 73.334 18.4517 74.0011L15.546 76.9068C15.15 77.3029 14.5085 77.3029 14.1124 76.9068Z" fill="#828282"/>
<path d="M22.0752 67.9629L20.2635 66.1518C22.9314 68.8191 22.9314 73.145 20.2635 75.8123L16.1574 79.9183C15.357 80.7188 14.0599 80.7188 13.2594 79.9183L0.70031 67.3592C-0.233437 68.2929 -0.233437 69.8067 0.70031 70.7404L13.1383 83.179C14.072 84.1122 15.5864 84.1122 16.5195 83.179L22.0746 77.624C24.7425 74.9561 24.7425 70.6308 22.0752 67.9629Z" fill="#5A5A5A"/>
<path d="M56.5041 27.4959L47.4371 18.4289C46.909 17.9008 46.909 17.0446 47.4371 16.5165L58.9509 5.00268C63.1102 0.843435 69.117 -0.882426 74.8496 0.433279L80.9065 1.82461C81.5377 1.96944 82.0305 2.46227 82.1754 3.09353L83.5661 9.15038C84.8831 14.883 83.1566 20.8898 78.9973 25.0491L67.4835 36.5629C66.9554 37.091 66.0992 37.091 65.5711 36.5629L56.5041 27.4959Z" fill="#CDCDCD"/>
<path d="M78.9976 25.049C83.1568 20.8897 84.8833 14.8829 83.567 9.1503L82.1756 3.09344C82.1192 2.84799 82.0096 2.62497 81.8603 2.43335C81.4809 6.31702 79.782 10.0148 76.9449 12.852L59.4023 30.3938L65.5713 36.5628C66.0994 37.0909 66.9556 37.0909 67.4837 36.5628L78.9976 25.049Z" fill="#BEBEBE"/>
<path d="M54.8233 33.0612L50.939 29.1769C50.4109 28.6488 50.4109 27.7926 50.939 27.2645L56.5043 21.6992C57.5714 20.6322 59.3017 20.6322 60.3688 21.6992L62.3004 23.6314C63.368 24.6985 63.368 26.4288 62.3004 27.4959L56.7357 33.0612C56.2076 33.5893 55.3514 33.5893 54.8233 33.0612Z" fill="#828282"/>
<path d="M62.3009 23.6314L60.3687 21.6992C61.4357 22.7663 61.4357 24.4966 60.3687 25.5637L53.8472 32.0845L54.8239 33.0612C55.3513 33.5893 56.2075 33.5893 56.7356 33.0612L62.3009 27.4959C63.3679 26.4288 63.3679 24.6985 62.3009 23.6314Z" fill="#5A5A5A"/>
</g>
<defs>
<clipPath id="clip0">
<rect width="84" height="84" fill="white"/>
</clipPath>
</defs>
</svg>
