<svg width="84" height="84" viewBox="0 0 84 84" fill="none" xmlns="http://www.w3.org/2000/svg">
<g clip-path="url(#clip0)">
<path d="M58.2879 60.9936L49.5847 51.4811V39.9094H34.4093V51.4847L25.8027 60.9936H58.2879Z" fill="#FFDDCE"/>
<path d="M56.7049 60.8225L48.9026 58.5319L41.9995 66.4474L30.064 52.76L17.3765 56.4839C12.4243 57.9375 9.02246 62.481 9.02246 67.6423V79.8848C9.02246 82.1575 10.865 84 13.138 84H18.7195L19.7254 83.2822H20.2486L21.2545 84H62.7387L64.2152 82.9464H65.4398V72.4905C65.4399 67.0938 61.8831 62.3427 56.7049 60.8225Z" fill="#407093"/>
<path d="M66.6237 56.4833L53.9376 52.7589L48.04 59.5214L55.9211 61.8352C60.873 63.2889 64.2743 67.8325 64.2743 72.9932V82.9462H65.2745V83.9998H70.8616C73.1345 83.9998 74.977 82.1572 74.977 79.8845V67.6415C74.977 62.4806 71.5756 57.937 66.6237 56.4833Z" fill="#365E7D"/>
<path d="M21.2548 83.9998V77.2685C21.2548 76.5685 20.6873 76.001 19.9873 76.001C19.2872 76.001 18.7197 76.5685 18.7197 77.2685V83.9998H21.2548Z" fill="#365E7D"/>
<path d="M65.2743 83.9998V77.2685C65.2743 76.5685 64.7069 76.001 64.0068 76.001C63.3067 76.001 62.7393 76.5685 62.7393 77.2685V83.9998H65.2743Z" fill="#365E7D"/>
<path d="M19.1333 24.8038L17.8337 23.3708H15.0561L13.7566 24.8038L12.0439 34.8559C11.8823 35.8047 12.6132 36.6707 13.5758 36.6707H19.3137C20.2763 36.6707 21.0072 35.8047 20.8456 34.8559L19.1333 24.8038Z" fill="#E4F6FF"/>
<path d="M17.7128 22.3603V9.64938C17.7128 8.94933 17.1453 8.38184 16.4453 8.38184C15.7452 8.38184 15.1777 8.94933 15.1777 9.64938V22.3603H17.7128Z" fill="#407093"/>
<path d="M49.0221 8.63092H48.7425H35.2505H34.9709C29.8912 8.63092 25.7734 12.7487 25.7734 17.8284V17.9733V26.6999L27.2945 28.04H58.2194V17.9733V17.8284C58.2196 12.7489 54.1016 8.63092 49.0221 8.63092Z" fill="#EFC984"/>
<path d="M49.0221 8.63092H48.7425H47.5518V28.04H56.8154L58.2194 26.6999V17.9733V17.8284C58.2196 12.7489 54.1016 8.63092 49.0221 8.63092Z" fill="#EABC6B"/>
<path d="M41.9994 46.6063C42.1523 46.6063 42.3043 46.6036 42.4559 46.5986C46.0848 44.2938 48.5497 40.3204 48.7694 35.7562V19.6917H31.3186V23.9192C31.3186 25.455 30.0735 26.6999 28.5379 26.6999H25.7764V31.2472C25.7764 32.4091 26.7182 33.3512 27.8803 33.3512C28.2468 33.3512 28.5452 33.6384 28.5682 34.0043C29.0118 41.038 34.8538 46.6063 41.9994 46.6063Z" fill="#FFDDCE"/>
<path d="M55.4609 26.6999C53.9251 26.6999 52.6802 25.455 52.6802 23.9192V19.6917H47.5519V35.3427C47.3193 40.178 44.5368 44.3422 40.5205 46.5231C41.0065 46.5762 41.4991 46.6063 41.9992 46.6063C49.1448 46.6063 54.9867 41.038 55.4303 34.0043C55.4535 33.6384 55.7517 33.3512 56.1183 33.3512C57.2801 33.3512 58.2222 32.4093 58.2222 31.2472V26.6999H55.4609Z" fill="#FFCBBE"/>
<path d="M48.7693 14.2936V11.1604C47.2254 11.1482 45.9774 9.89414 45.9774 8.34736V2.7164L44.793 0.818692L42.4317 0.0676138C42.1485 -0.0224565 41.8445 -0.0224565 41.5613 0.0676138L15.8542 8.24432C14.4202 8.70042 14.5649 10.7752 16.0483 11.0278L41.9966 15.4472L48.7693 14.2936Z" fill="#407093"/>
<path d="M48.7699 11.2088L45.031 10.7463C43.016 10.4971 40.978 10.4971 38.9632 10.7465L24.7344 12.5072V18.8479C24.7344 19.535 25.2914 20.092 25.9785 20.092H48.7699V11.2088Z" fill="#4A80AA"/>
<path d="M68.1389 8.24436L44.793 0.818726V8.25847C44.793 9.78687 46.0262 11.0262 47.5517 11.0382V14.5012L67.9446 11.028C69.4283 10.775 69.573 8.70045 68.1389 8.24436Z" fill="#365E7D"/>
<path d="M47.5518 11.0582V20.0919H58.0204C58.7075 20.0919 59.2645 19.5349 59.2645 18.8479V12.507L47.5518 11.0582Z" fill="#407093"/>
<path d="M19.1333 24.8038H13.7568V21.2745C13.7568 20.5246 14.3647 19.9167 15.1146 19.9167H17.7754C18.5253 19.9167 19.1332 20.5246 19.1332 21.2745V24.8038H19.1333Z" fill="#FFE07D"/>
<path d="M49.5849 47.2449C49.5849 52.1681 48.1558 56.9854 45.4711 61.1121L42 66.4474L61.3659 54.9397L49.5849 47.2449Z" fill="#4A80AA"/>
<path d="M34.4148 47.2449C34.4148 52.1681 35.8439 56.9854 38.5287 61.1121L41.9997 66.4474L22.6338 54.9397L34.4148 47.2449Z" fill="#4A80AA"/>
<path d="M48.4639 54.7002C46.4722 55.1387 44.2897 55.3819 41.9995 55.3819C39.7096 55.3819 37.5269 55.1387 35.5352 54.7002C36.2267 56.9547 37.2289 59.1148 38.5283 61.1121L41.9995 66.4474L45.4706 61.1121C46.7701 59.1148 47.7724 56.9547 48.4639 54.7002Z" fill="#F4FBFF"/>
</g>
<defs>
<clipPath id="clip0">
<rect width="84" height="84" fill="white"/>
</clipPath>
</defs>
</svg>
