<svg width="84" height="84" viewBox="0 0 84 84" fill="none" xmlns="http://www.w3.org/2000/svg">
<path d="M67.4339 45.3717L65.2711 47.1234L51.9822 44.8462L48.0382 44.1698L47.2941 42.9366L42.7448 35.3955C41.3278 33.6299 40.5994 31.6752 40.3843 29.6286C40.2785 28.6209 40.2976 27.5924 40.4207 26.5518C40.6566 24.5312 41.2845 22.4708 42.1499 20.4572C43.3952 17.5573 45.1296 14.7528 46.9004 12.2917C47.4658 11.5042 48.0347 10.7533 48.5915 10.0456C49.7205 8.61302 50.8028 7.35732 51.7134 6.34964C52.8962 5.04018 55.033 5.37665 55.7545 6.98616L62.3937 21.7666C62.7285 22.5124 63.0077 23.2842 63.228 24.0716C63.3511 24.5018 63.4535 24.9371 63.5402 25.3776L67.4339 45.3717Z" fill="#7BACDF"/>
<path d="M63.5397 25.3783C63.2974 24.1342 62.9129 22.9222 62.3936 21.766L55.7552 6.98591C55.0325 5.37675 52.8961 5.03993 51.7138 6.34887C51.2411 6.87214 50.7219 7.46287 50.1743 8.10945C51.2953 7.76275 52.5962 8.25462 53.129 9.44112L59.7674 24.2212C60.2867 25.3774 60.6712 26.5894 60.9135 27.8335L64.6495 47.0167L65.2718 47.1233L67.4336 45.3716L63.5397 25.3783Z" fill="#5F99D7"/>
<path d="M80.0048 22.6358L74.1216 26.977L72.1494 24.1961L71.6636 20.6534L80.0048 22.6358Z" fill="#FFE177"/>
<path d="M63.5209 59.5469L43.7853 64.0563C39.8187 64.9114 35.7793 67.5251 33.6478 70.7632C32.3331 72.8237 29.6361 78.3512 27.8011 82.1981C26.8698 84.1544 24.2925 84.6141 22.7419 83.0999L18.7494 79.201L16.8866 77.3834L10.3879 71.0372L8.46615 69.1606L3.53702 64.3477C1.73152 62.5838 2.62126 59.5174 5.09276 58.9971L30.9421 53.5459C32.203 53.2806 33.398 52.7585 34.4508 52.0145L38.1711 49.3834H38.1728L47.294 42.9367L60.21 33.8051L60.4094 32.7645L60.9436 29.9738C61.3356 27.9342 62.0762 25.813 63.2278 24.0717C64.317 22.4258 65.7721 21.118 67.6488 20.5422C69.3537 20.0184 70.6614 20.1624 71.6639 20.6532H71.6656L74.1215 26.9768L73.7833 27.5405C72.904 28.9991 72.6317 30.7456 73.0236 32.4037L76.1941 45.8262C77.2555 51.2496 70.0769 58.2496 63.5209 59.5469Z" fill="#D9DEF7"/>
<path d="M29.8978 70.7633C28.5831 72.8237 26.9257 76.8302 25.0908 80.677C24.5141 81.8885 23.3062 82.5252 22.1021 82.4756L22.7415 83.1C24.2921 84.6141 26.8694 84.1545 27.8007 82.1981C29.6357 78.3512 32.3327 72.8237 33.6474 70.7633C34.8524 68.9328 36.6673 67.3021 38.7338 66.0756C35.208 66.8666 31.7961 67.8793 29.8978 70.7633Z" fill="#BEC6ED"/>
<path d="M76.1952 45.8263L73.0232 32.4037C72.6312 30.7456 72.9035 28.9991 73.7829 27.5405L74.1221 26.9772L71.6652 20.6532H71.6634C70.661 20.1624 69.3532 20.0184 67.6483 20.5422C67.5826 20.5625 67.5188 20.5857 67.4541 20.6078C67.8388 20.8671 68.1435 21.2436 68.3176 21.6912L69.8429 25.6136C70.1719 26.4603 70.1996 27.3936 69.9212 28.2582C69.519 29.508 69.0287 31.3678 69.2738 32.4037L72.4457 45.8263C73.2669 50.027 69.1449 56.2139 64.1978 59.3929C70.5607 57.7704 77.2189 51.0632 76.1952 45.8263Z" fill="#BEC6ED"/>
<path d="M62.4454 34.1363L62.0707 37.7074L51.9818 44.8461H51.98L43.6498 50.7396L38.1708 49.3833L30.8101 47.5622C25.045 46.9291 21.0784 43.1464 18.3537 38.1548C17.8681 37.2668 17.4223 36.3407 17.013 35.3867C16.2412 33.5882 15.596 31.6925 15.0601 29.7725C14.8051 28.862 14.5744 27.9462 14.3646 27.0339C13.8633 24.8417 13.4887 22.6633 13.2077 20.6063C13.0794 19.668 12.9701 18.7539 12.8782 17.8763C12.6302 15.5089 12.5036 13.4016 12.4394 11.7557C12.3718 10.0057 14.1131 8.75692 15.7486 9.37956L36.3046 17.193C37.8344 17.774 39.2912 18.5302 40.6475 19.4442L42.1495 20.4571L60.4092 32.7643L62.4454 34.1363Z" fill="#D9DEF7"/>
<path d="M40.6472 19.4439C39.2907 18.5297 37.8338 17.7745 36.3048 17.1933L15.749 9.3797C14.1129 8.75775 12.3719 10.0063 12.4394 11.7553C12.4543 12.1407 12.473 12.5538 12.4956 12.9871C13.0359 12.7696 13.6606 12.7411 14.2709 12.9732L34.8267 20.787C36.3558 21.3682 37.8127 22.1233 39.1691 23.0375L62.0718 37.7073L62.0924 37.511C62.3099 35.4341 61.3636 33.4066 59.6318 32.2393L40.6472 19.4439Z" fill="#BEC6ED"/>
<path d="M75.0253 10.0591L70.9381 4.97353C69.9635 3.76085 68.5914 2.93198 67.0646 2.63315C65.2295 2.27413 63.8964 4.33961 64.9796 5.86397C65.8808 7.13216 67.2011 8.04098 68.7076 8.42948L75.0253 10.0591Z" fill="#5DE1C4"/>
<path d="M75.3748 11.7496L78.8087 6.20201C79.6275 4.87919 79.9522 3.3094 79.7253 1.7703C79.4527 -0.079774 77.0611 -0.648654 75.9846 0.880384C75.0889 2.15239 74.6718 3.70016 74.8073 5.25001L75.3748 11.7496Z" fill="#5DE1C4"/>
<path d="M77.5099 14.7045L71.1296 16.0686C69.6082 16.3938 68.0209 16.1706 66.6481 15.4385C64.9982 14.5585 65.2682 12.1151 67.0704 11.6166C68.5698 11.2019 70.1677 11.3308 71.5814 11.9803L77.5099 14.7045Z" fill="#5DE1C4"/>
<path d="M43.7887 30.2876C43.5407 30.6709 43.1227 30.8808 42.6978 30.8808C42.455 30.8808 42.2087 30.8132 41.9902 30.6709L40.3841 29.6286L33.8888 25.4157C33.3893 25.0897 32.8465 24.8399 32.2741 24.6682L13.208 20.6063C13.0796 19.668 12.9703 18.7539 12.8784 17.8763L32.8655 22.1343C32.8968 22.1412 32.9262 22.1481 32.9575 22.1586C33.7882 22.3996 34.5791 22.7604 35.3058 23.2321L40.4205 26.5518L43.4054 28.4891C44.009 28.8793 44.1807 29.6858 43.7887 30.2876Z" fill="#BEC6ED"/>
<path d="M39.7077 36.5922C39.4631 36.9963 39.033 37.22 38.5924 37.22C38.3635 37.22 38.1328 37.1593 37.9212 37.0327L30.6212 32.6273C30.0662 32.2926 29.4661 32.0463 28.8348 31.8972L15.0602 29.7725C14.8053 28.862 14.5746 27.9462 14.3647 27.0339L29.2805 29.3337C29.3117 29.3389 29.3429 29.3441 29.3742 29.3511C30.2899 29.5627 31.1606 29.9148 31.9653 30.4004L39.2654 34.8057C39.8811 35.1769 40.0788 35.9765 39.7077 36.5922Z" fill="#BEC6ED"/>
<path d="M37.342 43.4152C37.1026 43.8367 36.6621 44.0725 36.2112 44.0743C35.9926 44.0743 35.7724 44.0188 35.5694 43.9026L27.9832 39.5891C27.5565 39.3481 27.0987 39.1746 26.6182 39.0758L18.3539 38.1548C17.8682 37.2668 17.4225 36.3406 17.0132 35.3867L26.9634 36.4967C26.9981 36.5002 27.0345 36.5054 27.0692 36.5123C27.8427 36.6632 28.5833 36.9373 29.2684 37.3275L36.8546 41.6409C37.479 41.9965 37.6975 42.7908 37.342 43.4152Z" fill="#BEC6ED"/>
<path d="M33.8417 59.0405L29.9012 59.8626C28.9837 60.0551 28.0991 60.3742 27.2718 60.8113L10.3875 71.0373L8.46582 69.1607L25.9554 58.567C25.9762 58.5549 25.9953 58.5427 26.0179 58.5323C27.0724 57.9704 28.1997 57.5611 29.3687 57.3165L33.3092 56.4927C34.0134 56.347 34.7019 56.7979 34.8494 57.5004C34.9968 58.2045 34.5458 58.8931 33.8417 59.0405Z" fill="#BEC6ED"/>
<path d="M35.8783 63.5118L33.5993 64.1951C32.7564 64.4466 32.0002 64.927 31.4122 65.5809C31.407 65.5878 31.4018 65.593 31.3966 65.5982L18.7495 79.201L16.8867 77.3834L29.4853 63.8343C30.3907 62.8284 31.5545 62.0913 32.8518 61.7028L35.1325 61.0194C35.8193 60.813 36.5443 61.2033 36.7507 61.8918C36.9571 62.5787 36.5669 63.3054 35.8783 63.5118Z" fill="#BEC6ED"/>
<path d="M55.8707 24.8503C55.6625 24.9734 55.4336 25.0324 55.2081 25.0324C54.7641 25.0324 54.3305 24.8052 54.0877 24.3959L46.9004 12.2916C47.4658 11.5042 48.0347 10.7532 48.5914 10.0455L56.3251 23.0673C56.691 23.6848 56.4881 24.4826 55.8707 24.8503Z" fill="#5F99D7"/>
<path d="M61.2826 52.804C60.8191 52.804 60.3706 52.5557 60.1358 52.119C59.7957 51.4863 60.0328 50.6975 60.6655 50.3572C68.6095 46.0862 74.2511 40.3626 76.9803 33.8047C79.1809 28.5172 79.4163 22.7079 77.6261 17.866C76.0051 13.4821 71.0255 9.01433 70.9754 8.96976C70.4389 8.49228 70.3909 7.67018 70.8682 7.13356C71.3455 6.59711 72.1671 6.54855 72.704 7.02568C72.9283 7.22496 78.2177 11.9645 80.0662 16.9639C82.0817 22.4149 81.8323 28.9175 79.3821 34.8045C76.4203 41.9207 70.3742 48.0912 61.8972 52.6488C61.7014 52.7541 61.4905 52.804 61.2826 52.804Z" fill="#0ED2B3"/>
</svg>
