<svg width="72" height="72" viewBox="0 0 72 72" fill="none" xmlns="http://www.w3.org/2000/svg">
<g clip-path="url(#clip0)">
<path d="M62.0712 0.0885763L23.4605 12.1264C22.0769 12.4626 21.1025 13.7018 21.1025 15.1257V51.786C14.1094 48.582 6.11328 53.7051 6.11328 61.4133C6.11328 67.2602 10.853 72 16.7 72C22.7474 72 27.6144 66.9275 27.2679 60.8031C27.2797 60.5565 27.2758 63.1732 27.2758 25.2689L59.7131 14.7305V41.4808C52.7129 38.2647 44.7132 43.3952 44.7132 51.1032C44.7132 56.9502 49.4531 61.6899 55.2997 61.6899C60.706 61.6899 65.8864 57.5548 65.8864 50.6215C65.8864 47.2446 65.8864 4.27583 65.8864 3.08769C65.8862 1.0894 64.0117 -0.383221 62.0712 0.0885763Z" fill="#0DBAA1"/>
<path d="M62.0711 0.088576L42.9346 6.05487C42.4061 10.6498 43.0953 15.2883 44.9644 19.5221L59.7131 14.7305V33.4007C61.6708 34.1253 63.7391 34.6199 65.8863 34.8536C65.8863 34.6586 65.8863 5.3149 65.8863 3.08783C65.8862 1.0894 64.0116 -0.383221 62.0711 0.088576Z" fill="#18C4A7"/>
<path d="M27.2758 56.0281C25.586 53.8003 22.9112 52.3603 19.8988 52.3603C14.7883 52.3603 10.645 56.5034 10.645 61.6141C10.645 67.4913 16.0663 71.9056 21.8568 70.6584C25.3018 68.7326 27.5043 64.9846 27.2677 60.8031C27.279 60.5712 27.2758 61.3122 27.2758 56.0281Z" fill="#17DDC0"/>
<path d="M65.878 50.7823C65.8895 50.5569 65.8861 51.2786 65.8861 45.5961C64.1979 43.3474 61.5099 41.8925 58.4814 41.8925C53.3708 41.8925 49.2275 46.0355 49.2275 51.1461C49.2275 57.2296 55.0158 61.6833 60.9209 60.0726C63.9587 58.1647 65.9898 54.7453 65.878 50.7823Z" fill="#17DDC0"/>
</g>
<defs>
<clipPath id="clip0">
<rect width="72" height="72" fill="white"/>
</clipPath>
</defs>
</svg>
