<svg width="72" height="72" viewBox="0 0 72 72" fill="none" xmlns="http://www.w3.org/2000/svg">
<g clip-path="url(#clip0)">
<path d="M67.3563 59.633L59.3436 61.7037V61.7053C50.7766 63.9214 50.9638 64.0131 50.3672 63.6221C49.4826 63.0502 49.6904 61.6871 50.7209 61.4198L57.5551 59.6523L52.912 41.7023C53.5316 42.3354 54.8789 42.1986 55.2687 41.0922L59.9119 59.0437L66.7477 57.2746C67.3983 57.1074 68.0624 57.4985 68.2311 58.1494C68.3982 58.8004 68.0071 59.4643 67.3563 59.633Z" fill="#ECEEF0"/>
<path d="M22.3452 71.0343C22.2235 71.6071 21.7187 72 21.1555 72C21.0711 72 20.9867 71.9919 20.9024 71.9741C3.55164 68.3179 4.48933 68.5896 4.13397 68.2656C3.21653 67.4798 3.98476 65.9219 5.20679 66.1784L12.1156 67.634L15.9376 49.4911C16.2329 50.3656 17.5 50.7918 18.3202 49.9928C17.6283 53.2723 18.099 51.039 14.4965 68.1358L21.4054 69.5915C22.0628 69.7309 22.4833 70.3754 22.3452 71.0343Z" fill="#ECEEF0"/>
<path d="M56.1521 13.4039C56.1521 13.4039 48.0259 15.6015 44.728 12.6266C42.304 10.4425 38.6166 10.3892 36.5694 10.9291L35.357 6.98849C34.9017 5.4471 35.8204 3.83737 37.3711 3.43757L42.3585 2.14734L50.3091 0.0909765C51.8712 -0.312195 53.4667 0.665148 53.8001 2.25604L56.1521 13.4039Z" fill="#ECEEF0"/>
<path d="M34.2729 14.553C33.8639 16.1385 33.3267 18.2128 32.778 20.337L32.7765 20.3389C32.6467 20.4119 27.2568 23.4778 23.1425 21.6162C20.1815 20.2777 16.1622 20.7634 13.8413 21.6162C15.8091 9.59343 15.6008 10.0614 16.2564 9.27365C16.8868 8.5078 17.9417 8.07805 19.0284 8.30629C24.4547 9.45013 21.7502 8.88018 32.1078 11.0623C33.6859 11.394 34.6801 12.9767 34.2729 14.553Z" fill="#ECEEF0"/>
<path d="M55.8675 39.3721C55.8485 39.4268 55.2465 41.1559 55.2655 41.1013C54.9317 42.0618 53.7214 42.418 52.9121 41.7028C51.0904 40.0728 47.4677 37.0561 44.135 31.5397C40.7181 25.1034 41.653 27.4565 36.5688 10.9298C36.5688 10.9298 41.4262 9.65099 44.7275 12.6275C48.0268 15.6022 56.1516 13.4048 56.1516 13.4048C57.3809 19.2371 59.8566 27.9113 55.8675 39.3721Z" fill="#FFC20A"/>
<path d="M32.7761 20.3396C32.0133 23.2916 31.2229 26.3446 30.71 28.3295C29.836 31.5484 28.0664 40.4446 19.6203 48.7187C19.604 48.7347 18.2965 50.0163 18.3128 50.0002C17.5714 50.7263 16.3231 50.4682 15.9378 49.4913L15.2611 47.8001C10.7804 36.5932 12.804 27.9521 13.8409 21.6172C13.8409 21.6172 18.9758 19.7327 23.142 21.6172C27.2563 23.4784 32.6461 20.4129 32.7761 20.3396Z" fill="#FFC20A"/>
<path d="M23.3244 9.2119C21.1334 12.1608 18.4376 17.304 17.8549 20.816C16.1494 20.9493 14.5519 21.3551 13.8413 21.6163C15.8338 9.4421 15.5297 10.4964 16.2564 9.27377C16.8868 8.50793 17.9417 8.07818 19.0284 8.30641L23.3244 9.2119Z" fill="#D8D9DD"/>
<path d="M25.5548 41.2912C23.8929 43.987 21.9032 46.4814 19.6212 48.7179C19.6097 48.7292 18.3258 49.9898 18.3132 50.0001C17.5188 50.7786 16.2328 50.38 15.9387 49.4903L15.2619 47.7993C10.7811 36.5949 12.8046 27.9513 13.8417 21.6177C13.8417 21.6177 15.58 20.98 17.8553 20.8174C16.5998 28.4068 19.387 36.2332 25.5548 41.2912Z" fill="#F7B307"/>
<path d="M57.8647 30.2537C57.3708 35.398 56.0728 38.754 55.2663 41.1013C54.9007 42.1503 53.578 42.3668 52.913 41.7019C46.9312 36.3495 45.4579 34.0282 42.1009 27.7055C40.673 24.6125 40.4959 23.6918 36.5698 10.9291C36.5698 10.9291 38.8323 10.3334 41.3187 10.9016C42.096 20.1635 48.7422 28.0253 57.8647 30.2537Z" fill="#F7B307"/>
<path d="M41.3185 10.9014C39.7118 10.5438 37.8746 10.5851 36.5696 10.9289L35.3572 6.98835C35.0699 6.01607 35.328 5.01482 35.9529 4.30888C36.657 3.50282 36.9228 3.55218 42.0064 2.23804C41.3919 5.92804 41.0857 8.18226 41.3185 10.9014Z" fill="#D8D9DD"/>
</g>
<defs>
<clipPath id="clip0">
<rect width="72" height="72" fill="white"/>
</clipPath>
</defs>
</svg>
