<svg width="245" height="40" viewBox="0 0 245 40" fill="none" xmlns="http://www.w3.org/2000/svg">
<g clip-path="url(#clip0)">
<path d="M222.392 38.5813C222.46 38.973 222.801 39.2577 223.198 39.257L228.595 39.9503C230.441 40.2547 232.227 39.1337 232.759 37.3377C232.916 36.809 233.277 36.3647 233.762 36.102C234.247 35.8393 234.817 35.78 235.344 35.9377L237.84 36.6767C238.274 36.8047 238.731 36.557 238.861 36.1223C238.99 35.688 238.744 35.2317 238.309 35.1037L235.813 34.3653C233.849 33.7857 231.781 34.907 231.192 36.8723C230.89 37.8913 229.866 38.5183 228.823 38.3227C228.773 38.3137 228.722 38.3093 228.671 38.309L223.204 37.6167C222.751 37.6173 222.383 37.985 222.383 38.4377C222.382 38.486 222.385 38.534 222.392 38.5813Z" fill="#FF9811"/>
<path d="M240.397 39.0623C238.077 38.8093 236.369 37.065 236.581 35.166C236.794 33.2672 238.847 31.9329 241.167 32.1859C243.486 32.4389 245.195 34.1833 244.982 36.0823C244.77 37.981 242.717 39.3153 240.397 39.0623Z" fill="#8C4DA2"/>
<path d="M219.664 32.6427C219.919 32.9471 220.357 33.0228 220.701 32.8234L225.73 30.724C227.483 30.0641 228.472 28.2018 228.035 26.3833C227.908 25.8475 227.999 25.2824 228.288 24.8129C228.578 24.3433 229.042 24.0073 229.579 23.8799L232.113 23.2705C232.554 23.1641 232.826 22.7215 232.721 22.2808C232.617 21.8407 232.174 21.5693 231.734 21.6758L229.199 22.2857C227.206 22.7669 225.973 24.7704 226.444 26.7644C226.691 27.7965 226.116 28.8505 225.114 29.2029C225.066 29.2201 225.019 29.2417 224.975 29.2669L219.886 31.4026C219.494 31.6297 219.359 32.1313 219.585 32.5227C219.608 32.5651 219.634 32.6051 219.664 32.6427Z" fill="#FF9811"/>
<path d="M238.55 22.2536C237.053 23.5102 232.835 24.6155 231.355 22.8512L238.581 16.7842C240.06 18.5482 240.046 20.9972 238.55 22.2536Z" fill="#F0442D"/>
<path d="M238.581 16.7842L231.355 22.8512C229.876 21.0869 231.696 17.1215 233.192 15.8648C234.689 14.6084 237.101 15.0199 238.581 16.7842Z" fill="#F0442D"/>
<path d="M216.129 28.127C216.227 28.1628 216.33 28.1796 216.434 28.1761C216.887 28.1617 217.243 27.7824 217.229 27.3299L217.152 24.6776C217.131 23.9764 217.558 23.3382 218.215 23.0898L220.118 22.3712C221.176 21.9725 221.975 21.0848 222.261 19.9912C222.547 18.8976 222.283 17.7348 221.555 16.8737C221.226 16.4865 221.074 15.9796 221.135 15.4746C221.195 14.9692 221.461 14.5111 221.872 14.2098L223.346 13.1249C224.129 12.5494 224.724 11.7544 225.057 10.841L225.475 9.69534C225.63 9.2697 225.412 8.79954 224.987 8.64527C224.562 8.49104 224.091 8.7111 223.935 9.13677L223.517 10.2824C223.295 10.8916 222.898 11.4213 222.375 11.8049L220.901 12.8894C220.125 13.461 219.619 14.3283 219.505 15.2848C219.392 16.2408 219.679 17.2006 220.301 17.9345C220.685 18.3889 220.824 19.0028 220.673 19.5802C220.522 20.1574 220.1 20.6262 219.542 20.8361L217.638 21.5555C216.324 22.0514 215.469 23.3283 215.511 24.731L215.589 27.3822C215.599 27.7183 215.813 28.0132 216.129 28.127Z" fill="#FF9811"/>
<path d="M229.042 2.60124C229.633 2.32413 230.309 2.29288 230.922 2.51503C231.534 2.73731 232.032 3.19458 232.306 3.78533C232.584 4.37673 232.614 5.0554 232.389 5.67037C232.164 6.28533 231.704 6.78617 231.11 7.06117L224.423 10.187L226.813 3.64327L229.042 2.60124Z" fill="#3893FF"/>
<path d="M222.513 0.232919C223.104 -0.0441957 223.781 -0.0754414 224.393 0.146706C225.005 0.368853 225.504 0.826257 225.778 1.41702L226.813 3.64327L224.423 10.187L221.317 3.50873C221.039 2.91736 221.009 2.23856 221.234 1.62359C221.458 1.00862 221.919 0.507917 222.513 0.232919Z" fill="#3893FF"/>
<path d="M45.0514 31.8595C45.2055 30.7791 45.4795 29.4844 45.8732 27.9753C46.1299 26.9807 46.5493 25.4888 47.1315 23.4996L47.5167 22.2649V22.2391L47.5423 22.2134C47.8336 21.7161 48.3642 21.4074 49.1345 21.2874C49.9051 21.1674 50.7609 21.1159 51.7027 21.1331L51.9337 21.1588L51.9593 21.3388C53.0894 26.089 54.2705 31.8166 55.5031 38.5217L55.5288 38.6503L55.4519 38.7533C55.1093 39.1647 54.613 39.439 53.9626 39.5763C53.3118 39.7137 52.5928 39.782 51.8052 39.782C51.3944 39.782 50.9663 39.7563 50.5213 39.705L50.3159 39.6793L50.2902 39.499C50.0849 38.6417 49.9307 37.407 49.8279 35.795C49.7253 34.166 49.6568 32.5111 49.6225 30.8306C49.6055 30.6934 49.5968 30.4962 49.5968 30.2389L49.494 30.2647L49.2886 31.1392C49.0146 32.4768 48.7666 33.48 48.5439 34.1487C48.1844 35.2633 47.8679 36.1893 47.5939 36.927C47.3369 37.6643 47.046 38.3587 46.7208 39.0103L46.6951 39.036L46.6692 39.0877C46.2927 39.4477 45.6848 39.6277 44.846 39.6277C44.4865 39.6277 44.2125 39.5763 44.0244 39.4733L43.9472 39.4477L43.9216 39.3707C42.7745 37.107 41.7815 35.0747 40.9426 33.2742C40.7372 32.8284 40.4203 32.031 39.9926 30.882L39.6331 29.9303H39.5558C39.5558 30.7362 39.5901 31.9109 39.6587 33.4543C39.6757 33.8143 39.693 34.346 39.71 35.049C39.7273 35.735 39.7356 36.3353 39.7356 36.8497C39.7356 37.6387 39.71 38.4447 39.6587 39.2677V39.525H39.4017C39.1794 39.542 38.8285 39.5507 38.3488 39.5507C35.9008 39.5507 34.3686 39.1477 33.7524 38.3417L33.7008 38.2387L36.3715 22.1363L36.3971 22.1105C36.483 21.8019 36.7054 21.5961 37.0649 21.4932H37.1165L37.1934 21.4675C38.1864 21.3303 38.931 21.2445 39.4277 21.2102C39.924 21.1416 40.3091 21.1159 40.5831 21.1331L40.7629 21.1588L40.8141 21.3131C42.2009 24.3999 43.2452 26.8435 43.9472 28.6441C44.2381 29.3815 44.5208 30.1703 44.7947 31.0106C44.846 31.1478 44.9315 31.4308 45.0514 31.8595Z" fill="#222222"/>
<path d="M65.1278 21.3388C66.6344 21.3388 67.9869 21.7933 69.1853 22.7022C70.3836 23.5939 71.3167 24.76 71.9845 26.2005C72.6522 27.6238 72.9861 29.1071 72.9861 30.6505C72.9861 32.3825 72.7035 33.926 72.1386 35.2807C71.5907 36.6183 70.7262 37.6813 69.5448 38.4703C68.3637 39.259 66.8827 39.6533 65.1022 39.6533C63.8182 39.6533 62.5599 39.3707 61.3273 38.8047C60.1116 38.2387 59.076 37.407 58.2198 36.3097C57.364 35.195 56.8334 33.8743 56.6277 32.3482C56.5764 31.9023 56.5508 31.4308 56.5508 30.9335C56.5508 30.2818 56.5937 29.6216 56.6793 28.9528C56.7648 28.284 56.8847 27.6924 57.0388 27.1779C57.381 26.029 57.9289 25.0172 58.6822 24.1426C59.4525 23.2509 60.3856 22.565 61.4814 22.0848C62.5942 21.5875 63.8096 21.3388 65.1278 21.3388ZM65.205 25.9432C64.3488 25.9432 63.6042 26.149 62.9707 26.5606C62.3546 26.955 61.9351 27.5037 61.7124 28.2068C61.5756 28.7213 61.507 29.1843 61.507 29.5959C61.507 29.9217 61.55 30.2732 61.6355 30.6505C61.8409 31.4736 62.243 32.1853 62.8422 32.7855C63.4587 33.3687 64.1947 33.6857 65.0509 33.7373L65.7955 33.763C66.6174 33.6943 67.2422 33.3171 67.6703 32.6312C68.1154 31.9281 68.3378 31.0964 68.3378 30.136C68.3378 29.433 68.2179 28.7642 67.9782 28.1297C67.7386 27.478 67.3791 26.955 66.8997 26.5606C66.4204 26.149 65.8555 25.9432 65.205 25.9432Z" fill="#222222"/>
<path d="M88.4564 34.9977C88.1997 36.764 87.3349 38.0243 85.8629 38.779C84.3906 39.5163 82.567 39.885 80.393 39.885C78.5951 39.885 76.6607 39.6707 74.5892 39.242L74.8975 22.0334C77.1914 21.4675 79.2286 21.1845 81.0092 21.1845C82.9266 21.1845 84.4761 21.5618 85.6572 22.3163C86.8386 23.0537 87.4291 24.3055 87.4291 26.0718C87.4291 26.9636 87.1981 27.8124 86.7357 28.6184C86.2906 29.4072 85.6828 29.9217 84.9125 30.1618C86.1282 30.3333 87.027 30.8134 87.6088 31.6022C88.208 32.3739 88.5076 33.2657 88.5076 34.2773C88.5076 34.449 88.4906 34.689 88.4564 34.9977ZM79.2885 28.567C81.3261 28.3269 82.3703 27.701 82.4216 26.6892C82.5244 25.3516 81.6683 24.6828 79.8537 24.6828L79.3657 24.7085L79.2885 28.567ZM79.8021 36.0523C81.1034 36.0693 82.0621 35.8467 82.6786 35.3837C83.3117 34.9203 83.6286 34.363 83.6286 33.7117C83.6286 33.403 83.5001 33.0942 83.2435 32.7855C82.9865 32.4768 82.6186 32.2282 82.139 32.0395C81.6596 31.8338 81.1203 31.7309 80.5212 31.7309C80.2132 31.7309 79.8877 31.7566 79.5455 31.808C79.631 32.4082 79.674 33.1456 79.674 34.0203C79.7079 34.9463 79.7509 35.6237 79.8021 36.0523Z" fill="#222222"/>
<path d="M95.5836 21.3131C95.8576 23.3366 95.9944 26.2776 95.9944 30.136L95.9688 33.9943C95.9518 34.8177 95.9431 36.0093 95.9431 37.57L95.9688 39.8337C93.5377 39.782 91.5005 39.5507 89.8571 39.139C90.0794 35.4177 90.4562 30.419 90.9869 24.1426L91.1666 21.8533C92.1253 21.6647 93.5976 21.4846 95.5836 21.3131Z" fill="#222222"/>
<path d="M99.4651 21.0302C100.236 21.013 101.1 21.073 102.059 21.2102C103.018 21.3474 103.574 21.4932 103.728 21.6475C103.916 21.819 104.079 25.1201 104.216 31.5508C104.285 33.523 104.319 34.5177 104.319 34.5347C104.353 34.569 104.43 34.586 104.55 34.586C105.046 34.586 106.151 34.4317 107.863 34.123C109.129 33.9173 109.84 33.8143 109.994 33.8143C110.131 34.363 110.199 35.229 110.199 36.4123C110.199 37.8187 110.105 38.7703 109.917 39.2677C105.021 39.5933 101.562 39.7563 99.5423 39.7563C98.8745 39.7563 98.4208 39.7307 98.1812 39.6793C98.9857 27.7781 99.4138 21.5618 99.4651 21.0302Z" fill="#222222"/>
<path d="M124.044 35.2807C124.112 35.572 124.146 36.0437 124.146 36.6953L124.121 38.0587C124.087 38.779 124.078 39.2507 124.095 39.4733C122.982 39.5763 121.553 39.6277 119.806 39.6277C116.434 39.6277 113.78 39.3963 111.846 38.9333C112.068 35.555 112.436 30.8992 112.95 24.9658L113.181 22.1877C114.328 21.9819 115.972 21.8019 118.112 21.6475C120.269 21.476 122.169 21.3989 123.813 21.416C123.813 22.1363 123.778 22.8479 123.71 23.551C123.658 24.2541 123.59 24.7857 123.504 25.1458C121.262 25.163 119.319 25.3602 117.675 25.7374L117.752 28.9528L120.14 28.9271C121.647 28.9271 122.503 28.9185 122.708 28.9014C122.794 29.2786 122.837 29.7845 122.837 30.419C122.837 30.882 122.82 31.405 122.785 31.9881C121.587 32.0738 120.577 32.1167 119.755 32.1167C119.43 32.1167 118.788 32.0996 117.829 32.0653C117.829 33.7457 117.881 34.9547 117.983 35.6923C118.668 35.7263 119.165 35.7437 119.473 35.7437C120.842 35.7437 122.366 35.5893 124.044 35.2807Z" fill="#222222"/>
<path d="M143.718 39.988C142.468 40.0393 141.219 39.902 139.969 39.5763C138.736 39.2503 137.632 38.8217 136.656 38.2903C135.68 37.7413 134.944 37.184 134.447 36.6183C133.592 35.6407 132.992 34.7403 132.65 33.9173C132.325 33.0942 132.162 32.1253 132.162 31.0106C132.162 29.2615 132.479 27.7953 133.112 26.612C133.746 25.4288 134.602 24.3999 135.68 23.5253C136.827 22.565 137.923 21.9047 138.967 21.5446C140.028 21.1845 141.27 21.0044 142.691 21.0044C142.982 21.0044 143.453 21.0216 144.103 21.0559C144.086 21.2445 144.078 21.5103 144.078 21.8533C144.078 22.2992 144.112 22.968 144.18 23.8597C144.214 24.1684 144.249 24.6314 144.283 25.2487C143.324 25.2659 142.357 25.4716 141.381 25.8661C140.422 26.2433 139.618 26.7921 138.967 27.5123C138.334 28.2326 138.017 29.0728 138.017 30.0332C138.017 30.9935 138.257 31.8938 138.736 32.7341C139.164 33.403 139.695 33.9087 140.328 34.2517C140.979 34.5777 141.612 34.792 142.228 34.8947C142.845 34.9977 143.761 35.109 144.976 35.229L143.718 39.988Z" fill="#222222"/>
<path d="M145.139 39.036C145.242 38.573 145.644 37.347 146.346 35.3577C147.065 33.3513 147.819 31.3965 148.606 29.493C149.274 27.8639 149.984 26.3205 150.738 24.8629C151.491 23.4052 152.056 22.4192 152.432 21.9047C152.467 21.8704 152.509 21.8104 152.561 21.7247C152.629 21.6389 152.689 21.5875 152.74 21.5703C152.809 21.5361 152.895 21.5189 152.997 21.5189C153.768 21.4675 154.898 21.4417 156.387 21.4417C157.192 21.4417 157.688 21.4589 157.876 21.4932C158.048 21.5103 158.159 21.5532 158.21 21.6218C158.279 21.6904 158.356 21.819 158.441 22.0076C158.681 22.5221 158.904 23.0451 159.109 23.5767C159.195 23.7654 159.272 23.9626 159.34 24.1684C159.426 24.3741 159.52 24.5885 159.623 24.8114C160.804 27.4352 161.78 29.9131 162.55 32.2453C163.338 34.5777 163.877 36.841 164.168 39.036L164.194 39.242C164.194 39.3447 164.151 39.405 164.065 39.422C163.757 39.439 163.201 39.465 162.396 39.499C161.609 39.5163 160.753 39.525 159.828 39.525C158.715 39.525 158.133 39.4907 158.082 39.422C157.893 39.1647 157.697 38.4103 157.491 37.1583C157.303 35.9067 157.2 35.2293 157.183 35.1263L157.157 34.8947C156.781 34.8947 156.062 34.8603 155 34.792C153.768 34.706 152.929 34.672 152.484 34.689L151.713 36.721C151.251 37.8873 150.952 38.736 150.814 39.2677C150.797 39.3877 150.738 39.4477 150.635 39.4477C150.635 39.4307 149.907 39.379 148.452 39.2933C146.997 39.1903 145.909 39.122 145.19 39.0877C145.156 39.0877 145.139 39.0703 145.139 39.036ZM156.875 31.4736C156.858 31.3879 156.849 31.285 156.849 31.165C156.781 30.7362 156.558 29.956 156.181 28.8242C155.822 27.6752 155.54 27.0922 155.334 27.075C155.129 27.0579 154.863 27.4352 154.538 28.2068C154.213 28.9785 153.939 29.7502 153.716 30.5219C153.562 31.1907 154.273 31.5251 155.848 31.5251C156.293 31.5251 156.635 31.5079 156.875 31.4736Z" fill="#222222"/>
<path d="M173.993 31.2679C174.386 31.628 175.517 32.6655 177.383 34.3803C179.077 35.9067 180.301 37.0297 181.055 37.75C180.764 38.196 180.088 38.616 179.026 39.0103C177.965 39.405 176.963 39.662 176.022 39.782C175.491 39.182 174.515 37.973 173.094 36.1553C172.563 35.4693 172.084 34.869 171.656 34.3547C171.245 33.84 171.04 33.6257 171.04 33.7117C171.194 34.2773 171.314 34.8947 171.399 35.5637C171.485 36.2153 171.562 36.987 171.63 37.8787L171.784 39.499C170.672 39.585 169.559 39.6277 168.446 39.6277C167.196 39.6277 166.195 39.5507 165.441 39.3963L165.775 21.4417L172.786 21.2874C174.378 21.2531 175.636 21.6818 176.561 22.5735C177.485 23.4653 178.008 24.6914 178.127 26.2519C178.144 26.3376 178.153 26.4663 178.153 26.6377C178.153 27.3751 177.965 28.0868 177.588 28.7727C177.229 29.4415 176.732 30.0074 176.098 30.4704C175.465 30.9163 174.763 31.1821 173.993 31.2679ZM170.115 28.4898C172.135 28.2497 173.171 27.6066 173.222 26.5606C173.325 25.0858 172.315 24.417 170.192 24.5542L170.115 28.4898Z" fill="#222222"/>
<path d="M194.476 24.3484C195.932 25.9089 196.659 27.7781 196.659 29.956C196.659 33.403 195.683 35.8467 193.732 37.287C191.643 38.8647 187.988 39.6533 182.766 39.6533H181.816C181.816 36.7897 181.996 33.2314 182.356 28.9785C182.63 25.4459 182.861 22.968 183.049 21.5446C184.59 21.4589 185.771 21.416 186.593 21.416C187.723 21.416 188.57 21.4675 189.135 21.5703C191.292 21.9133 193.073 22.8393 194.476 24.3484ZM187.029 33.943C188.878 33.9603 190.214 33.6343 191.035 32.9656C191.857 32.2968 192.268 31.2164 192.268 29.7245C192.268 28.404 191.814 27.4094 190.907 26.7406C190.017 26.0547 188.887 25.7117 187.517 25.7117C187.397 25.7117 187.252 25.7289 187.08 25.7632L187.029 33.943Z" fill="#222222"/>
<path d="M211.299 35.229C211.299 35.332 211.282 35.4693 211.248 35.6407C210.375 38.5047 207.841 39.9363 203.647 39.9363C202.054 39.9363 200.719 39.782 199.64 39.4733C198.699 39.1647 198.091 38.1017 197.817 36.2837C197.697 35.4777 197.637 34.8003 197.637 34.2517L197.663 33.583C197.697 33.5487 197.775 33.54 197.894 33.5573C198.647 33.9687 199.692 34.509 201.027 35.1777C201.883 35.572 202.697 35.7693 203.467 35.7693C204.289 35.7693 205.016 35.5207 205.65 35.0233C205.633 34.389 205.179 33.6943 204.289 32.9398C203.724 32.4254 202.825 31.7737 201.592 30.9849C201.044 30.6419 200.539 30.299 200.077 29.956C200.077 29.956 199.718 29.7159 198.999 29.2357C198.245 28.6355 197.868 28.1382 197.868 27.7438C197.903 26.6635 198.322 25.7289 199.127 24.94C200.668 23.4996 202.217 22.4363 203.775 21.7504C205.402 21.1159 207.327 20.6958 209.553 20.49C210.443 22.1363 210.983 23.671 211.171 25.0944C210.674 24.9572 210.109 24.8886 209.476 24.8886C208.346 24.8886 207.242 25.0772 206.163 25.4545C205.085 25.8146 204.366 26.3119 204.006 26.9464C203.938 27.0493 203.903 27.1351 203.903 27.2036C203.903 27.358 203.997 27.5037 204.186 27.6409C204.34 27.7438 204.537 27.8381 204.776 27.9239C206.882 28.8842 208.56 30.1789 209.81 31.808C210.803 33.077 211.299 34.2173 211.299 35.229Z" fill="#222222"/>
<path d="M22.6082 38.5813C22.5397 38.973 22.1992 39.2577 21.8018 39.257L16.4046 39.9503C14.559 40.2547 12.7728 39.1337 12.2414 37.3377C12.0838 36.809 11.7226 36.3647 11.2376 36.102C10.7526 35.8393 10.1832 35.78 9.65561 35.9377L7.15961 36.6767C6.7254 36.8047 6.26869 36.557 6.13903 36.1223C6.00967 35.688 6.2562 35.2317 6.69041 35.1037L9.18628 34.3653C11.1508 33.7857 13.2186 34.907 13.8083 36.8723C14.1101 37.8913 15.1339 38.5183 16.1771 38.3227C16.227 38.3137 16.2778 38.3093 16.3287 38.309L21.7964 37.6167C22.2491 37.6173 22.6165 37.985 22.6166 38.4377C22.618 38.486 22.6153 38.534 22.6082 38.5813Z" fill="#FF9811"/>
<path d="M4.6029 39.0623C6.92271 38.8093 8.63109 37.065 8.41865 35.166C8.20623 33.2672 6.15343 31.9329 3.83362 32.1859C1.51378 32.4389 -0.194588 34.1833 0.0178493 36.0823C0.230287 37.981 2.28309 39.3153 4.6029 39.0623Z" fill="#7ED63E"/>
<path d="M25.3351 32.6427C25.0798 32.9471 24.6423 33.0228 24.2979 32.8234L19.2693 30.724C17.5162 30.0641 16.5272 28.2018 16.964 26.3833C17.0916 25.8475 17.0005 25.2824 16.711 24.8129C16.4216 24.3433 15.9574 24.0073 15.4208 23.8799L12.8862 23.2705C12.4455 23.1641 12.1732 22.7215 12.2781 22.2808C12.383 21.8407 12.825 21.5693 13.2656 21.6758L15.7998 22.2857C17.7938 22.7669 19.0269 24.7704 18.556 26.7644C18.3083 27.7965 18.8829 28.8505 19.8857 29.2029C19.9336 29.2201 19.9798 29.2417 20.0241 29.2669L25.1132 31.4026C25.5055 31.6297 25.6404 32.1313 25.4142 32.5227C25.3913 32.5651 25.365 32.6051 25.3351 32.6427Z" fill="#FF9811"/>
<path d="M6.44972 22.2536C7.94635 23.5103 12.165 24.6155 13.6445 22.8513L6.41863 16.7842C4.93937 18.5482 4.95332 20.9972 6.44972 22.2536Z" fill="#ED539D"/>
<path d="M6.41858 16.7842L13.6444 22.8513C15.1239 21.087 13.3037 17.1215 11.807 15.8649C10.3106 14.6084 7.89803 15.0199 6.41858 16.7842Z" fill="#ED539D"/>
<path d="M28.8713 28.127C28.7737 28.1628 28.6699 28.1796 28.5656 28.1761C28.113 28.1617 27.7569 27.7824 27.7705 27.3299L27.8479 24.6776C27.8694 23.9764 27.4422 23.3382 26.7853 23.0898L24.8818 22.3712C23.8239 21.9725 23.0246 21.0848 22.7389 19.9912C22.4532 18.8976 22.7166 17.7348 23.4455 16.8737C23.7737 16.4865 23.9257 15.9796 23.8656 15.4746C23.8054 14.9692 23.5385 14.5111 23.1283 14.2098L21.6543 13.1249C20.8711 12.5494 20.2755 11.7544 19.9433 10.841L19.5249 9.69534C19.3695 9.2697 19.5881 8.79954 20.0133 8.64527C20.4385 8.49104 20.9092 8.7111 21.0646 9.13677L21.483 10.2824C21.7046 10.8916 22.102 11.4213 22.6248 11.8049L24.0987 12.8894C24.8753 13.461 25.3806 14.3283 25.4945 15.2848C25.6082 16.2408 25.3206 17.2006 24.6992 17.9345C24.3147 18.3889 24.1758 19.0028 24.3266 19.5802C24.4778 20.1574 24.8997 20.6262 25.4583 20.8361L27.3617 21.5555C28.676 22.0514 29.5314 23.3283 29.4889 24.731L29.4111 27.3822C29.401 27.7183 29.1873 28.0132 28.8713 28.127Z" fill="#FF9811"/>
<path d="M15.9575 2.60124C15.3668 2.32413 14.6904 2.29288 14.078 2.51503C13.4653 2.73731 12.9673 3.19458 12.6935 3.78533C12.4156 4.37673 12.3859 5.0554 12.6105 5.67037C12.835 6.28533 13.2955 6.78617 13.8897 7.06117L20.5761 10.187L18.1865 3.64327L15.9575 2.60124Z" fill="#FFCD00"/>
<path d="M22.486 0.232919C21.8952 -0.0441957 21.2189 -0.0754414 20.6065 0.146706C19.9941 0.368853 19.4958 0.826257 19.2219 1.41702L18.1865 3.64327L20.5761 10.187L23.6822 3.50873C23.9601 2.91736 23.9902 2.23856 23.7656 1.62359C23.5411 1.00862 23.0802 0.507917 22.486 0.232919Z" fill="#FFCD00"/>
<path d="M54.4753 3.93099C53.9443 3.84963 53.427 3.76793 52.9164 3.67263L53.6654 13.3089L53.6803 13.2873L56.0914 4.13519C55.5475 4.07043 55.0015 4.00869 54.4753 3.93099Z" fill="#FFA127"/>
<path d="M59.6831 4.45463C59.5333 4.448 59.3905 4.43436 59.2404 4.4274C58.1595 4.35966 57.116 4.25606 56.0914 4.1352L53.6803 13.2873L59.7034 4.5091L59.6831 4.45463Z" fill="#FFA127"/>
<path d="M49.264 2.85182L46.8729 11.9272L52.5762 3.61157C51.4121 3.3924 50.3073 3.13672 49.264 2.85182Z" fill="#FFCD00"/>
<path d="M46.5381 1.98615C46.3813 1.92506 46.2248 1.8706 46.0684 1.80253L46.8579 11.9488L46.8729 11.9272L49.264 2.85182C48.2987 2.58883 47.3849 2.29961 46.5381 1.98615Z" fill="#FFCD00"/>
<path d="M74.0679 3.60457L79.7778 11.9272L77.3867 2.84982C76.3401 3.13273 75.2386 3.3884 74.0679 3.60457Z" fill="#FF4361"/>
<path d="M80.5827 1.80949C80.2831 1.93168 79.9765 2.04724 79.6636 2.15615C78.9469 2.40586 78.1816 2.63232 77.3867 2.84981L79.7778 11.9272L79.7928 11.9488L80.5827 1.80949Z" fill="#FF4361"/>
<path d="M67.4092 4.42739C67.2598 4.43439 67.117 4.44799 66.9668 4.45463L66.9465 4.50909L72.9697 13.2873L70.5586 4.13386C69.5347 4.25539 68.4911 4.35966 67.4092 4.42739Z" fill="#3893FF"/>
<path d="M73.7336 3.666C73.3864 3.73377 73.0326 3.7952 72.6717 3.84964C71.9853 3.95824 71.2743 4.0482 70.5613 4.13387L72.9723 13.2873L72.9873 13.3089L73.7336 3.666Z" fill="#3893FF"/>
<path d="M66.9466 4.50913L66.9123 4.45466C65.7415 4.52273 64.5505 4.55659 63.3248 4.55659V14.7384L63.3318 14.7573L66.9466 4.50913Z" fill="#7ED63E"/>
<path d="M59.7371 4.45466L59.7035 4.50913L63.3249 14.7384V4.55659C62.0996 4.55659 60.9082 4.52273 59.7371 4.45466Z" fill="#7ED63E"/>
<path d="M63.3248 5.2366C62.0925 5.2366 60.8738 5.20207 59.6974 5.13333L59.2067 5.10677C57.5789 5.00617 55.9561 4.83483 54.3733 4.60373C53.829 4.52003 53.3067 4.4377 52.7891 4.34173L52.4599 4.2846C50.3638 3.90377 48.3036 3.3479 46.3003 2.62335L46.1388 2.56159C46.0243 2.51942 45.9108 2.47592 45.7983 2.42544C44.9368 2.10335 44.0989 1.72182 43.29 1.28351C42.9728 1.09756 42.861 0.69345 43.0374 0.371027C43.2141 0.048601 43.6149 -0.075255 43.9428 0.090772C44.7061 0.50285 45.4967 0.862467 46.3089 1.16663C46.4324 1.21909 46.525 1.25429 46.6188 1.28916L46.785 1.35225C48.7107 2.04657 50.6906 2.57885 52.7046 2.94378L53.0384 3.00355C53.5471 3.09719 54.0597 3.17888 54.581 3.25923C56.1196 3.48637 57.7038 3.65173 59.2849 3.74867L59.7154 3.77523C62.1001 3.91007 64.4905 3.91007 66.8746 3.77523H66.9695L67.3779 3.74867C69.1322 3.6381 70.8812 3.44617 72.5669 3.17888C72.9227 3.12508 73.2679 3.06531 73.6055 2.99957C73.706 2.98662 73.8055 2.96869 73.9044 2.94577C75.7832 2.60907 77.634 2.13191 79.4412 1.51761C79.7424 1.41301 80.0374 1.30144 80.326 1.18356C81.1469 0.869107 81.9464 0.501857 82.7197 0.083467C83.0496 -0.0968387 83.4631 0.0246933 83.6438 0.354423C83.8239 0.684153 83.7024 1.09756 83.3725 1.27753C82.55 1.72116 81.6998 2.11066 80.827 2.44371C80.5287 2.56557 80.2145 2.68511 79.8869 2.79801C78.0284 3.43223 76.1244 3.92533 74.1917 4.273C74.0692 4.30287 73.945 4.32547 73.8198 4.34107C73.5076 4.40317 73.1441 4.4656 72.7736 4.52137C71.0506 4.79333 69.259 4.99257 67.4515 5.10613L66.9968 5.134H66.9122C65.7754 5.20207 64.5568 5.2366 63.3248 5.2366Z" fill="#A25BCD"/>
<path d="M93.9282 3.93099C93.3973 3.84963 92.8797 3.76793 92.369 3.67263L93.118 13.3089L93.133 13.2873L95.5444 4.13519C95.0004 4.07043 94.4542 4.00869 93.9282 3.93099Z" fill="#FFA127"/>
<path d="M99.1358 4.45463C98.9863 4.448 98.8432 4.43436 98.6934 4.4274C97.6125 4.35966 96.5686 4.25606 95.5443 4.1352L93.1329 13.2873L99.1564 4.5091L99.1358 4.45463Z" fill="#FFA127"/>
<path d="M88.7167 2.85182L86.3259 11.9272L92.0292 3.61157C90.8651 3.3924 89.7603 3.13672 88.7167 2.85182Z" fill="#FFCD00"/>
<path d="M85.9907 1.98615C85.8342 1.92506 85.6774 1.8706 85.521 1.80253L86.3109 11.9488L86.3259 11.9272L88.7166 2.85182C87.7513 2.58883 86.8375 2.29961 85.9907 1.98615Z" fill="#FFCD00"/>
<path d="M113.521 3.60457L119.231 11.9272L116.839 2.84982C115.793 3.13273 114.691 3.3884 113.521 3.60457Z" fill="#FF4361"/>
<path d="M120.035 1.80949C119.736 1.93168 119.429 2.04724 119.116 2.15615C118.4 2.40586 117.635 2.63232 116.839 2.84981L119.231 11.9272L119.246 11.9488L120.035 1.80949Z" fill="#FF4361"/>
<path d="M106.862 4.42739C106.712 4.43439 106.57 4.44799 106.42 4.45463L106.4 4.50909L112.423 13.2873L110.011 4.13386C108.988 4.25539 107.944 4.35966 106.862 4.42739Z" fill="#3893FF"/>
<path d="M113.186 3.666C112.839 3.73377 112.485 3.7952 112.124 3.84964C111.438 3.95824 110.727 4.0482 110.014 4.13387L112.425 13.2873L112.44 13.3089L113.186 3.666Z" fill="#3893FF"/>
<path d="M106.4 4.50913L106.365 4.45466C105.195 4.52273 104.003 4.55659 102.777 4.55659V14.7384L102.784 14.7573L106.4 4.50913Z" fill="#7ED63E"/>
<path d="M99.1901 4.45466L99.1561 4.50913L102.778 14.7384V4.55659C101.553 4.55659 100.361 4.52273 99.1901 4.45466Z" fill="#7ED63E"/>
<path d="M102.778 5.2366C101.545 5.2366 100.327 5.20207 99.1505 5.13333L98.6598 5.10677C97.032 5.00617 95.4092 4.83483 93.8264 4.60373C93.2818 4.52003 92.7595 4.4377 92.2422 4.34173L91.9126 4.2846C89.8165 3.90377 87.7563 3.3479 85.7533 2.62335L85.5916 2.56159C85.4774 2.51942 85.3635 2.47592 85.2514 2.42544C84.3899 2.10335 83.5517 1.72182 82.7431 1.28351C82.4255 1.09756 82.314 0.69345 82.4905 0.371027C82.6669 0.048601 83.0677 -0.075255 83.3959 0.090772C84.1592 0.50285 84.9494 0.862467 85.762 1.16663C85.8852 1.21909 85.978 1.25429 86.0716 1.28916L86.238 1.35225C88.1634 2.04657 90.1437 2.57885 92.1576 2.94378L92.4915 3.00355C92.9998 3.09719 93.5125 3.17888 94.0341 3.25923C95.5723 3.48637 97.1565 3.65173 98.738 3.74867L99.1684 3.77523C101.553 3.91007 103.943 3.91007 106.328 3.77523H106.422L106.831 3.74867C108.585 3.6381 110.334 3.44617 112.02 3.17888C112.376 3.12508 112.721 3.06531 113.059 2.99957C113.159 2.98662 113.259 2.96869 113.357 2.94577C115.236 2.60907 117.087 2.13191 118.894 1.51761C119.195 1.41301 119.49 1.30144 119.779 1.18356C120.6 0.869107 121.4 0.501857 122.172 0.083467C122.503 -0.0968387 122.916 0.0246933 123.097 0.354423C123.277 0.684153 123.155 1.09756 122.825 1.27753C122.003 1.72116 121.153 2.11066 120.28 2.44371C119.982 2.56557 119.667 2.68511 119.34 2.79801C117.481 3.43223 115.577 3.92533 113.644 4.273C113.522 4.30287 113.398 4.32547 113.273 4.34107C112.96 4.40317 112.597 4.4656 112.226 4.52137C110.504 4.79333 108.712 4.99257 106.904 5.10613L106.45 5.134H106.365C105.228 5.20207 104.01 5.2366 102.778 5.2366Z" fill="#A25BCD"/>
<path d="M133.362 3.93099C132.831 3.84963 132.314 3.76793 131.803 3.67263L132.552 13.3089L132.567 13.2873L134.978 4.13519C134.434 4.07043 133.888 4.00869 133.362 3.93099Z" fill="#FFA127"/>
<path d="M138.57 4.45463C138.42 4.448 138.277 4.43436 138.127 4.4274C137.047 4.35966 136.003 4.25606 134.978 4.1352L132.567 13.2873L138.59 4.5091L138.57 4.45463Z" fill="#FFA127"/>
<path d="M128.15 2.85182L125.759 11.9272L131.463 3.61157C130.298 3.3924 129.194 3.13672 128.15 2.85182Z" fill="#FFCD00"/>
<path d="M125.424 1.98615C125.268 1.92506 125.111 1.8706 124.954 1.80253L125.744 11.9488L125.759 11.9272L128.15 2.85182C127.185 2.58883 126.271 2.29961 125.424 1.98615Z" fill="#FFCD00"/>
<path d="M152.955 3.60457L158.665 11.9272L156.273 2.84982C155.227 3.13273 154.125 3.3884 152.955 3.60457Z" fill="#FF4361"/>
<path d="M159.469 1.80949C159.17 1.93168 158.863 2.04724 158.55 2.15615C157.834 2.40586 157.068 2.63232 156.273 2.84981L158.665 11.9272L158.68 11.9488L159.469 1.80949Z" fill="#FF4361"/>
<path d="M146.297 4.42739C146.147 4.43439 146.004 4.44799 145.855 4.45463L145.834 4.50909L151.857 13.2873L149.446 4.13386C148.422 4.25539 147.378 4.35966 146.297 4.42739Z" fill="#3893FF"/>
<path d="M152.621 3.666C152.274 3.73377 151.92 3.7952 151.559 3.84964C150.873 3.95824 150.162 4.0482 149.449 4.13387L151.86 13.2873L151.875 13.3089L152.621 3.666Z" fill="#3893FF"/>
<path d="M145.834 4.50913L145.799 4.45466C144.629 4.52273 143.437 4.55659 142.212 4.55659V14.7384L142.219 14.7573L145.834 4.50913Z" fill="#7ED63E"/>
<path d="M138.624 4.45466L138.59 4.50913L142.211 14.7384V4.55659C140.986 4.55659 139.795 4.52273 138.624 4.45466Z" fill="#7ED63E"/>
<path d="M142.212 5.2366C140.979 5.2366 139.761 5.20207 138.584 5.13333L138.094 5.10677C136.466 5.00617 134.843 4.83483 133.26 4.60373C132.716 4.52003 132.193 4.4377 131.676 4.34173L131.347 4.2846C129.25 3.90377 127.19 3.3479 125.187 2.62335L125.026 2.56159C124.911 2.51942 124.798 2.47592 124.685 2.42544C123.824 2.10335 122.986 1.72182 122.177 1.28351C121.86 1.09756 121.748 0.69345 121.924 0.371027C122.101 0.048601 122.502 -0.075255 122.83 0.090772C123.593 0.50285 124.383 0.862467 125.196 1.16663C125.319 1.21909 125.412 1.25429 125.506 1.28916L125.672 1.35225C127.597 2.04657 129.578 2.57885 131.592 2.94378L131.925 3.00355C132.434 3.09719 132.946 3.17888 133.468 3.25923C135.006 3.48637 136.59 3.65173 138.172 3.74867L138.602 3.77523C140.987 3.91007 143.377 3.91007 145.762 3.77523H145.856L146.265 3.74867C148.019 3.6381 149.768 3.44617 151.454 3.17888C151.809 3.12508 152.155 3.06531 152.493 2.99957C152.593 2.98662 152.693 2.96869 152.791 2.94577C154.67 2.60907 156.521 2.13191 158.328 1.51761C158.629 1.41301 158.924 1.30144 159.213 1.18356C160.034 0.869107 160.833 0.501857 161.606 0.083467C161.937 -0.0968387 162.35 0.0246933 162.531 0.354423C162.711 0.684153 162.589 1.09756 162.259 1.27753C161.437 1.72116 160.587 2.11066 159.714 2.44371C159.416 2.56557 159.101 2.68511 158.774 2.79801C156.915 3.43223 155.011 3.92533 153.078 4.273C152.956 4.30287 152.832 4.32547 152.707 4.34107C152.394 4.40317 152.031 4.4656 151.66 4.52137C149.938 4.79333 148.146 4.99257 146.338 5.10613L145.884 5.134H145.799C144.662 5.20207 143.444 5.2366 142.212 5.2366Z" fill="#A25BCD"/>
<path d="M172.796 3.93099C172.265 3.84963 171.748 3.76793 171.237 3.67263L171.986 13.3089L172.001 13.2873L174.412 4.13519C173.868 4.07043 173.322 4.00869 172.796 3.93099Z" fill="#FFA127"/>
<path d="M178.004 4.45463C177.854 4.448 177.711 4.43436 177.561 4.4274C176.48 4.35966 175.437 4.25606 174.412 4.1352L172.001 13.2873L178.024 4.5091L178.004 4.45463Z" fill="#FFA127"/>
<path d="M167.584 2.85182L165.193 11.9272L170.896 3.61157C169.732 3.3924 168.628 3.13672 167.584 2.85182Z" fill="#FFCD00"/>
<path d="M164.858 1.98615C164.702 1.92506 164.545 1.8706 164.388 1.80253L165.178 11.9488L165.193 11.9272L167.584 2.85182C166.619 2.58883 165.705 2.29961 164.858 1.98615Z" fill="#FFCD00"/>
<path d="M192.388 3.60457L198.098 11.9272L195.707 2.84982C194.66 3.13273 193.559 3.3884 192.388 3.60457Z" fill="#FF4361"/>
<path d="M198.903 1.80949C198.603 1.93168 198.297 2.04724 197.984 2.15615C197.267 2.40586 196.502 2.63232 195.707 2.84981L198.098 11.9272L198.113 11.9488L198.903 1.80949Z" fill="#FF4361"/>
<path d="M185.73 4.42739C185.58 4.43439 185.438 4.44799 185.288 4.45463L185.268 4.50909L191.291 13.2873L188.879 4.13386C187.855 4.25539 186.812 4.35966 185.73 4.42739Z" fill="#3893FF"/>
<path d="M192.054 3.666C191.707 3.73377 191.353 3.7952 190.992 3.84964C190.306 3.95824 189.595 4.0482 188.882 4.13387L191.293 13.2873L191.308 13.3089L192.054 3.666Z" fill="#3893FF"/>
<path d="M185.267 4.50913L185.233 4.45466C184.062 4.52273 182.871 4.55659 181.645 4.55659V14.7384L181.652 14.7573L185.267 4.50913Z" fill="#7ED63E"/>
<path d="M178.057 4.45466L178.023 4.50913L181.645 14.7384V4.55659C180.42 4.55659 179.228 4.52273 178.057 4.45466Z" fill="#7ED63E"/>
<path d="M181.645 5.2366C180.413 5.2366 179.194 5.20207 178.018 5.13333L177.527 5.10677C175.899 5.00617 174.277 4.83483 172.694 4.60373C172.149 4.52003 171.627 4.4377 171.109 4.34173L170.78 4.2846C168.684 3.90377 166.624 3.3479 164.621 2.62335L164.459 2.56159C164.345 2.51942 164.231 2.47592 164.119 2.42544C163.257 2.10335 162.419 1.72182 161.61 1.28351C161.293 1.09756 161.181 0.69345 161.358 0.371027C161.534 0.048601 161.935 -0.075255 162.263 0.090772C163.026 0.50285 163.817 0.862467 164.629 1.16663C164.753 1.21909 164.845 1.25429 164.939 1.28916L165.105 1.35225C167.031 2.04657 169.011 2.57885 171.025 2.94378L171.359 3.00355C171.867 3.09719 172.38 3.17888 172.901 3.25923C174.44 3.48637 176.024 3.65173 177.605 3.74867L178.036 3.77523C180.42 3.91007 182.811 3.91007 185.195 3.77523H185.29L185.698 3.74867C187.453 3.6381 189.201 3.44617 190.887 3.17888C191.243 3.12508 191.588 3.06531 191.926 2.99957C192.026 2.98662 192.126 2.96869 192.224 2.94577C194.103 2.60907 195.954 2.13191 197.761 1.51761C198.063 1.41301 198.358 1.30144 198.646 1.18356C199.467 0.869107 200.267 0.501857 201.04 0.083467C201.37 -0.0968387 201.783 0.0246933 201.964 0.354423C202.144 0.684153 202.023 1.09756 201.693 1.27753C200.87 1.72116 200.02 2.11066 199.147 2.44371C198.849 2.56557 198.535 2.68511 198.207 2.79801C196.349 3.43223 194.445 3.92533 192.512 4.273C192.389 4.30287 192.265 4.32547 192.14 4.34107C191.828 4.40317 191.464 4.4656 191.094 4.52137C189.371 4.79333 187.579 4.99257 185.772 5.10613L185.317 5.134H185.232C184.096 5.20207 182.877 5.2366 181.645 5.2366Z" fill="#A25BCD"/>
</g>
<defs>
<clipPath id="clip0">
<rect width="245" height="40" fill="white"/>
</clipPath>
</defs>
</svg>
