<svg width="550" height="400" viewBox="0 0 550 400" fill="none" xmlns="http://www.w3.org/2000/svg">
<g clip-path="url(#clip0)">
<path d="M241.237 295.292C226.489 295.337 211.741 295.706 197.019 297.409C191.468 298.051 186.034 299.463 180.47 300.033C169.357 301.171 158.444 303.294 147.291 304.273C138.31 305.061 129.292 305.526 120.337 306.527C111.942 307.465 102.647 307.248 94.3169 305.699C88.1493 304.552 81.9537 303.906 75.8896 302.064C69.1063 300.002 61.7368 298.528 54.6692 298.582C44.5912 298.657 34.7764 298.666 25.1312 302.305C21.7457 303.583 17.6009 305.683 15.0299 308.364C9.1442 314.502 8.34762 329.816 14.2242 336.182C24.1225 346.895 45.2475 351.099 59.1216 351.298C74.3248 351.515 89.094 350.342 104.319 349.651C118.467 349.01 132.58 348.097 146.751 348.13C175.694 348.195 204.641 348.13 233.532 346.119C260.676 344.23 287.887 344.878 315.09 344.878C342.986 344.878 370.693 345.106 398.387 348.962C410.454 350.642 422.748 351.23 434.875 352.407C445.736 353.461 456.173 352.386 466.991 351.412C476.075 350.594 485.099 348.168 493.351 344.066C499.883 340.819 511.529 330.734 513.535 322.984C519.148 301.259 434.385 301.781 421.37 301.83C406.812 301.885 392.137 302.383 377.589 301.805C371.47 301.563 365.44 300.319 359.468 298.956C353.519 297.598 347.525 297.943 341.492 297.373C316.335 294.993 291.121 295.341 265.883 295.341C257.671 295.341 249.454 295.266 241.237 295.292Z" fill="#F1F2F2"/>
<path d="M114.241 261.992L119.226 260.002L124.311 261.019C124.311 261.019 125.327 266.781 124.649 266.442L119.564 264.747L118.548 266.781L114.141 265.425L114.241 261.992Z" fill="#EFBFA5"/>
<path d="M39.0574 323.005L41.3631 327.04L41.0746 329.634L37.6161 330.21L32.4277 327.04L34.1575 316.087L39.0574 314.646V323.005Z" fill="#3B455A"/>
<path d="M41.363 286.4C41.363 286.4 35.8867 296.488 43.3802 302.829C50.8743 309.17 63.8441 319.258 63.8441 319.258L39.3452 313.781L37.616 322.428C37.616 322.428 74.7967 334.822 75.6616 333.957C76.526 333.092 85.7493 325.022 85.7493 325.022L65.8619 281.5L43.9566 284.094L41.363 286.4Z" fill="#CCD2D9"/>
<path d="M99.5754 280.057C98.2673 278.657 97.0287 277.199 95.8915 275.673L89.0564 269.154L79.9042 249.154L81.3719 236.188C81.3719 236.188 82.8683 234.634 84.7291 232.767C82.9653 230.231 80.9023 228.544 76.76 228.097C59.3168 226.215 60.3058 227.276 54.3749 234.484C51.9905 237.384 47.5856 245.701 46.0628 249.096C44.2187 253.207 42.4247 257.34 40.7688 261.528C38.9209 266.202 37.2423 270.944 35.8651 275.774C35.712 276.311 35.2229 277.798 34.6999 279.597C33.712 282.996 32.6028 287.503 33.4095 288.807C33.829 289.893 34.9366 291.052 37.616 291.588C43.3802 292.741 47.9916 292.741 54.3328 289.57C60.6735 286.4 71.178 288.651 71.178 288.651V288.65C72.848 289.108 74.594 289.559 76.4527 289.973C89.9676 292.988 96.9521 284.71 99.1441 283.208C101.06 281.894 99.576 280.06 99.576 280.06L99.5754 280.057Z" fill="#FBB50F"/>
<path d="M84.3107 179.664L78.2094 174.24L76.8533 169.833H78.2094L79.2258 170.511L80.582 172.545L86.0059 169.155L87.7007 171.867V177.969L84.3107 179.664Z" fill="#EFBFA5"/>
<path d="M75.4971 223.392L91.7685 209.833L82.6158 179.325L88.7176 175.935L106.683 212.545L83.2936 242.036L75.4971 223.392Z" fill="#FBB50F"/>
<path d="M93.2063 324.734L99.0078 328.602V331.261L93.9316 332.228L85.9543 328.36L86.6796 324.734H93.2063Z" fill="#3B455A"/>
<path d="M72.3406 226.086C70.4038 226.32 68.4674 226.555 66.5311 226.79C66.1741 225.276 65.9385 223.733 65.8269 222.181C64.1235 221.978 62.1133 221.552 61.47 219.963C61.2673 219.462 61.2387 218.911 61.2128 218.371C61.105 216.141 60.9971 213.91 60.8887 211.679C60.8521 210.908 60.8181 210.113 61.0796 209.386C61.5396 208.112 62.8062 207.316 64.0593 206.799C67.2564 205.48 71.0411 205.392 74.1055 206.996C74.9208 207.422 75.6973 207.981 76.188 208.759C76.9456 209.959 76.9175 211.476 76.8647 212.894C76.8156 214.203 76.7671 215.512 76.718 216.821C76.6614 218.327 76.4829 220.064 75.2314 220.903C74.5671 221.348 73.6898 221.457 73.1241 222.023C72.1271 223.021 72.669 224.714 72.3406 226.086Z" fill="#EFBFA5"/>
<path d="M65.328 289.832L100.737 273.43L108.807 283.806L94.9726 326.175L85.7493 325.022L88.3434 299.658C88.3434 299.658 80.5614 306.287 66.7267 305.711C60.3855 299.37 60.3855 299.658 60.3855 299.658L65.328 289.832Z" fill="#CCD2D9"/>
<path d="M113.987 260.759L92.5425 255.458L81.2345 236.262L73.2681 232.777L79.5764 263.975L115.338 267.339L113.987 260.759Z" fill="#FBB50F"/>
<path d="M60.0891 219.911L55.8923 232.714L87.3935 237.01L87.1293 228.908L60.0891 219.911Z" fill="#B84DC4"/>
<path d="M75.9496 221.585L69.2488 223.204L58.3975 230.419L53.4993 276.687L72.339 275.525L71.163 235.823L81.4847 230.653L84.3981 227.726L75.9496 221.585Z" fill="#B84DC4"/>
<path d="M72.2027 206.274L60.892 209.444L61.2506 219.243L53.3483 216.144L51.1936 199.264L74.7181 188.081L84.6629 200.342L75.9502 208.291L72.2027 206.274Z" fill="#3B455A"/>
<path d="M73.6305 79.1181C74.1362 80.5886 73.6779 82.1825 73.1252 83.5915C69.4483 92.968 58.4175 104.797 48.2014 101.682C49.1693 101.239 51.8142 100.604 53.7786 99.6381C58.4417 97.3454 60.4056 91.5061 61.9235 86.3221C62.8542 83.1439 61.25 75.136 64.1488 73.2617C66.915 71.4725 72.6227 76.1859 73.6305 79.1181Z" fill="#BE473A"/>
<path d="M46.8869 90.6062C47.9131 85.3963 49.4186 81.8472 51.5409 77.7599C53.6627 73.6731 57.0587 70.1278 61.3935 68.9927C61.909 68.8579 62.4509 68.7576 62.9778 68.8811C63.5801 69.0224 64.0945 69.437 64.5852 69.8404C67.2985 72.0684 72.103 74.7489 73.4138 78.4986C65.7164 79.7377 58.4796 84.3502 53.5091 90.5032C49.7982 95.0968 48.6572 102.064 48.1692 102.181C43.5233 103.302 46.4043 93.0581 46.8869 90.6062Z" fill="#F0442D"/>
<path d="M14.1549 101.042C14.6758 102.507 16.027 103.468 17.3373 104.226C26.0554 109.269 42.0542 111.648 48.1037 102.846C47.07 103.102 44.6057 104.254 42.4683 104.722C37.3921 105.835 32.2177 102.491 27.8004 99.382C25.0924 97.4764 21.3573 90.2131 17.9221 90.5528C14.6438 90.8774 13.1163 98.1197 14.1549 101.042Z" fill="#BE473A"/>
<path d="M42.2311 93.3643C38.1821 89.9284 34.7931 88.0902 30.5872 86.2159C26.3807 84.3416 21.5153 83.6848 17.4175 85.4971C16.9307 85.7128 16.4442 85.9722 16.1088 86.3971C15.7257 86.8829 15.582 87.5278 15.4493 88.149C14.7155 91.5822 12.6275 96.6724 13.9382 100.422C20.7316 96.5953 29.2656 95.6937 36.9872 97.4095C42.752 98.6902 47.9851 103.428 48.4402 103.216C52.7718 101.199 44.1362 94.9809 42.2311 93.3643Z" fill="#F0442D"/>
<path d="M117.598 160.073L31.3335 190.232L5.89697 117.474L92.1618 87.3154L117.598 160.073Z" fill="#7FC5A3"/>
<path d="M104.482 103.627L6.42323 137.909L0 119.536L98.0593 85.2534L104.482 103.627Z" fill="#7FC5A3"/>
<path d="M100.876 112.241L100.792 111.998L100.876 112.241Z" fill="#E5E5E5"/>
<path d="M15.9957 134.563L66.0426 117.066L98.585 105.689L100.792 111.998L100.876 112.241L15.9944 134.563" fill="#72B192"/>
<path d="M15.9944 134.563L66.0426 117.066L15.9957 134.563H15.9944Z" fill="#72B192"/>
<path d="M79.0635 173.545L68.3875 177.278L42.6323 103.609C42.3713 102.863 42.7428 102.053 43.4627 101.801L51.5326 98.9803C52.2525 98.7285 53.0473 99.1302 53.3083 99.877L79.0635 173.545Z" fill="#F0442D"/>
<path d="M212.182 102.382C210.043 99.6527 207.355 92.9259 212.497 87.0004C213.947 85.3289 215.216 84.0671 216.237 83.0528C219.228 80.0779 220.033 79.2783 219.151 74.8157C218.584 71.9498 218.985 69.877 220.341 68.6557C222.164 67.0154 224.767 67.7574 225.057 67.8474L224.19 70.6486C223.867 70.5543 222.802 70.3785 222.298 70.8395C221.79 71.3043 221.691 72.5462 222.027 74.2474C223.214 80.2505 221.47 81.9846 218.304 85.132C217.267 86.1636 216.091 87.3326 214.711 88.9222C209.887 94.4821 214.302 100.33 214.492 100.577L212.182 102.382Z" fill="#EBB044"/>
<path d="M244.101 99.5039L241.173 99.347C241.182 99.1776 241.425 95.1815 244.044 92.8866C245.389 91.7089 247.069 91.1896 249.044 91.3444C250.545 91.4619 251.644 91.2258 252.14 90.6795C252.659 90.1069 252.507 89.2096 252.505 89.2005L255.381 88.6267C255.429 88.8602 255.809 90.9529 254.351 92.6056C253.204 93.9062 251.343 94.4654 248.814 94.2675C247.644 94.1764 246.715 94.4454 245.976 95.092C244.304 96.5581 244.103 99.4748 244.101 99.5039Z" fill="#EBB044"/>
<path d="M199.965 74.111L201.502 71.6144C201.646 71.7028 205.04 73.8262 205.804 77.2239C206.196 78.9677 205.849 80.6921 204.769 82.3524C203.949 83.6152 203.631 84.6937 203.873 85.3898C204.128 86.1199 204.989 86.4154 204.998 86.4181L204.127 89.2177C203.899 89.1487 201.88 88.4817 201.124 86.4116C200.531 84.7821 200.929 82.8808 202.311 80.7541C202.951 79.7695 203.159 78.8243 202.943 77.8677C202.455 75.6974 199.989 74.126 199.965 74.111Z" fill="#D34E4E"/>
<path d="M200.175 57.6491L199.742 54.7492C199.909 54.7244 203.873 54.161 206.646 56.2666C208.07 57.3472 208.915 58.8894 209.16 60.8548C209.346 62.349 209.798 63.3789 210.433 63.7547C211.098 64.1484 211.947 63.8194 211.955 63.8162L213.094 66.5182C212.875 66.6121 210.901 67.4036 208.989 66.3074C207.485 65.4446 206.564 63.7337 206.251 61.2166C206.106 60.0514 205.655 59.1951 204.874 58.602C203.102 57.2572 200.204 57.6454 200.175 57.6491Z" fill="#EBB044"/>
<path d="M172.777 99.7929L175.307 101.276C175.221 101.422 173.171 104.861 169.791 105.698C168.056 106.128 166.325 105.818 164.641 104.775C163.361 103.981 162.276 103.687 161.585 103.944C160.861 104.215 160.584 105.082 160.582 105.091L157.764 104.281C157.828 104.052 158.451 102.018 160.505 101.218C162.121 100.589 164.03 100.946 166.186 102.282C167.184 102.901 168.134 103.088 169.086 102.852C171.245 102.317 172.763 99.8182 172.777 99.7929Z" fill="#EBB044"/>
<path d="M222.614 100.167L219.791 99.3712L221.905 91.8723L224.727 92.6682L222.614 100.167Z" fill="#D34E4E"/>
<path d="M234.742 92.831L233.048 90.4369L239.408 85.9371L241.102 88.3307L234.742 92.831Z" fill="#EBB044"/>
<path d="M223.888 150.354L222.194 147.96L228.554 143.46L230.248 145.854L223.888 150.354Z" fill="#EBB044"/>
<path d="M290.417 113.914L286.902 106.931L289.598 105.63L293.113 112.614L290.417 113.914Z" fill="#D34E4E"/>
<path d="M147.348 93.8388L141.141 89.1309L142.912 86.7944L149.12 91.5024L147.348 93.8388Z" fill="#D34E4E"/>
<path d="M191.241 89.058L186.492 82.8813L188.817 81.0938L193.566 87.2711L191.241 89.058Z" fill="#B84DC4"/>
<path d="M245.841 117.598L244.431 115.027L251.263 111.28L252.672 113.851L245.841 117.598Z" fill="#D34E4E"/>
<path d="M243.634 76.2937L240.704 76.1767C240.714 75.9152 241.047 69.7492 248.672 67.8592C251.508 67.1561 251.447 66.5754 251.313 65.3028C251.199 64.2211 251.028 62.5862 252.644 61.3352L254.439 63.6539C254.168 63.8636 254.124 63.9925 254.229 64.996C254.453 67.121 254.281 69.4899 249.378 70.7053C243.866 72.0716 243.636 76.2516 243.634 76.2937Z" fill="#D34E4E"/>
<path d="M288.746 81.0388L286.132 79.7118C286.855 78.2748 287.23 76.4517 286.887 76.0333C286.786 75.9093 286.157 75.6876 284.488 76.1465C283.313 76.4695 281.624 76.7769 280.518 75.7254C279.257 74.5278 279.683 72.5995 280.175 70.3677C280.798 67.5508 281.571 64.0448 279.357 61.5633C278.172 60.2363 276.901 59.5795 275.469 59.5547C272.375 59.5019 269.549 62.418 269.52 62.4476L267.394 60.4293C267.544 60.2713 271.109 56.5588 275.5 56.6225C277.771 56.6559 279.805 57.6615 281.545 59.6108C284.758 63.2117 283.724 67.8986 283.039 70.9997C282.851 71.8532 282.602 72.9759 282.612 73.5205C282.806 73.5146 283.15 73.473 283.711 73.3188C286.282 72.6119 288.116 72.9015 289.159 74.1794C290.96 76.3854 289.131 80.2801 288.746 81.0388Z" fill="#B84DC4"/>
<path d="M167.58 87.7424C167.507 87.6157 165.828 84.5988 167.212 81.6956C168.243 79.5323 170.6 78.1308 174.218 77.5312C175.72 77.2826 176.703 76.8647 177.061 76.3228C177.483 75.6844 177.194 74.49 176.887 73.2261C176.359 71.0444 175.559 67.7476 179.097 65.8442C181.122 64.7539 184.349 64.1748 188.223 67.6031C190.332 69.4693 191.67 71.7103 191.726 71.8047L189.203 73.3C189.16 73.2277 184.841 66.0836 180.486 68.426C179.069 69.189 179.148 70.1067 179.737 72.5354C180.157 74.27 180.634 76.236 179.507 77.9405C178.663 79.2152 177.09 80.0278 174.697 80.4241C172.128 80.8501 170.458 81.721 169.866 82.9428C169.133 84.4553 170.124 86.2833 170.133 86.3016L167.58 87.7424Z" fill="#B84DC4"/>
<path d="M149.619 169.724L170.29 167.033L185.8 147.596L191.135 152.544L174.981 175.83L153.9 181.042L146.972 175.275L147.404 169.65L149.619 169.724Z" fill="#8EC3CB"/>
<path d="M118.858 328.621L118.152 331.376L122.7 335.634L126.033 333.629L124.113 330.123L119.565 325.865L118.858 328.621Z" fill="#3B455A"/>
<path d="M131.935 243.082L129.789 251.451L132.981 281.802L118.811 327.654L123.742 330.237L144.395 286.504L148.589 273.507L152.78 245.283L131.935 243.082Z" fill="#EFBFA5"/>
<path d="M170.37 250.958L167.215 331.181L162.208 331.678L156.27 281.046L143.623 246.349L170.37 250.958Z" fill="#EFBFA5"/>
<path d="M162.176 331.05L162.458 333.892L168.154 336.197L170.578 333.085L167.589 330.512L162.176 331.05Z" fill="#3B455A"/>
<path d="M128.166 234.048C132.463 205.811 130.928 185.248 131.151 179.602C131.374 173.955 135.336 171.025 135.339 171.024C137.078 170.636 138.591 169.517 140.347 169.075C152.228 166.086 158.708 175.157 163.155 184.941C168.634 196.996 173.238 209.453 176.96 222.16C180.226 233.313 183.499 244.566 184.869 256.14C185.435 260.916 185.906 265.445 180.677 267.552C172.345 270.909 162.982 270.836 154.182 271.913C144.073 273.149 133.951 274.053 123.775 274.476C118.462 274.697 123.869 262.285 128.166 234.048Z" fill="#8EC3CB"/>
<path d="M137.917 170.117C137.917 170.117 138.291 179.012 143.628 179.293C148.965 179.574 152.055 177.046 151.774 173.956C151.493 170.866 149.966 169.445 149.966 169.445C149.966 169.445 143.441 166.559 137.917 170.117Z" fill="white"/>
<path d="M210.305 99.6036L183.513 90.6094L188 166.048L237.097 108.598L210.305 99.6036Z" fill="#7FC5A3"/>
<path d="M183.192 168.206L167.844 187.191L138.914 173.777L131.647 175.363L131.335 179.002L132.463 188.438L169.117 201.634L177.914 197.235L189.643 170.845L183.192 168.206Z" fill="#8EC3CB"/>
<path d="M156.831 161.316C153.985 159.988 152.934 157.312 152.55 155.714C152.485 155.262 152.413 154.835 152.335 154.431V154.424L152.334 154.428C151.237 148.803 148.877 147.682 148.877 147.682L148.875 147.683C148.044 147.004 147.07 146.501 146.027 146.249C144.425 147.69 143.424 149.782 143.309 151.936L143.074 151.939C144.056 151.962 145.023 152.187 145.923 152.573C146.611 157.431 147.657 165.162 147.695 167.42C147.752 170.79 148.548 170.852 150.814 171.59C152.223 172.05 153.68 171.491 154.582 171.002H154.583C157.671 170.294 161.044 163.282 156.831 161.316Z" fill="#3B455A"/>
<path d="M150.125 154.43C146.565 146.675 136.763 150.603 135.488 157.916C134.763 162.075 136.969 169.303 141.934 169.371C142.184 170.074 142.613 171.401 143.283 171.746C144.008 172.12 145.761 171.157 146.453 170.804C146.645 170.706 146.844 170.594 146.955 170.409C147.094 170.178 147.001 169.672 146.868 169.121C147.398 168.95 147.925 168.707 148.442 168.382C150.61 167.019 151.776 164.405 151.89 161.843C152.004 159.282 151.195 156.761 150.125 154.43Z" fill="#EFBFA5"/>
<path d="M143.492 153.065C149.086 151.048 147.486 146.673 147.486 146.673C142.902 140.095 133.096 144.366 133.096 144.366C133.096 144.366 127.975 147.184 127.008 153.294C126.92 153.85 126.856 154.371 126.807 154.865C126.593 156.415 126.391 159.71 126.512 161.322C126.528 163.292 126.394 164.781 124.949 166.631C122.31 170.009 125.534 171.501 126.836 172.495C128.138 173.489 125.587 181.117 135.237 178.241C141.537 174.99 143.014 174.978 140.681 171.555C139.685 169.901 137.411 167.646 136.381 164.713C134.756 160.086 137.898 155.082 143.492 153.065Z" fill="#3B455A"/>
<path d="M183.9 168.496L186.417 163.514L192.282 162.635V169.672L188.973 170.571L183.9 168.496Z" fill="#EFBFA5"/>
<path d="M142.721 143.249C142.721 143.249 137.783 151.741 126.677 156.183L119.52 130.516L142.721 143.249Z" fill="#D34E4E"/>
<path d="M142.719 143.35L125.225 150.979L124.297 147.649L139.527 141.496L142.719 143.35Z" fill="#EBB044"/>
<path d="M136.636 139.909L123.503 144.801L122.677 141.838L133.169 138.007L136.636 139.909Z" fill="#EBB044"/>
<path d="M129.656 136.079L121.832 138.81L121.071 136.079L126.599 134.401L129.656 136.079Z" fill="#EBB044"/>
<path d="M124.069 133.013L120.476 133.945L119.52 130.516L124.069 133.013Z" fill="#EBB044"/>
<path d="M126.677 156.183C134.841 152.918 139.672 147.463 141.659 144.803C135.664 153.164 126.677 156.183 126.677 156.183Z" fill="#353E51"/>
<path d="M126.677 156.183L125.225 150.979L132.644 147.743C137.447 147.434 141.66 144.801 141.66 144.801C141.66 144.801 141.659 144.803 141.659 144.803C139.672 147.463 134.841 152.918 126.677 156.183ZM124.297 147.649L123.503 144.801L124.031 144.605C124.886 145.496 125.808 146.164 126.767 146.651L124.297 147.649Z" fill="#BD4646"/>
<path d="M125.225 150.979L124.297 147.649L126.767 146.651C128.371 147.465 130.077 147.773 131.74 147.773C132.043 147.773 132.345 147.763 132.644 147.743L125.225 150.979Z" fill="#D39E3D"/>
<path d="M123.503 144.801L123.166 143.595C123.446 143.959 123.734 144.295 124.031 144.605L123.503 144.801Z" fill="#D39E3D"/>
<path d="M115.132 133.086L118.395 131.941L116.614 134.487L118.425 135.523L119.868 132.367L120.285 135.782L122.324 135.342L121.303 132.073L123.676 133.289L124.456 131.354L121.688 130.522L123.725 129.06L122.361 127.482L120.274 129.647L120.554 126.567H118.469L118.739 129.542L116.522 127.541L115.27 129.209L117.533 130.605L114.622 131.063L115.132 133.086Z" fill="#B84DC4"/>
<path d="M184.139 103.572L202.272 96.9064L217.466 102.007L184.98 115.273L184.139 103.572Z" fill="#B84DC4"/>
<path d="M185.436 121.88L227.087 105.237L237.117 108.635L186.005 129.897L185.436 121.88Z" fill="#B84DC4"/>
<path d="M186.286 137.227L226.221 121.324L208.822 141.683L187.178 151.077L186.286 137.227Z" fill="#834D9B"/>
<path d="M151.964 123.348L144.191 123.891L143.987 120.966L151.759 120.423L151.964 123.348Z" fill="#D34E4E"/>
<path d="M185.111 117.468L220.629 103.069L217.545 102.086L184.968 115.272L185.111 117.468Z" fill="#834D9B"/>
<path d="M187.178 151.077L208.822 141.683C208.822 141.683 205.422 145.841 205.382 145.708C205.342 145.576 187.392 153.61 187.392 153.61L187.178 151.077Z" fill="#3B455A"/>
<path d="M187.817 163.304L187.492 157.796L187.508 157.773L187.837 163.301L187.817 163.304ZM186.967 148.678L186.955 148.667L185.931 131.26L186.286 137.227L186.287 137.244L186.967 148.678ZM224.038 123.879L233.597 112.694L237.117 108.635L224.038 123.879Z" fill="#E5E5E5"/>
<path d="M187.492 157.796L186.955 148.667L186.967 148.678L187.508 157.773L187.492 157.796Z" fill="#80AFB6"/>
<path d="M187.837 163.301L187.508 157.773L186.967 148.678L186.287 137.244L187.178 151.077L208.725 141.725L187.178 151.077L187.392 153.61C187.392 153.61 203.878 146.231 205.287 145.733L190.564 162.892L187.837 163.301ZM186.286 137.227L185.931 131.26L185.92 131.077C185.976 131.083 186.033 131.09 186.089 131.096L186.212 132.822L189.734 131.327C189.992 131.332 190.249 131.334 190.506 131.334C208.249 131.332 224.141 120.053 231.973 113.397L233.578 112.716L233.597 112.694L224.038 123.879L224.019 123.901L226.221 121.324L186.286 137.227Z" fill="#72B192"/>
<path d="M187.97 165.915L187.816 163.304L187.836 163.301L190.564 162.892L187.97 165.915Z" fill="#D7AC94"/>
<path d="M186.892 150.753L186.001 136.92L186 136.903L225.936 121L223.733 123.577L208.44 141.401L186.892 150.753Z" fill="#834D9B"/>
<path d="M187.392 153.61L187.178 151.077L208.725 141.725L205.287 145.733C203.878 146.231 187.392 153.61 187.392 153.61Z" fill="#704484"/>
<path d="M169.581 147.769L169.664 142.538L174.408 141.522L176.441 145.249L175.085 146.604L173.053 143.894L172.292 146.264L172.247 150.238L169.581 147.769Z" fill="#B84DC4"/>
<path d="M413.95 139.132C413.95 139.132 410.436 140.899 409.834 150.16C409.232 159.422 407.081 165.107 407.081 165.107C407.081 165.107 409.844 167.193 412.394 166.295C414.944 165.396 415.846 165.304 415.819 161.481C415.792 157.658 417.989 139.944 417.989 139.944L413.95 139.132Z" fill="#3B455A"/>
<path d="M420.645 143.803C417.04 143.975 413.661 146.526 412.505 149.95C411.036 147.803 410.683 144.931 411.587 142.49C412.492 140.048 414.63 138.101 417.143 137.431C418.999 139.022 420.189 141.367 420.378 143.807L420.645 143.803Z" fill="#3B455A"/>
<path d="M425.012 165.707L436.267 169.836L454.856 184.512L462.552 157.227L472.753 158.81L467.022 192.043L456.571 201.933L425.436 185.728L425.012 165.707Z" fill="#F0442D"/>
<path d="M439.478 333.011L439.842 335.919L434.64 339.678L431.494 337.196L433.913 333.862L439.114 330.103L439.478 333.011Z" fill="#3B455A"/>
<path d="M437.241 243.891L438.346 252.722L431.135 283.326L439.652 332.029L434.277 334.027L418.859 286.647L416.263 272.818L415.651 243.428L437.241 243.891Z" fill="#EFBFA5"/>
<path d="M395.791 254.742L409.125 336.373L414.307 336.251L413.999 283.731L422.56 246.66L395.791 254.742Z" fill="#EFBFA5"/>
<path d="M414.261 335.604L414.331 338.546L408.797 341.62L405.926 338.745L408.658 335.736L414.261 335.604Z" fill="#3B455A"/>
<path d="M436.698 233.037C431.569 203.348 432.637 181.613 432.267 175.661C431.897 169.709 427.742 166.714 427.742 166.714C425.939 166.346 424.352 165.201 422.533 164.778C410.222 161.913 403.774 171.642 399.438 182.074C394.095 194.927 389.663 208.182 386.148 221.681C383.061 233.528 379.97 245.481 378.847 257.727C378.385 262.78 378.012 267.57 383.449 269.666C392.115 273.005 401.756 272.7 410.847 273.622C421.289 274.68 431.737 275.388 442.229 275.586C447.705 275.69 441.827 262.726 436.698 233.037Z" fill="#F0442D"/>
<path d="M470.761 158.501L475.241 153.8L473.487 145.762L469.059 145.867L467.923 152.93L465.708 154.334L465.788 157.729L470.761 158.501Z" fill="#EFBFA5"/>
<path d="M416.591 164.307L404.919 166.667L381.504 190.415L353.609 190.031L352.25 198.664L384.943 203.624L411.365 185.8L416.591 164.307Z" fill="#F0442D"/>
<path d="M413.716 164.997L412.307 196.732L427.839 166.229L423.062 164.649L419.654 163.714L413.716 164.997Z" fill="#F7F7F7"/>
<path d="M353.35 192.184L348.147 189.118L341.603 190.919L341.687 194.445L352.708 196.256L353.35 192.184Z" fill="#E0CBAF"/>
<path d="M412.715 146.818C416.545 137.928 427.765 142.12 429.406 150.379C430.34 155.075 428.031 163.33 422.404 163.54C422.139 164.344 421.688 165.86 420.938 166.269C420.125 166.713 418.112 165.667 417.317 165.285C417.097 165.18 416.869 165.058 416.738 164.852C416.574 164.593 416.666 164.018 416.802 163.388C416.196 163.209 415.593 162.948 414.998 162.593C412.503 161.106 411.11 158.172 410.912 155.271C410.714 152.369 411.564 149.489 412.715 146.818Z" fill="#EFBFA5"/>
<path d="M417.371 137.457C417.371 137.457 415.128 142.241 421.247 145.076C427.366 147.913 430.419 153.88 428.121 158.946C425.824 164.011 420.195 166.864 422.399 168.825C424.603 170.785 434.144 171.45 434.144 171.45C434.144 171.45 443.926 153.963 438.187 144.165C432.45 134.367 421.605 131.65 417.371 137.457Z" fill="#3B455A"/>
<path d="M357.3 158.12C356.932 158.041 349.922 159.793 349.922 159.793L331.813 173.521H306.986L305.817 180.531L335.902 186.373L357.3 158.12Z" fill="#7FC5A3"/>
<path d="M320.245 227.045L315.414 271.843L318.304 330.48L324.802 331.105L334.038 278.144L348.061 225.644L320.245 227.045Z" fill="#C0C4C9"/>
<path d="M370.411 331.235L365.463 336.692L367.217 339.293L377.224 335.723L376.533 330.436L370.411 331.235Z" fill="#3B455A"/>
<path d="M346.503 247.107L356.78 289.798L368.515 332.156L377.167 330.606L371.007 285.879L370.83 243.673L357.773 239.545L346.503 247.107Z" fill="#C0C4C9"/>
<path d="M358.606 157.538C358.606 157.538 346.343 161.848 333.989 182.717C321.408 203.969 314.772 234.6 314.772 234.6C314.772 234.6 372.037 259.765 373.304 249.491C373.304 249.491 395.517 169.524 369.476 160.872C368.291 160.479 359.384 157.202 358.606 157.538Z" fill="#7FC5A3"/>
<path d="M361.725 158.12C354.445 167.987 347.308 179.828 339.918 189.613C335.539 195.411 333.805 202.18 331.675 208.993C329.557 215.766 327.44 222.539 325.322 229.312C324.427 232.173 323.532 235.035 322.637 237.897L346.975 246.808C347.628 238.123 348.067 229.42 348.882 220.748C349.633 212.75 349.988 203.647 353.357 196.24C354.996 192.636 356.69 189.047 358.349 185.447C361.391 178.842 363.756 171.895 366.856 165.317C367.073 164.857 367.566 160.666 367.534 160.142L361.725 158.12Z" fill="white"/>
<path d="M361.129 159.569C363.138 159.896 365.146 160.224 367.154 160.552C367.591 158.989 367.904 157.391 368.086 155.779C369.87 155.64 371.983 155.283 372.722 153.654C372.955 153.141 373.008 152.567 373.059 152.006C373.267 149.686 373.475 147.366 373.683 145.046C373.755 144.243 373.825 143.416 373.583 142.647C373.158 141.299 371.872 140.416 370.589 139.823C367.313 138.311 363.372 138.057 360.109 139.596C359.241 140.006 358.409 140.555 357.863 141.345C357.022 142.563 356.986 144.145 356.981 145.625C356.975 146.992 356.97 148.358 356.965 149.725C356.959 151.296 357.071 153.115 358.339 154.043C359.012 154.536 359.922 154.686 360.487 155.301C361.483 156.384 360.846 158.125 361.129 159.569Z" fill="#EFBFA5"/>
<path d="M354.156 142.041L357.08 150.091L357.172 143.045L354.156 142.041Z" fill="#3B455A"/>
<path d="M347.888 132.317C348.254 130.786 348.876 129.303 349.548 127.996C350.702 125.751 353.799 125.425 356.278 125.902C361.633 126.932 367.34 125.894 371.987 129.096C374.643 130.926 378.518 132.224 380.78 134.411C381.726 135.324 382.353 136.525 382.759 137.775C384.166 142.106 382.821 147.202 379.461 150.274C378.708 150.964 377.868 151.554 377.005 152.101C375.22 153.233 373.069 154.647 371.016 154.695C371.424 152.979 374.41 148.019 373.474 146.273C371.988 143.503 367.085 143.024 364.363 142.882C362.956 142.809 361.534 143.067 360.12 143.326C358.547 143.613 356.984 143.9 355.458 143.733C353.371 143.504 351.074 141.838 349.645 140.347C347.406 138.011 347.228 135.084 347.888 132.317Z" fill="#3B455A"/>
<path d="M318.24 330.347L312.242 333.891L313.005 336.555L323.281 335.532L323.836 331.012L318.24 330.347Z" fill="#3B455A"/>
<path d="M336.091 254.456L205.082 264.749C198.944 265.231 193.577 260.646 193.095 254.508L187.213 179.639L340.45 167.601L346.332 242.47C346.814 248.608 342.229 253.974 336.091 254.456Z" fill="#F7C677"/>
<path d="M204.064 264.829C204.357 264.806 204.641 264.783 204.933 264.759C204.972 264.757 205.012 264.754 205.052 264.751L204.064 264.829ZM340.605 253.558L340.747 253.026C343.178 251.636 345.015 249.365 345.858 246.681C345.978 246.721 346.096 246.76 346.215 246.801C345.517 249.808 343.423 252.322 340.605 253.558Z" fill="#E8E8E8"/>
<path d="M336.116 254.455C337.801 254.318 339.369 253.814 340.747 253.027L340.605 253.558C339.626 253.987 338.56 254.263 337.435 254.351L336.116 254.455Z" fill="#AFB3B8"/>
<path d="M346.215 246.801C346.095 246.76 345.978 246.721 345.858 246.681C345.884 246.597 345.91 246.512 345.934 246.427L346.27 246.55C346.253 246.634 346.235 246.717 346.215 246.801Z" fill="#75B495"/>
<path d="M346.27 246.55L345.935 246.427C346.146 245.694 346.283 244.931 346.339 244.148L346.458 244.139C346.495 244.965 346.43 245.773 346.27 246.55Z" fill="#E8E8E8"/>
<path d="M342.882 198.549L342.523 193.983V193.982L342.882 198.549Z" fill="#E8E8E8"/>
<path d="M204.933 264.759C235.978 262.251 260.004 256.621 278.583 249.471L346.339 244.148C346.283 244.931 346.146 245.694 345.935 246.427C345.91 246.512 345.884 246.597 345.858 246.681C345.015 249.365 343.178 251.636 340.747 253.026C339.37 253.814 337.802 254.318 336.116 254.455L205.052 264.751C205.012 264.754 204.972 264.757 204.933 264.759ZM301.733 238.313C307.411 234.905 312.287 231.368 316.478 227.815L345.005 225.574L345.734 234.856L301.732 238.313H301.733ZM336.521 203.138C338.246 199.745 339.426 196.695 340.231 194.162L342.523 193.982L342.882 198.549L343.201 202.613L336.521 203.138ZM341.934 186.483C341.934 186.483 341.934 186.483 341.934 186.483C341.934 186.483 341.934 186.483 341.934 186.483Z" fill="#E1B56E"/>
<path d="M342.523 193.982L189.286 206.021L188.556 196.738L341.794 184.7L342.523 193.982Z" fill="#EBB044"/>
<path d="M346.464 244.139L193.226 256.177L192.497 246.895L345.734 234.856L346.464 244.139Z" fill="#EBB044"/>
<path d="M191.768 237.612L345.005 225.574L343.201 202.613L189.964 214.651L191.768 237.612Z" fill="#EBB044"/>
<path d="M346.083 180.886C345.812 182.019 345.205 183.084 344.02 184.054C342.838 185.022 341.371 185.609 339.848 185.728C338.759 185.813 337.656 185.662 336.632 185.281C335.458 184.842 334.348 184.1 333.556 183.121C332.873 182.275 332.415 181.271 331.689 180.457C331.545 180.296 331.393 180.141 331.235 179.994C330.64 179.44 329.945 178.995 329.183 178.711C328.341 178.398 327.436 178.291 326.542 178.361C325.321 178.457 324.152 178.945 323.217 179.736C322.22 180.58 321.675 181.722 321.167 182.896C320.65 184.088 319.953 185.194 318.938 186.025C317.756 186.992 316.289 187.579 314.765 187.699C311.675 187.941 308.874 186.281 307.514 183.702C307.514 183.702 305.801 179.99 301.568 180.323C300.347 180.419 299.176 180.907 298.241 181.698C297.245 182.542 296.701 183.685 296.192 184.858C295.675 186.051 294.978 187.156 293.964 187.986C292.781 188.954 291.314 189.541 289.791 189.661C286.616 189.91 284 187.986 282.373 185.413C281.517 184.06 280.308 182.931 278.74 182.487C278.038 182.288 277.302 182.229 276.576 182.286C275.354 182.382 274.184 182.87 273.249 183.661C272.253 184.505 271.709 185.648 271.2 186.821C270.683 188.014 269.986 189.119 268.971 189.95C267.789 190.918 266.321 191.504 264.799 191.624C261.708 191.867 258.907 190.206 257.548 187.627C257.548 187.627 255.835 183.916 251.601 184.249C250.379 184.345 249.209 184.832 248.275 185.624C247.278 186.467 246.734 187.61 246.225 188.783C245.708 189.976 245.011 191.081 243.996 191.912C242.814 192.879 241.346 193.467 239.824 193.586C238.735 193.671 237.632 193.52 236.609 193.138C235.434 192.7 234.324 191.958 233.533 190.978C232.849 190.133 232.39 189.128 231.665 188.315C231.521 188.154 231.369 187.999 231.211 187.852C230.616 187.298 229.921 186.853 229.159 186.569C228.318 186.256 227.412 186.149 226.519 186.219C225.297 186.315 224.127 186.802 223.192 187.594C222.196 188.437 221.652 189.58 221.143 190.754C220.626 191.947 219.93 193.052 218.914 193.882C217.732 194.85 216.265 195.437 214.742 195.557C211.651 195.799 208.85 194.139 207.491 191.56C207.491 191.56 205.778 187.848 201.544 188.181C200.323 188.277 199.152 188.765 198.218 189.556C197.221 190.4 196.677 191.542 196.168 192.715C195.651 193.908 194.955 195.014 193.939 195.845C192.757 196.812 191.29 197.399 189.767 197.518C187.974 197.66 185.841 196.99 184.376 195.971C182.529 194.686 182.483 193.219 182.33 191.153C182.083 187.818 181.806 184.484 181.544 181.15C181.12 175.754 185.151 171.036 190.548 170.612L334.67 159.289C340.053 158.866 344.764 162.877 345.206 168.259C345.353 170.053 345.501 171.848 345.649 173.643C345.858 176.178 346.616 178.662 346.083 180.886Z" fill="#B84DC4"/>
<path d="M341.963 186.848L341.934 186.482L341.963 186.848ZM341.934 186.483C341.934 186.482 341.934 186.482 341.934 186.482C341.934 186.482 341.934 186.482 341.934 186.483Z" fill="#75B495"/>
<path d="M342.523 193.982L342.483 193.471L341.962 186.848L342.523 193.982Z" fill="#E8E8E8"/>
<path d="M340.23 194.163L340.231 194.162L340.23 194.163Z" fill="#E1B56E"/>
<path d="M341.963 186.848L341.934 186.483C341.934 186.482 341.934 186.482 341.934 186.482H341.934L341.963 186.848C341.963 186.848 341.962 186.849 341.963 186.848Z" fill="#6CA589"/>
<path d="M342.523 193.983V193.982V193.983ZM342.483 193.471L342.346 191.735L341.962 186.848C341.962 186.848 341.962 186.849 341.962 186.848L342.483 193.471Z" fill="#D3D3D3"/>
<path d="M340.231 194.162L342.523 193.982V193.983L340.231 194.162ZM342.346 191.735L341.933 186.483C341.933 186.483 341.933 186.483 341.933 186.483L341.962 186.848L342.346 191.735Z" fill="#CDA666"/>
<path d="M340.23 194.163C341.723 189.467 341.929 186.542 341.933 186.483L342.346 191.735L342.483 193.471L342.522 193.982L340.231 194.162H340.23" fill="#D6A140"/>
<path d="M301.732 238.312C301.733 238.312 301.732 238.313 301.732 238.313H301.731L301.732 238.312Z" fill="#E1B56E"/>
<path d="M301.732 238.313L301.732 238.313L345.734 234.856L301.732 238.313Z" fill="#CDA666"/>
<path d="M278.581 249.471C287.49 246.043 295.149 242.265 301.732 238.313V238.313L345.734 234.856L346.438 243.813C346.446 243.922 346.451 244.031 346.455 244.139L278.581 249.471Z" fill="#D6A140"/>
<path d="M316.478 227.815L345.005 225.574L316.478 227.815Z" fill="#CDA666"/>
<path d="M316.478 227.815C326.718 219.133 332.852 210.356 336.521 203.138L343.201 202.613L345.005 225.574L316.478 227.815Z" fill="#D6A140"/>
<path d="M255.644 165.36L253.985 144.244C253.985 144.244 253.135 138.083 259.31 137.415C265.485 136.747 263.536 135.251 265.917 135.248C268.297 135.244 269.204 142.132 269.419 144.863C269.634 147.593 267.296 148.144 266.132 147.319C266.132 147.319 265.543 146.816 265.715 149C265.886 151.185 266.93 164.473 266.93 164.473L255.644 165.36Z" fill="#D34E4E"/>
<path d="M258.303 135.702C258.303 135.702 252.699 136.143 252.198 129.765C251.682 123.195 262.052 119.075 263.473 114.88C264.893 110.686 274.256 135.81 258.303 135.702Z" fill="#EBB044"/>
<path d="M266.409 159.174L255.64 165.36L266.826 164.481L266.409 159.174Z" fill="#B84DC4"/>
<path d="M254.92 154.736L265.694 148.607L266.106 153.858L255.333 159.987L254.92 154.736Z" fill="#B84DC4"/>
<path d="M264.997 139.732C264.911 139.189 264.63 138.859 264.314 138.66L254.114 144.463L254.525 149.714L264.937 143.79C264.887 142.414 265.053 141.016 265.029 140.146L264.997 139.732Z" fill="#B84DC4"/>
<path d="M267.329 146.907C266.686 146.907 266.112 146.622 266.112 146.622C268.623 146.425 268.672 144.124 268.672 144.124C268.936 144.562 269.328 146 268.185 146.689C267.915 146.851 267.615 146.907 267.329 146.907Z" fill="#B84747"/>
<path d="M258.103 135.307C258.103 135.307 255.694 133.888 257.077 131.023C258.371 128.342 262.81 125.06 262.81 125.06C262.81 125.06 263.797 137.616 258.103 135.307Z" fill="white"/>
<path d="M255.64 165.36C255.641 165.359 255.642 165.359 255.643 165.358L255.64 165.36Z" fill="#DDDDDD"/>
<path d="M255.644 165.358C259.682 163.041 262.174 158.849 263.654 155.253L265.994 153.921L266.406 159.175L255.644 165.358Z" fill="#B84747"/>
<path d="M255.64 165.36L255.644 165.358L266.407 159.175L266.823 164.482C266.823 164.482 266.823 164.482 255.64 165.36Z" fill="#834D9B"/>
<path d="M263.654 155.253C265.067 151.816 265.556 148.923 265.586 148.731L265.994 153.921L263.654 155.253ZM265.586 148.731V148.73C265.587 148.724 265.588 148.721 265.588 148.721C265.588 148.721 265.587 148.725 265.586 148.731Z" fill="#834D9B"/>
<path d="M373.873 163.298C373.873 163.298 368.514 165.16 368.127 166.128C367.739 167.096 349.63 195.428 349.63 195.428L312.239 204.423L313.996 212.953L348.462 209.156L361.021 208.279L381.175 179.071L380.505 168.796L373.873 163.298Z" fill="#7FC5A3"/>
<path d="M312.527 206.089L300.268 207.111L302.487 209.731L313.703 211.784L312.527 206.089Z" fill="#EFBFA5"/>
<path d="M364.231 126.669C364.231 126.669 370.076 136.719 383.219 141.977L391.69 111.6L364.231 126.669Z" fill="#D34E4E"/>
<path d="M364.234 126.788L384.936 135.817L386.035 131.876L368.011 124.594L364.234 126.788Z" fill="#EBB044"/>
<path d="M371.433 122.717L386.976 128.506L387.953 125L375.535 120.465L371.433 122.717Z" fill="#EBB044"/>
<path d="M379.693 118.183L388.953 121.416L389.854 118.183L383.312 116.198L379.693 118.183Z" fill="#EBB044"/>
<path d="M386.305 114.555L390.558 115.658L391.69 111.6L386.305 114.555Z" fill="#EBB044"/>
<path d="M383.307 141.661C383.307 141.661 383.307 141.662 383.307 141.661L384.936 135.817L383.307 141.661Z" fill="#E5E5E5"/>
<path d="M383.219 141.977C383.219 141.977 372.592 138.405 365.498 128.521C367.856 131.675 373.571 138.117 383.219 141.977L383.307 141.661C383.307 141.662 383.307 141.661 383.307 141.661L383.219 141.977Z" fill="#353E51"/>
<path d="M383.219 141.977C373.571 138.117 367.856 131.675 365.498 128.521C365.494 128.516 365.491 128.511 365.487 128.506C365.487 128.506 370.472 131.621 376.156 131.987L384.936 135.817L383.307 141.661L383.219 141.977Z" fill="#BD4646"/>
<path d="M386.009 131.975L386.036 131.876L386.976 128.506H386.976L386.009 131.975Z" fill="#E5E5E5"/>
<path d="M386.036 131.876L383.113 130.695C384.248 130.119 385.339 129.328 386.352 128.273L386.976 128.506L386.036 131.876" fill="#BD4646"/>
<path d="M386.983 128.478L387.373 127.078C387.374 127.078 387.374 127.078 387.374 127.078L386.983 128.478Z" fill="#E5E5E5"/>
<path d="M384.937 135.817L376.157 131.987C376.511 132.011 376.869 132.023 377.228 132.023C379.196 132.023 381.214 131.659 383.113 130.695L386.036 131.876L386.009 131.975L384.937 135.817Z" fill="#D39E3D"/>
<path d="M386.976 128.506L386.352 128.273C386.703 127.907 387.043 127.51 387.374 127.078L386.984 128.478L386.976 128.506Z" fill="#D39E3D"/>
<path d="M397.486 112.248L394.04 111.705L396.718 110.053L395.236 108.079L392.613 110.446L392.933 106.927H390.464L390.796 110.572L388.327 108.01L386.711 109.876L389.123 111.607L385.848 112.592L386.77 114.882L389.579 113.442L388.371 117.312L390.783 117.831L391.276 113.79L392.985 117.525L395.128 116.299L393.02 113.286L396.883 114.641L397.486 112.248Z" fill="#B84DC4"/>
<path d="M423.051 136.066C423.051 136.066 427.911 144.422 438.839 148.793L445.882 123.536L423.051 136.066Z" fill="#D34E4E"/>
<path d="M423.053 136.165L440.268 143.672L441.181 140.395L426.194 134.341L423.053 136.165Z" fill="#EBB044"/>
<path d="M429.039 132.78L441.962 137.593L442.775 134.678L432.45 130.907L429.039 132.78Z" fill="#EBB044"/>
<path d="M435.907 129.01L443.606 131.698L444.356 129.01L438.916 127.359L435.907 129.01Z" fill="#EBB044"/>
<path d="M441.405 125.994L444.942 126.911L445.882 123.536L441.405 125.994Z" fill="#EBB044"/>
<path d="M439.362 146.921L440.268 143.672L439.362 146.921Z" fill="#E5E5E5"/>
<path d="M438.839 148.793C438.839 148.793 429.994 145.821 424.095 137.593C426.049 140.211 430.804 145.579 438.839 148.793L439.362 146.921L438.839 148.793Z" fill="#353E51"/>
<path d="M440.362 143.332L440.5 142.839L442.293 136.406C442.294 136.406 442.294 136.406 442.294 136.406L440.362 143.332Z" fill="#E5E5E5"/>
<path d="M438.839 148.793C430.804 145.579 426.049 140.211 424.095 137.593C424.132 137.616 428.262 140.185 432.967 140.488L440.267 143.672L439.362 146.921L438.839 148.793ZM440.5 142.839L441.181 140.396L438.75 139.413C439.694 138.934 440.602 138.277 441.444 137.4L441.962 137.593L442.293 136.406C442.294 136.406 442.294 136.406 442.294 136.406L440.5 142.839Z" fill="#BD4646"/>
<path d="M440.268 143.672L432.967 140.488C433.261 140.507 433.559 140.517 433.857 140.517C435.493 140.517 437.172 140.214 438.75 139.413L441.181 140.395L440.5 142.839L440.362 143.332L440.268 143.672Z" fill="#D39E3D"/>
<path d="M441.962 137.593L441.443 137.4C441.735 137.095 442.019 136.765 442.294 136.406L441.962 137.593Z" fill="#D39E3D"/>
<path d="M450.701 124.075L447.836 123.624L450.063 122.25L448.832 120.608L446.65 122.577L446.916 119.651H444.864L445.139 122.682L443.086 120.551L441.743 122.103L443.748 123.542L441.025 124.361L441.791 126.265L444.128 125.068L443.122 128.286L445.128 128.718L445.539 125.357L446.96 128.463L448.741 127.444L446.988 124.938L450.2 126.065L450.701 124.075Z" fill="#B84DC4"/>
<path d="M543.003 91.6949C534.689 104.376 518.981 108.776 507.92 101.523C496.859 94.2691 494.633 78.1082 502.949 65.4268C511.266 52.7449 526.972 48.3449 538.037 55.599C549.097 62.8526 551.323 79.0135 543.003 91.6949Z" fill="#B84DC4"/>
<path d="M502.325 84.1733C496.006 97.9589 481.136 104.666 469.111 99.1538C457.087 93.6414 452.462 77.9976 458.781 64.2119C465.1 50.4262 479.972 43.7194 491.996 49.2313C504.02 54.7438 508.645 70.3876 502.325 84.1733Z" fill="#8EC3CB"/>
<path d="M531.302 158.926C517.094 164.222 501.83 158.467 497.211 146.072C492.591 133.677 500.366 119.336 514.576 114.04C528.784 108.744 544.049 114.498 548.671 126.893C553.292 139.288 545.516 153.63 531.302 158.926Z" fill="#FBB50F"/>
<path d="M466.574 97.7719C466.574 97.7719 463.235 100.221 463.136 101.142C463.035 102.064 464.39 103.33 464.29 104.252C464.19 105.173 467.033 103.896 467.033 103.896L468.214 98.7419L466.574 97.7719Z" fill="#8EC3CB"/>
<path d="M506.113 100.194C506.113 100.194 501.854 101.8 502.287 102.966C502.72 104.132 504.753 106.031 505.407 106.009C506.062 105.987 506.858 100.778 506.858 100.778L506.113 100.194Z" fill="#B84DC4"/>
<path d="M495.899 139.603C495.899 139.603 492.034 138.129 491.684 139.552C491.336 140.976 491.132 143.039 492.597 142.975C494.061 142.912 495.974 140.679 495.974 140.679L495.899 139.603Z" fill="#FBB50F"/>
<path d="M520.534 160.895C524.066 160.895 527.722 160.262 531.302 158.926C531.329 158.917 531.351 158.908 531.378 158.899C531.351 158.908 531.329 158.917 531.302 158.926C527.717 160.263 524.066 160.895 520.534 160.895ZM531.389 158.895C531.394 158.891 531.405 158.889 531.41 158.886C531.405 158.889 531.394 158.892 531.389 158.895ZM531.432 158.878C531.437 158.876 531.443 158.874 531.448 158.872C531.443 158.874 531.437 158.876 531.432 158.878ZM531.475 158.862C531.48 158.86 531.48 158.859 531.486 158.858C531.48 158.859 531.48 158.861 531.475 158.862ZM531.518 158.845C531.518 158.844 531.523 158.844 531.523 158.843C531.523 158.844 531.518 158.844 531.518 158.845ZM531.561 158.829C531.561 158.829 531.561 158.828 531.567 158.828C531.561 158.828 531.561 158.828 531.561 158.829ZM497.197 146.035C497.195 146.029 497.193 146.024 497.191 146.018C497.193 146.025 497.195 146.029 497.197 146.035ZM497.183 145.997C497.181 145.992 497.179 145.986 497.177 145.981C497.179 145.986 497.181 145.992 497.183 145.997ZM497.169 145.959C497.167 145.954 497.165 145.948 497.163 145.944C497.165 145.948 497.167 145.954 497.169 145.959ZM497.155 145.92C497.153 145.916 497.151 145.912 497.15 145.907C497.152 145.912 497.153 145.915 497.155 145.92ZM497.141 145.881C497.139 145.877 497.138 145.874 497.137 145.871C497.138 145.875 497.139 145.877 497.141 145.881ZM497.126 145.84C497.125 145.838 497.125 145.837 497.124 145.835C497.125 145.837 497.125 145.838 497.126 145.84Z" fill="#E5E5E5"/>
<path d="M520.534 160.895C510.07 160.894 500.664 155.339 497.211 146.072C497.206 146.06 497.201 146.048 497.197 146.035C497.194 146.029 497.193 146.025 497.191 146.019C497.188 146.012 497.185 146.004 497.183 145.997C497.181 145.992 497.179 145.986 497.177 145.981C497.174 145.974 497.171 145.966 497.169 145.959C497.167 145.954 497.165 145.948 497.163 145.944C497.16 145.935 497.157 145.928 497.154 145.92C497.153 145.916 497.152 145.912 497.15 145.907C497.147 145.898 497.143 145.89 497.14 145.881C497.139 145.877 497.138 145.875 497.137 145.871C497.133 145.861 497.129 145.85 497.126 145.84C497.125 145.838 497.124 145.837 497.124 145.835C496.498 144.092 496.117 142.313 495.963 140.528L495.914 139.815C495.844 138.49 495.898 137.164 496.066 135.849C496.766 136.873 497.514 137.876 498.315 138.853C506.689 149.063 518.841 154.349 531.086 154.349C534.386 154.349 537.686 153.966 540.922 153.194C538.28 155.525 535.131 157.463 531.566 158.828C531.561 158.828 531.561 158.829 531.561 158.829C531.55 158.834 531.539 158.838 531.523 158.843C531.523 158.844 531.518 158.844 531.518 158.845C531.507 158.85 531.496 158.854 531.485 158.858C531.48 158.859 531.48 158.86 531.475 158.862C531.464 158.865 531.458 158.869 531.448 158.872C531.442 158.874 531.437 158.876 531.432 158.878C531.426 158.881 531.415 158.883 531.41 158.886C531.405 158.889 531.394 158.891 531.388 158.895C531.383 158.896 531.378 158.898 531.378 158.899C531.351 158.908 531.329 158.917 531.302 158.926C527.722 160.262 524.066 160.895 520.534 160.895Z" fill="#F8A119"/>
<path d="M495.963 140.528C495.943 140.29 495.926 140.053 495.914 139.815L495.963 140.528Z" fill="#D39E3D"/>
<path d="M519.828 105.018C519.828 105.018 519.828 105.018 519.822 105.018C519.828 105.018 519.828 105.018 519.828 105.018ZM519.833 105.018C528.385 105.015 537.25 100.314 542.858 91.9159C537.25 100.314 528.385 105.016 519.833 105.018ZM507.989 101.568C507.966 101.553 507.943 101.538 507.92 101.523C507.943 101.538 507.966 101.553 507.989 101.568ZM507.885 101.5C507.881 101.497 507.877 101.495 507.873 101.492C507.877 101.495 507.881 101.497 507.885 101.5ZM507.85 101.477C507.846 101.474 507.841 101.47 507.836 101.468C507.841 101.47 507.846 101.474 507.85 101.477ZM507.816 101.454C507.811 101.451 507.806 101.447 507.801 101.444C507.806 101.448 507.811 101.45 507.816 101.454ZM507.78 101.43C507.776 101.427 507.771 101.424 507.766 101.421C507.771 101.424 507.776 101.427 507.78 101.43ZM507.745 101.407C507.74 101.404 507.736 101.401 507.732 101.398C507.736 101.401 507.741 101.404 507.745 101.407ZM507.708 101.382C507.704 101.379 507.701 101.377 507.697 101.375C507.701 101.377 507.704 101.38 507.708 101.382ZM507.627 101.327C507.626 101.326 507.624 101.325 507.622 101.324C507.624 101.325 507.626 101.326 507.627 101.327ZM507.592 101.304C507.59 101.302 507.587 101.3 507.585 101.298C507.587 101.3 507.589 101.302 507.592 101.304ZM507.557 101.279C507.554 101.278 507.552 101.276 507.549 101.274C507.552 101.276 507.554 101.278 507.557 101.279ZM507.522 101.255C507.519 101.253 507.517 101.252 507.515 101.25C507.517 101.251 507.519 101.254 507.522 101.255ZM507.484 101.229C507.483 101.228 507.482 101.227 507.48 101.227C507.482 101.227 507.483 101.228 507.484 101.229ZM543.003 91.6949C543.014 91.683 543.019 91.6706 543.03 91.6587C543.019 91.6711 543.014 91.683 543.003 91.6949ZM543.036 91.6528C543.041 91.6431 543.046 91.6334 543.052 91.6231C543.046 91.6334 543.041 91.6431 543.036 91.6528ZM543.057 91.6156C543.063 91.6054 543.068 91.5962 543.079 91.5859C543.068 91.5962 543.063 91.6059 543.057 91.6156ZM543.079 91.5805C543.09 91.5697 543.095 91.5595 543.1 91.5487C543.095 91.5595 543.09 91.5697 543.079 91.5805ZM543.106 91.5444C543.133 91.4964 543.165 91.4463 543.197 91.3983C543.165 91.4468 543.133 91.4959 543.106 91.5444ZM543.203 91.3945C543.208 91.3837 543.214 91.3724 543.219 91.3616C543.214 91.3724 543.208 91.3832 543.203 91.3945ZM543.224 91.3578C543.23 91.3471 543.24 91.3341 543.246 91.3233C543.24 91.3352 543.23 91.3465 543.224 91.3578ZM543.246 91.3217C543.273 91.284 543.294 91.2484 543.316 91.2106C543.294 91.2478 543.273 91.2845 543.246 91.3217ZM543.321 91.2074C543.327 91.1972 543.332 91.1869 543.338 91.1767C543.332 91.1869 543.327 91.1972 543.321 91.2074ZM543.348 91.1637C543.348 91.1578 543.354 91.1497 543.359 91.1432C543.354 91.1502 543.348 91.1572 543.348 91.1637ZM543.37 91.1265C543.375 91.1222 543.375 91.1157 543.381 91.1114C543.375 91.1163 543.375 91.1217 543.37 91.1265ZM543.391 91.0888C543.397 91.0872 543.397 91.0844 543.397 91.0828C543.397 91.085 543.397 91.0866 543.391 91.0888Z" fill="#E5E5E5"/>
<path d="M519.828 105.018C519.828 105.018 519.828 105.018 519.822 105.018C515.665 105.017 511.585 103.906 507.989 101.568C507.966 101.553 507.943 101.538 507.92 101.523C507.908 101.515 507.897 101.508 507.885 101.5C507.881 101.497 507.877 101.495 507.873 101.492C507.866 101.487 507.858 101.482 507.85 101.477C507.846 101.474 507.841 101.47 507.836 101.468C507.829 101.463 507.823 101.459 507.816 101.454C507.811 101.45 507.806 101.448 507.801 101.444C507.794 101.44 507.787 101.435 507.78 101.43C507.776 101.427 507.771 101.424 507.766 101.421C507.759 101.416 507.752 101.412 507.745 101.407C507.741 101.404 507.736 101.401 507.732 101.398C507.724 101.393 507.716 101.387 507.708 101.382C507.704 101.38 507.701 101.377 507.697 101.375C507.674 101.359 507.65 101.343 507.627 101.327C507.626 101.326 507.624 101.325 507.622 101.324C507.612 101.317 507.602 101.31 507.592 101.304C507.59 101.302 507.587 101.3 507.585 101.298C507.576 101.292 507.566 101.286 507.557 101.279C507.554 101.278 507.552 101.276 507.549 101.274C507.54 101.268 507.531 101.261 507.522 101.255C507.519 101.254 507.517 101.251 507.515 101.25C507.504 101.243 507.494 101.236 507.484 101.229C507.483 101.228 507.482 101.227 507.48 101.227C507.269 101.081 507.062 100.932 506.858 100.779C506.858 100.779 506.858 100.778 506.858 100.778L506.113 100.194C506.113 100.194 506.113 100.194 506.111 100.195C503.824 98.3202 502 96.0205 500.659 93.4425C505.728 95.443 510.974 96.3958 516.15 96.3958C527.7 96.3958 538.894 91.6458 546.913 83.1881C546.147 85.8842 544.977 88.5485 543.397 91.0828C543.397 91.0844 543.397 91.0872 543.392 91.0888C543.392 91.0963 543.386 91.1039 543.381 91.1114C543.375 91.1157 543.375 91.1222 543.37 91.1265C543.365 91.1324 543.365 91.1378 543.359 91.1432C543.354 91.1497 543.348 91.1578 543.348 91.1637C543.343 91.168 543.343 91.1724 543.338 91.1767C543.332 91.1869 543.327 91.1972 543.322 91.2074C543.316 91.2085 543.316 91.2096 543.316 91.2106C543.295 91.2484 543.273 91.284 543.246 91.3217C543.246 91.3223 543.246 91.3228 543.246 91.3233C543.241 91.3341 543.23 91.3471 543.224 91.3578C543.224 91.3589 543.224 91.36 543.219 91.3616C543.214 91.3724 543.208 91.3837 543.203 91.3945C543.197 91.3956 543.197 91.3972 543.197 91.3983C543.165 91.4463 543.133 91.4964 543.106 91.5444C543.1 91.546 543.1 91.5471 543.1 91.5487C543.095 91.5595 543.09 91.5697 543.079 91.5805C543.079 91.5821 543.079 91.5843 543.079 91.5859C543.068 91.5962 543.063 91.6054 543.057 91.6156C543.057 91.6183 543.052 91.6204 543.052 91.6231C543.046 91.6334 543.041 91.6431 543.036 91.6528C543.03 91.655 543.03 91.6571 543.03 91.6587C543.02 91.6706 543.014 91.683 543.003 91.6949C542.955 91.7693 542.906 91.8426 542.858 91.9159C537.25 100.314 528.385 105.015 519.833 105.018H519.828Z" fill="#AD51B7"/>
<path d="M506.858 100.779C506.604 100.589 506.355 100.395 506.111 100.195C506.113 100.194 506.113 100.194 506.113 100.194L506.858 100.778C506.858 100.778 506.858 100.779 506.858 100.779Z" fill="#C1237D"/>
<path d="M478.005 101.082C477.709 101.082 477.414 101.076 477.119 101.064C477.414 101.076 477.709 101.082 478.004 101.082C485.882 101.082 493.814 96.8725 499.099 89.6707H499.1C493.813 96.8736 485.883 101.083 478.005 101.082ZM469.162 99.1766C469.145 99.169 469.128 99.1615 469.111 99.1539C469.128 99.1615 469.145 99.169 469.162 99.1766ZM469.074 99.1367C469.069 99.134 469.063 99.1318 469.058 99.1291C469.063 99.1318 469.069 99.134 469.074 99.1367ZM469.036 99.1189C469.03 99.1162 469.025 99.1135 469.019 99.1108C469.025 99.1135 469.03 99.1162 469.036 99.1189ZM468.999 99.1016C468.993 99.0989 468.987 99.0962 468.981 99.093C468.987 99.0962 468.992 99.0984 468.999 99.1016ZM468.96 99.0838C468.954 99.0811 468.949 99.0784 468.943 99.0757C468.949 99.0784 468.954 99.0811 468.96 99.0838ZM468.922 99.0655C468.916 99.0633 468.911 99.0606 468.905 99.058C468.911 99.0606 468.916 99.0628 468.922 99.0655ZM468.88 99.0461C468.876 99.0445 468.873 99.0423 468.868 99.0407C468.873 99.0423 468.876 99.0439 468.88 99.0461ZM468.791 99.0035C468.79 99.0029 468.789 99.0029 468.789 99.0024C468.789 99.0029 468.79 99.0035 468.791 99.0035ZM468.751 98.9846C468.751 98.9841 468.75 98.9841 468.749 98.9835C468.75 98.9841 468.751 98.9841 468.751 98.9846Z" fill="#E5E5E5"/>
<path d="M499.1 89.6706H499.1C500.33 87.9953 501.417 86.1571 502.326 84.1733C502.332 84.1609 502.338 84.1469 502.344 84.1339C502.338 84.1474 502.332 84.1604 502.326 84.1733C501.417 86.1576 500.33 87.9953 499.1 89.6706ZM502.347 84.1264C502.352 84.1161 502.358 84.1043 502.362 84.094C502.357 84.1048 502.353 84.1156 502.347 84.1264ZM502.366 84.0865C502.371 84.0757 502.375 84.066 502.38 84.0547C502.375 84.0655 502.371 84.0757 502.366 84.0865ZM502.383 84.0466C502.389 84.0358 502.394 84.025 502.399 84.0142C502.394 84.025 502.388 84.0358 502.383 84.0466ZM502.401 84.0083C502.406 83.9964 502.412 83.9846 502.417 83.9727C502.412 83.9846 502.407 83.9964 502.401 84.0083ZM502.418 83.97C502.928 82.8387 503.364 81.694 503.728 80.5449C503.364 81.694 502.928 82.8382 502.418 83.97ZM503.728 80.5443C503.732 80.5319 503.736 80.5185 503.74 80.5061C503.736 80.5185 503.732 80.5314 503.728 80.5443ZM503.741 80.5023C503.746 80.4888 503.75 80.4764 503.754 80.4629C503.75 80.4759 503.746 80.4894 503.741 80.5023ZM503.754 80.4624C503.758 80.4494 503.762 80.4365 503.766 80.4236C503.762 80.4365 503.758 80.4489 503.754 80.4624ZM503.767 80.4209C503.771 80.4074 503.775 80.3939 503.779 80.3804C503.776 80.3939 503.771 80.4079 503.767 80.4209ZM503.781 80.3767C503.784 80.3648 503.788 80.3546 503.791 80.3427C503.788 80.354 503.784 80.3653 503.781 80.3767ZM503.798 80.3222C503.799 80.3163 503.802 80.3098 503.803 80.3039C503.802 80.3098 503.799 80.3157 503.798 80.3222ZM503.811 80.2785C503.812 80.2748 503.813 80.2704 503.815 80.2667C503.813 80.2704 503.812 80.2748 503.811 80.2785ZM503.823 80.2386C503.824 80.2348 503.825 80.2316 503.826 80.2284C503.825 80.2316 503.824 80.2354 503.823 80.2386ZM503.836 80.1987C503.836 80.196 503.837 80.1939 503.838 80.1917C503.837 80.1939 503.836 80.1966 503.836 80.1987ZM503.847 80.1594C503.848 80.1577 503.849 80.1561 503.849 80.1545C503.849 80.1561 503.848 80.1577 503.847 80.1594Z" fill="#C1237D"/>
<path d="M478.004 101.082C477.709 101.082 477.414 101.076 477.119 101.064C474.412 100.955 471.722 100.342 469.162 99.1766C469.145 99.169 469.128 99.1615 469.111 99.1539C469.099 99.148 469.086 99.1421 469.074 99.1367C469.069 99.134 469.063 99.1318 469.058 99.1291C469.051 99.1259 469.043 99.1227 469.036 99.1189C469.03 99.1162 469.024 99.1135 469.019 99.1108C469.012 99.1081 469.005 99.1048 468.999 99.1016C468.992 99.0984 468.987 99.0962 468.981 99.093C468.974 99.0903 468.967 99.0871 468.96 99.0838C468.954 99.0811 468.949 99.0784 468.943 99.0757C468.936 99.0725 468.928 99.0687 468.921 99.0655C468.916 99.0628 468.911 99.0606 468.905 99.058C468.897 99.0542 468.889 99.0499 468.88 99.0461C468.876 99.0439 468.872 99.0423 468.868 99.0407C468.842 99.0283 468.816 99.0159 468.791 99.0035C468.79 99.0035 468.789 99.0029 468.789 99.0024C468.776 98.9965 468.763 98.9905 468.751 98.9846C468.751 98.9841 468.75 98.9841 468.749 98.9835C468.422 98.8255 468.099 98.6605 467.783 98.4875L466.574 97.7719C466.574 97.7719 466.573 97.7725 466.573 97.773C465.816 97.2909 465.096 96.7647 464.413 96.1979C480.196 95.9208 495.189 86.795 502.206 71.4871C503.137 69.4564 503.893 67.3902 504.482 65.305C505.531 69.9746 505.375 75.1101 503.849 80.1545C503.848 80.1562 503.848 80.1578 503.847 80.1594C503.844 80.1702 503.841 80.181 503.838 80.1917C503.837 80.1939 503.836 80.1961 503.835 80.1988C503.832 80.209 503.829 80.2182 503.826 80.2284C503.825 80.2317 503.824 80.2349 503.823 80.2387C503.82 80.2484 503.818 80.257 503.814 80.2667C503.813 80.2705 503.812 80.2748 503.811 80.2786C503.808 80.2872 503.806 80.2953 503.803 80.3039C503.801 80.3098 503.799 80.3163 503.798 80.3223C503.795 80.3287 503.793 80.3363 503.791 80.3427C503.787 80.3546 503.784 80.3648 503.78 80.3767C503.78 80.3783 503.78 80.3789 503.779 80.3805C503.775 80.3939 503.771 80.4074 503.767 80.4209C503.766 80.422 503.766 80.4225 503.766 80.4236C503.762 80.4366 503.758 80.4495 503.754 80.4624V80.463C503.75 80.4765 503.745 80.4889 503.741 80.5023C503.741 80.504 503.741 80.5045 503.74 80.5061C503.736 80.5185 503.732 80.532 503.728 80.5444V80.5449C503.364 81.694 502.927 82.8388 502.418 83.9701C502.418 83.9711 502.418 83.9717 502.417 83.9728C502.412 83.9846 502.406 83.9965 502.401 84.0083C502.4 84.0105 502.399 84.0121 502.398 84.0143C502.394 84.0251 502.389 84.0358 502.383 84.0466C502.382 84.0493 502.381 84.052 502.38 84.0547C502.375 84.066 502.37 84.0757 502.366 84.0865C502.364 84.0887 502.363 84.0919 502.362 84.0941C502.357 84.1043 502.352 84.1162 502.347 84.1264C502.346 84.1291 502.345 84.1318 502.344 84.134C502.338 84.1469 502.332 84.1609 502.326 84.1734C501.416 86.1571 500.329 87.9953 499.099 89.6707C493.813 96.8725 485.882 101.082 478.004 101.082Z" fill="#80AFB6"/>
<path d="M467.783 98.4875C467.37 98.2615 466.966 98.0232 466.573 97.773C466.573 97.7724 466.574 97.7719 466.574 97.7719L467.783 98.4875Z" fill="#80AFB6"/>
<path d="M463.027 62.9028C467.035 54.8921 474.676 49.9556 482.371 49.9556C484.531 49.9556 486.696 50.3449 488.785 51.1645C490.737 51.9307 492.481 53.0178 493.994 54.3551C493.383 54.0461 492.753 53.7625 492.105 53.5085C489.468 52.4737 486.739 51.9831 484.013 51.9831C476.185 51.9831 468.398 56.0347 463.027 62.9028Z" fill="#B0D5DB"/>
<path d="M507.142 67.9687C511.15 59.9581 518.792 55.0215 526.487 55.0215C528.644 55.0215 530.812 55.4114 532.898 56.231C534.85 56.9967 536.597 58.0838 538.107 59.421C537.498 59.1126 536.867 58.8289 536.22 58.5744C533.583 57.5402 530.855 57.049 528.126 57.049C520.302 57.049 512.514 61.1007 507.142 67.9687Z" fill="#D877E3"/>
<path d="M545.936 129.931C545.64 129.315 545.316 128.707 544.955 128.11C540.555 120.807 532.472 116.888 523.742 116.888C521.245 116.888 518.7 117.209 516.166 117.862C519.676 116.158 523.37 115.334 526.934 115.334C533.852 115.334 540.258 118.441 543.747 124.23C544.831 126.026 545.553 127.95 545.936 129.931Z" fill="#F4C961"/>
<path d="M458.188 207.211C458.082 207.211 457.978 207.156 457.922 207.058C457.839 206.911 457.889 206.724 458.035 206.64C458.042 206.636 458.757 206.209 458.969 205.359C459.134 204.695 458.96 203.94 458.449 203.113C456.816 200.466 455.372 196.769 458.732 191.626C458.933 191.318 459.168 190.967 459.43 190.573C463.333 184.721 483.488 154.945 468.475 155.103C466.619 155.122 466.03 98.9231 467.886 98.9037L466.418 98.0356C466.272 97.9493 466.224 97.7616 466.311 97.616C466.396 97.4704 466.584 97.423 466.73 97.5087L468.369 98.4788C468.474 98.5408 468.532 98.6589 468.517 98.7797C468.466 99.19 463.511 139.976 469.049 154.889C474.384 169.257 463.889 184.99 459.939 190.913C459.678 191.305 459.444 191.655 459.244 191.96C456.09 196.787 457.336 200.144 458.97 202.792C459.573 203.768 459.772 204.685 459.56 205.518C459.28 206.621 458.378 207.149 458.339 207.171C458.291 207.198 458.24 207.211 458.188 207.211Z" fill="#3B455A"/>
<path d="M452.68 199.527C452.523 199.527 452.39 199.407 452.375 199.248C452.139 196.608 455.878 193.103 460.208 189.045C463.817 185.664 467.906 181.83 469.675 178.299C473.195 171.27 470.207 162.301 469.872 161.347C469.702 161.018 469.587 159.85 469.262 155.657L469.269 155.568C474.211 133.084 503.376 103.788 506.394 100.804L505.924 100.435C505.791 100.33 505.768 100.138 505.873 100.005C505.977 99.8721 506.17 99.849 506.302 99.953L507.046 100.538C507.116 100.592 507.159 100.674 507.163 100.762C507.168 100.85 507.134 100.937 507.071 100.998C506.751 101.308 475.052 132.244 469.876 155.655C470.19 159.699 470.328 160.722 470.379 160.98L470.416 161.05C470.453 161.148 474.046 170.936 470.221 178.573C468.404 182.202 464.45 185.908 460.627 189.492C456.588 193.276 452.775 196.85 452.985 199.194C453 199.362 452.876 199.511 452.708 199.526L452.68 199.527Z" fill="#3B455A"/>
<path d="M466.127 213.108C466.021 213.108 465.92 213.054 465.862 212.957C462.605 207.438 464.931 203.485 468.784 196.935C470.007 194.856 471.394 192.5 472.818 189.733C479.068 177.586 474.816 169.401 472.698 166.445C469.905 162.548 469.025 156.606 469.134 155.596C469.142 155.531 469.169 155.471 469.213 155.423C475.006 149.088 494.819 139.769 495.659 139.375C495.746 139.335 495.848 139.337 495.933 139.382C496.017 139.427 496.076 139.51 496.091 139.605L496.258 140.648C496.284 140.815 496.171 140.972 496.004 140.998C495.835 141.025 495.68 140.912 495.654 140.744L495.551 140.104C492.774 141.428 475.109 149.979 469.737 155.757C469.697 156.934 470.62 162.495 473.196 166.088C475.38 169.135 479.767 177.566 473.362 190.013C471.93 192.795 470.539 195.159 469.312 197.245C465.446 203.817 463.316 207.438 466.39 212.646C466.476 212.792 466.427 212.979 466.281 213.066C466.233 213.094 466.179 213.108 466.127 213.108Z" fill="#3B455A"/>
</g>
<defs>
<clipPath id="clip0">
<rect width="550" height="400" fill="white"/>
</clipPath>
</defs>
</svg>
