<svg width="24" height="24" viewBox="0 0 24 24" fill="none" xmlns="http://www.w3.org/2000/svg">
<path d="M12.326 0C5.74816 0 2.25 4.21519 2.25 8.8114C2.25 10.943 3.44105 13.6011 5.34764 14.4441C5.63715 14.5747 5.79466 14.5192 5.85916 14.2506C5.91617 14.0466 6.16668 13.0641 6.28818 12.6006C6.32568 12.4521 6.30618 12.3231 6.18618 12.1835C5.55315 11.4515 5.05063 10.118 5.05063 8.8669C5.05063 5.66125 7.59924 2.54861 11.9359 2.54861C15.6861 2.54861 18.3097 4.98472 18.3097 8.46938C18.3097 12.4071 16.2261 15.1312 13.5185 15.1312C12.0199 15.1312 10.9039 13.9551 11.2579 12.5001C11.6854 10.7675 12.524 8.9044 12.524 7.65484C12.524 6.53429 11.8909 5.60725 10.5979 5.60725C9.07231 5.60725 7.83475 7.11782 7.83475 9.14591C7.83475 10.4345 8.29077 11.3045 8.29077 11.3045C8.29077 11.3045 6.7817 17.4008 6.50119 18.5393C6.02717 20.4669 6.56569 23.5886 6.6122 23.8571C6.6407 24.0056 6.8072 24.0521 6.90021 23.9306C7.04872 23.7356 8.8728 21.1329 9.38432 19.2519C9.57033 18.5663 10.3339 15.7867 10.3339 15.7867C10.8364 16.6943 12.287 17.4548 13.832 17.4548C18.4282 17.4548 21.7494 13.4151 21.7494 8.40188C21.7329 3.59566 17.6197 0 12.326 0Z" fill="white"/>
</svg>
