<svg width="24" height="24" viewBox="0 0 24 24" fill="none" xmlns="http://www.w3.org/2000/svg">
<path fill-rule="evenodd" clip-rule="evenodd" d="M1.64971 10.6177C8.09149 7.81111 12.387 5.96085 14.5363 5.06689C20.6729 2.51446 21.9481 2.07107 22.7792 2.05643C22.962 2.05321 23.3707 2.09851 23.6354 2.31334C23.859 2.49474 23.9205 2.73978 23.9499 2.91176C23.9794 3.08374 24.016 3.47552 23.9869 3.78165C23.6543 7.27574 22.2154 15.755 21.4834 19.6684C21.1736 21.3243 20.5637 21.8795 19.9732 21.9339C18.69 22.052 17.7156 21.0858 16.4727 20.2711C14.5279 18.9962 13.4292 18.2026 11.5414 16.9586C9.35968 15.5209 10.774 14.7307 12.0173 13.4393C12.3427 13.1014 17.9966 7.95871 18.106 7.49219C18.1197 7.43385 18.1324 7.21636 18.0032 7.10152C17.874 6.98668 17.6833 7.02595 17.5457 7.05718C17.3507 7.10145 14.2438 9.155 8.225 13.2178C7.34311 13.8234 6.54433 14.1184 5.82864 14.103C5.03966 14.0859 3.52197 13.6569 2.39373 13.2901C1.00989 12.8403 -0.0899584 12.6025 0.00581363 11.8385C0.0556976 11.4406 0.603662 11.0337 1.64971 10.6177Z" fill="white"/>
</svg>
