<svg width="24" height="24" viewBox="0 0 24 24" fill="none" xmlns="http://www.w3.org/2000/svg">
<g clip-path="url(#clip0)">
<path fill-rule="evenodd" clip-rule="evenodd" d="M3.52583 4.875H0.900225C0.150045 4.875 0 5.2281 0 5.61735C0 6.31268 0.890145 9.7611 4.14465 14.3219C6.31432 17.4366 9.37117 19.125 12.1528 19.125C13.8218 19.125 14.0283 18.75 14.0283 18.1041V15.75C14.0283 15 14.1864 14.8503 14.7148 14.8503C15.1043 14.8503 15.7719 15.045 17.3296 16.5467C19.1099 18.3265 19.4034 19.125 20.4047 19.125H23.0303C23.7805 19.125 24.1556 18.75 23.9392 18.01C23.7025 17.2724 22.8525 16.2022 21.7246 14.9338C21.1126 14.2107 20.1947 13.432 19.9165 13.0427C19.5271 12.5421 19.6384 12.3196 19.9165 11.8747C19.9165 11.8747 23.1154 7.36943 23.4493 5.83995C23.6161 5.28368 23.4493 4.875 22.6552 4.875H20.0296C19.3621 4.875 19.0543 5.2281 18.8873 5.61735C18.8873 5.61735 17.5522 8.87115 15.6607 10.9847C15.0487 11.5965 14.7705 11.7912 14.4367 11.7912C14.2698 11.7912 14.0282 11.5965 14.0282 11.0404V5.83995C14.0282 5.17245 13.8345 4.875 13.2781 4.875H9.1521C8.73495 4.875 8.484 5.18475 8.484 5.47837C8.484 6.11107 9.42975 6.25702 9.52725 8.03685V11.9025C9.52725 12.75 9.3741 12.9037 9.04035 12.9037C8.15025 12.9037 5.98507 9.63533 4.70092 5.89553C4.4493 5.16863 4.19685 4.875 3.52583 4.875Z" fill="white"/>
</g>
<defs>
<clipPath id="clip0">
<rect width="24" height="24" fill="white"/>
</clipPath>
</defs>
</svg>
