<svg width="22" height="25" viewBox="0 0 22 25" fill="none" xmlns="http://www.w3.org/2000/svg">
<g clip-path="url(#clip0)">
<path d="M7.48008 5.58001L9.24008 4.26001L10.5601 5.58001V10.64L11.8801 10.42L12.7601 10.86L13.6401 11.3L14.9601 10.86L15.8401 11.74H16.7201H18.4801L18.9201 12.62V21.42L16.2801 24.06H9.68008L7.92008 23.18L3.08008 14.38L4.40008 13.5L6.16008 13.94L7.04008 14.82H7.48008V13.94V5.58001Z" fill="white"/>
<path d="M17.4957 11.1769H17.4648C17.0429 11.1746 16.6352 11.3296 16.3213 11.6117C16.0672 10.9086 15.4216 10.4032 14.6653 10.4032C14.2018 10.4064 13.7591 10.5967 13.438 10.9312C13.1427 10.3334 12.5504 9.92791 11.8693 9.92791H11.8364C11.4714 9.92231 11.1152 10.041 10.8264 10.2644V6.00283C10.8264 4.973 10.0247 4.13525 9.0494 4.13525C8.07522 4.13525 7.2776 4.97246 7.27705 6.00157L7.26892 14.4567L6.79042 13.8756C6.37082 13.3532 5.75317 13.0288 5.08493 12.9798C4.43042 12.935 3.78657 13.1627 3.3059 13.6094L2.88955 13.9544C2.75529 14.0657 2.71698 14.2554 2.79739 14.4101L6.84535 22.191C7.58552 23.613 8.99374 24.5001 10.5205 24.5001H15.0824V24.4961C17.3954 24.4961 19.2708 22.489 19.2731 20.0246C19.274 18.9219 19.2699 18.1001 19.2706 17.434C19.2729 15.6519 19.2711 14.9943 19.2666 13.031C19.2643 12.0035 18.4682 11.1769 17.4957 11.1769ZM18.525 17.4315C18.5243 18.0977 18.5232 18.9228 18.5221 20.0255C18.5201 22.0824 16.9673 23.7597 15.0607 23.7597H10.5207C9.27094 23.7597 8.11426 23.0252 7.50221 21.8492L3.59195 14.3353L3.78494 14.1743C3.78982 14.1703 3.79452 14.1656 3.79922 14.1615C4.13117 13.849 4.57787 13.6885 5.03271 13.7184C5.49766 13.754 5.92665 13.9813 6.2174 14.3458L7.35024 15.7242C7.44926 15.8451 7.61371 15.8904 7.7608 15.8378C7.90789 15.7853 8.0062 15.6458 8.0062 15.4896L8.01288 6.00193C8.01324 5.38067 8.48307 4.87524 9.04976 4.87524C9.61645 4.87524 10.0863 5.38121 10.0863 6.00283V11.7234C10.0863 11.7433 10.0854 11.7633 10.0854 11.7836C10.0854 11.7922 10.0863 11.8011 10.0863 11.8096V14.2554C10.0863 14.4598 10.252 14.6255 10.4564 14.6255C10.6607 14.6255 10.8264 14.4598 10.8264 14.2554V11.7359C10.8264 11.1365 11.2844 10.6681 11.8364 10.6681H11.8693C12.4363 10.6681 12.9082 11.1623 12.9082 11.7839V14.0219C12.9082 14.2263 13.0739 14.392 13.2782 14.392C13.4826 14.392 13.6483 14.2263 13.6483 14.0219V12.266C13.6483 11.6442 14.0976 11.1384 14.6677 11.1384C15.2345 11.1384 15.6838 11.6441 15.6838 12.266V13.9226C15.6838 14.1269 15.8495 14.2926 16.0539 14.2926C16.2582 14.2926 16.4239 14.1269 16.4239 13.9226V13.0255C16.4239 12.4037 16.8977 11.9171 17.4648 11.9171H17.4957C18.0613 11.9171 18.5223 12.4121 18.5237 13.0319C18.5282 14.9938 18.5273 15.6506 18.525 17.4315Z" fill="#333333"/>
</g>
<line x1="3.62012" y1="6" x2="5.62012" y2="6" stroke="#333333" stroke-linecap="round"/>
<line x1="4.70711" y1="2" x2="6.12132" y2="3.41421" stroke="#333333" stroke-linecap="round"/>
<line x1="9" y1="2.5" x2="9" y2="0.5" stroke="#333333" stroke-linecap="round"/>
<line x1="12" y1="3.29289" x2="13.4142" y2="1.87868" stroke="#333333" stroke-linecap="round"/>
<line x1="12.5" y1="6" x2="14.5" y2="6" stroke="#333333" stroke-linecap="round"/>
<defs>
<clipPath id="clip0">
<rect width="22" height="22" fill="white" transform="translate(0 2.5)"/>
</clipPath>
</defs>
</svg>
