<svg width="72" height="72" viewBox="0 0 72 72" fill="none" xmlns="http://www.w3.org/2000/svg">
<path d="M66.7738 11.0483H62.5468V16.4862C62.5468 17.6342 61.6159 18.5653 60.468 18.5653C59.3198 18.5653 58.3892 17.6343 58.3892 16.4862V11.0483H54.1281V16.4862C54.1281 17.6342 53.1975 18.5653 52.0493 18.5653C50.9014 18.5653 49.9705 17.6343 49.9705 16.4862V11.0483H22.038V16.4862C22.038 17.6342 21.1074 18.5653 19.9593 18.5653C18.8111 18.5653 17.8804 17.6343 17.8804 16.4862V11.0483H13.6194V16.4862C13.6194 17.6342 12.6887 18.5653 11.5405 18.5653C10.3928 18.5653 9.4618 17.6343 9.4618 16.4862V11.0483H5.2349C4.2993 11.0483 3.54114 11.807 3.54114 12.7424C3.54114 14.7974 3.54114 64.6144 3.54114 66.7765C3.54114 67.712 4.29945 68.4706 5.2349 68.4706C7.24317 68.4706 13.2593 68.4706 15.2402 68.4706H66.7737C67.7091 68.4706 68.4674 67.712 68.4674 66.7765C68.4674 64.2643 68.4674 15.3187 68.4674 12.7424C68.4674 11.807 67.7093 11.0483 66.7738 11.0483Z" fill="#ECF1F8"/>
<path d="M66.7737 11.0483H62.5466V16.4862C62.5466 17.6342 61.6158 18.5653 60.4679 18.5653C59.3197 18.5653 58.389 17.6343 58.389 16.4862V11.0483H54.128V16.4862C54.128 17.6342 53.1973 18.5653 52.0491 18.5653C50.9012 18.5653 49.9704 17.6343 49.9704 16.4862V11.0483H36.5551C32.8633 32.0047 47.8452 51.2475 68.4673 53.3373C68.4673 51.9673 68.4673 14.1099 68.4673 12.7423C68.4673 11.807 67.7091 11.0483 66.7737 11.0483Z" fill="#F2F7FC"/>
<path d="M9.20525 68.3289H5.2349C4.29915 68.3289 3.54114 67.5721 3.54114 66.6389V23.395H7.51149V66.6389C7.51149 67.5721 8.26935 68.3289 9.20525 68.3289Z" fill="#AFCBD8"/>
<path d="M9.20518 11.0483C8.26943 11.0483 7.51141 11.805 7.51141 12.7379V23.395H3.54106C3.54106 11.7576 3.47119 12.5679 3.6738 12.0817C3.6738 12.0817 3.6738 12.0817 3.6738 12.0802C3.83008 11.7208 4.07024 11.4649 4.39085 11.2727C4.95742 10.9489 5.10372 11.0483 9.20518 11.0483Z" fill="#AFCBD8"/>
<path d="M68.4674 12.7423V23.395H3.54106C3.54106 11.7576 3.47119 12.5679 3.6738 12.0817C3.6738 12.0817 3.6738 12.0817 3.6738 12.0802C3.83008 11.7208 4.07024 11.4649 4.39085 11.2727C4.9616 10.9467 5.08942 11.0483 9.46232 11.0483V16.4862C9.46232 17.6338 10.3923 18.5654 11.5412 18.5654C12.6887 18.5654 13.6201 17.6337 13.6201 16.4862V11.0483H17.8799V16.4862C17.8799 17.6338 18.8115 18.5654 19.9588 18.5654C21.1077 18.5654 22.038 17.6337 22.038 16.4862V11.0483H49.9703V16.4862C49.9703 17.6338 50.9004 18.5654 52.0492 18.5654C53.1968 18.5654 54.1284 17.6337 54.1284 16.4862V11.0483H58.388V16.4862C58.388 17.6338 59.3196 18.5654 60.4672 18.5654C61.616 18.5654 62.5461 17.6337 62.5461 16.4862V11.0483H66.7735C67.7095 11.0483 68.4674 11.8063 68.4674 12.7423Z" fill="#FC3842"/>
<path d="M68.4674 12.7423V23.3951H36.5068C35.821 19.3236 35.837 15.1229 36.5547 11.0483H49.9705V16.4862C49.9705 17.6339 50.9006 18.5655 52.0494 18.5655C53.197 18.5655 54.1286 17.6337 54.1286 16.4862V11.0483H58.3882V16.4862C58.3882 17.6339 59.3198 18.5655 60.4674 18.5655C61.6162 18.5655 62.5463 17.6337 62.5463 16.4862V11.0483H66.7737C67.7096 11.0483 68.4674 11.8064 68.4674 12.7423Z" fill="#FC4F60"/>
<path d="M8.52895 11.0483C7.93049 11.3094 7.51141 11.9066 7.51141 12.601V23.395H3.54106C3.54106 11.7576 3.47119 12.5679 3.6738 12.0817C3.6738 12.0817 3.6738 12.0817 3.6738 12.0802C3.83008 11.7208 4.07024 11.465 4.39085 11.2727C4.95072 10.9528 5.1882 11.0483 8.52895 11.0483Z" fill="#C6122C"/>
<path d="M13.6197 16.4862C13.6197 17.6341 12.689 18.5653 11.5408 18.5653C10.393 18.5653 9.46204 17.6343 9.46204 16.4862V5.61033C9.46204 4.464 10.3909 3.53119 11.5408 3.53119C12.689 3.53119 13.6197 4.46191 13.6197 5.61033V16.4862Z" fill="#FFCA54"/>
<path d="M22.0384 16.4862C22.0384 17.6341 21.1077 18.5653 19.9596 18.5653C18.8114 18.5653 17.8807 17.6343 17.8807 16.4862V5.61033C17.8807 4.46206 18.8114 3.53119 19.9596 3.53119C21.1075 3.53119 22.0384 4.46191 22.0384 5.61033V16.4862Z" fill="#FFCA54"/>
<path d="M54.1283 16.4862C54.1283 17.6341 53.1976 18.5653 52.0494 18.5653C50.9015 18.5653 49.9707 17.6343 49.9707 16.4862V5.61033C49.9707 4.4634 50.9002 3.53119 52.0494 3.53119C53.1976 3.53119 54.1283 4.46191 54.1283 5.61033V16.4862Z" fill="#FFCA54"/>
<path d="M62.5468 16.4862C62.5468 17.6341 61.6159 18.5653 60.468 18.5653C59.3198 18.5653 58.3892 17.6343 58.3892 16.4862V5.61033C58.3892 4.46206 59.3198 3.53119 60.468 3.53119C61.6158 3.53119 62.5468 4.46191 62.5468 5.61033V16.4862Z" fill="#FFCA54"/>
<path d="M11.6262 16.4862V5.61032C11.6262 4.85901 12.0259 4.20291 12.623 3.83754C11.2375 2.99011 9.4624 3.99176 9.4624 5.61032V16.4863C9.4624 17.6343 10.3932 18.5654 11.5411 18.5654C11.9382 18.5654 12.3076 18.4523 12.6232 18.2592C12.0259 17.8936 11.6262 17.2376 11.6262 16.4862Z" fill="#F99830"/>
<path d="M20.0453 16.4861V5.61031C20.0453 4.859 20.445 4.2029 21.0423 3.83753C20.7267 3.64441 20.3571 3.53131 19.9604 3.53131C18.8122 3.53131 17.8815 4.46203 17.8815 5.61046V16.4864C17.8815 18.1041 19.657 19.1071 21.0423 18.2592C20.445 17.8935 20.0453 17.2376 20.0453 16.4861Z" fill="#F99830"/>
<path d="M52.1347 16.4862V5.61032C52.1347 4.85901 52.5342 4.20291 53.1315 3.83754C51.7461 2.99011 49.9707 3.99176 49.9707 5.61032V16.4863C49.9707 17.6343 50.9015 18.5654 52.0494 18.5654C52.4463 18.5654 52.8159 18.4523 53.1315 18.2592C52.5344 17.8936 52.1347 17.2376 52.1347 16.4862Z" fill="#F99830"/>
<path d="M60.5535 16.4861V5.61031C60.5535 4.859 60.9532 4.2029 61.5503 3.83753C61.2349 3.64441 60.8653 3.53131 60.4685 3.53131C59.3203 3.53131 58.3896 4.46203 58.3896 5.61046V16.4864C58.3896 17.6344 59.3203 18.5656 60.4685 18.5656C60.8653 18.5656 61.2349 18.4525 61.5503 18.2594C60.9532 17.8935 60.5535 17.2376 60.5535 16.4861Z" fill="#F99830"/>
<path d="M17.926 37.1124H12.7583C11.8503 37.1124 11.114 36.376 11.114 35.4678V30.2992C11.114 29.391 11.8504 28.6544 12.7583 28.6544H17.926C18.8342 28.6544 19.5705 29.391 19.5705 30.2992V35.4678C19.5706 36.376 18.8342 37.1124 17.926 37.1124Z" fill="#AFCBD8"/>
<path d="M19.5708 30.2992V35.4672C19.5708 36.3764 18.8335 37.1123 17.926 37.1123H16.1643C17.072 37.1123 17.8091 36.3764 17.8091 35.4672V30.2992C17.8091 29.3899 17.0719 28.6541 16.1643 28.6541H17.926C18.8336 28.6543 19.5708 29.3901 19.5708 30.2992Z" fill="#9FB8C1"/>
<path d="M31.783 37.1124H26.6151C25.7072 37.1124 24.9709 36.376 24.9709 35.4678V30.2992C24.9709 29.391 25.7074 28.6544 26.6151 28.6544H31.783C32.6912 28.6544 33.4273 29.391 33.4273 30.2992V35.4678C33.4274 36.376 32.6912 37.1124 31.783 37.1124Z" fill="#AFCBD8"/>
<path d="M33.428 30.2992V35.4672C33.428 36.3764 32.6907 37.1123 31.7832 37.1123H30.0214C30.9291 37.1123 31.6661 36.3764 31.6661 35.4672V30.2992C31.6661 29.3899 30.9288 28.6541 30.0214 28.6541H31.7832C32.6907 28.6543 33.428 29.3901 33.428 30.2992Z" fill="#9FB8C1"/>
<path d="M45.6394 37.1124H40.4715C39.5635 37.1124 38.8274 36.376 38.8274 35.4678V30.2992C38.8274 29.391 39.5637 28.6544 40.4715 28.6544H45.6394C46.5476 28.6544 47.2837 29.391 47.2837 30.2992V35.4678C47.2837 36.376 46.5476 37.1124 45.6394 37.1124Z" fill="#BDDAE5"/>
<path d="M47.2843 30.2992V35.4672C47.2843 36.3764 46.5471 37.1123 45.6395 37.1123H43.8777C44.7854 37.1123 45.5224 36.3764 45.5224 35.4672V30.2992C45.5224 29.3899 44.7854 28.6541 43.8777 28.6541H45.6395C46.5471 28.6543 47.2843 29.3901 47.2843 30.2992Z" fill="#AFCBD8"/>
<path d="M59.496 37.1124H54.3281C53.4201 37.1124 52.6838 36.376 52.6838 35.4678V30.2992C52.6838 29.391 53.4202 28.6544 54.3281 28.6544H59.496C60.404 28.6544 61.1403 29.391 61.1403 30.2992V35.4678C61.1405 36.376 60.4042 37.1124 59.496 37.1124Z" fill="#BDDAE5"/>
<path d="M61.1408 30.2992V35.4672C61.1408 36.3764 60.4035 37.1123 59.4961 37.1123H57.7344C58.6421 37.1123 59.3791 36.3764 59.3791 35.4672V30.2992C59.3791 29.3899 58.642 28.6541 57.7344 28.6541H59.4961C60.4035 28.6543 61.1408 29.3901 61.1408 30.2992Z" fill="#AFCBD8"/>
<path d="M17.926 49.859H12.7583C11.8503 49.859 11.114 49.1224 11.114 48.2144V43.0456C11.114 42.1374 11.8504 41.401 12.7583 41.401H17.926C18.8342 41.401 19.5705 42.1374 19.5705 43.0456V48.2144C19.5706 49.1224 18.8342 49.859 17.926 49.859Z" fill="#AFCBD8"/>
<path d="M19.5708 43.0461V48.2139C19.5708 49.1232 18.8335 49.859 17.926 49.859H16.1643C17.072 49.859 17.8091 49.1232 17.8091 48.2139V43.0461C17.8091 42.1367 17.0719 41.401 16.1643 41.401H17.926C18.8336 41.4009 19.5708 42.1368 19.5708 43.0461Z" fill="#9FB8C1"/>
<path d="M31.783 49.859H26.6151C25.7072 49.859 24.9709 49.1224 24.9709 48.2143V43.0456C24.9709 42.1374 25.7074 41.401 26.6151 41.401H31.783C32.6912 41.401 33.4273 42.1374 33.4273 43.0456V48.2143C33.4274 49.1224 32.6912 49.859 31.783 49.859Z" fill="#FC3842"/>
<path d="M33.428 43.0461V48.2139C33.428 49.1232 32.6907 49.859 31.7832 49.859H30.0214C30.9291 49.859 31.6661 49.1232 31.6661 48.2139V43.0461C31.6661 42.1367 30.9288 41.401 30.0214 41.401H31.7832C32.6907 41.4009 33.428 42.1368 33.428 43.0461Z" fill="#EF2235"/>
<path d="M45.6394 49.859H40.4715C39.5635 49.859 38.8274 49.1224 38.8274 48.2143V43.0456C38.8274 42.1374 39.5637 41.401 40.4715 41.401H45.6394C46.5476 41.401 47.2837 42.1374 47.2837 43.0456V48.2143C47.2837 49.1224 46.5476 49.859 45.6394 49.859Z" fill="#AFCBD8"/>
<path d="M47.2843 43.0461V48.2139C47.2843 49.1232 46.5471 49.859 45.6395 49.859H43.8777C44.7854 49.859 45.5224 49.1232 45.5224 48.2139V43.0461C45.5224 42.1367 44.7854 41.401 43.8777 41.401H45.6395C46.5471 41.4009 47.2843 42.1368 47.2843 43.0461Z" fill="#9FB8C1"/>
<path d="M59.496 49.859H54.3281C53.4201 49.859 52.6838 49.1224 52.6838 48.2143V43.0456C52.6838 42.1374 53.4202 41.401 54.3281 41.401H59.496C60.404 41.401 61.1403 42.1374 61.1403 43.0456V48.2143C61.1405 49.1224 60.4042 49.859 59.496 49.859Z" fill="#BDDAE5"/>
<path d="M61.1408 43.0461V48.2139C61.1408 49.1232 60.4035 49.859 59.4961 49.859H57.7344C58.6421 49.859 59.3791 49.1232 59.3791 48.2139V43.0461C59.3791 42.1367 58.642 41.401 57.7344 41.401H59.4961C60.4035 41.4009 61.1408 42.1368 61.1408 43.0461Z" fill="#AFCBD8"/>
<path d="M17.926 62.6058H12.7583C11.8503 62.6058 11.114 61.8692 11.114 60.9612V55.7923C11.114 54.8842 11.8504 54.1476 12.7583 54.1476H17.926C18.8342 54.1476 19.5705 54.8842 19.5705 55.7923V60.9612C19.5706 61.8692 18.8342 62.6058 17.926 62.6058Z" fill="#AFCBD8"/>
<path d="M19.5708 55.7925V60.9604C19.5708 61.8696 18.8335 62.6055 17.926 62.6055H16.1643C17.072 62.6055 17.8091 61.8695 17.8091 60.9604V55.7925C17.8091 54.8833 17.0719 54.1475 16.1643 54.1475H17.926C18.8336 54.1475 19.5708 54.8834 19.5708 55.7925Z" fill="#9FB8C1"/>
<path d="M31.783 62.6059H26.6151C25.7072 62.6059 24.9709 61.8693 24.9709 60.9612V55.7923C24.9709 54.8843 25.7074 54.1477 26.6151 54.1477H31.783C32.6912 54.1477 33.4273 54.8843 33.4273 55.7923V60.9612C33.4274 61.8693 32.6912 62.6059 31.783 62.6059Z" fill="#AFCBD8"/>
<path d="M33.428 55.7925V60.9604C33.428 61.8696 32.6907 62.6055 31.7832 62.6055H30.0214C30.9291 62.6055 31.6661 61.8695 31.6661 60.9604V55.7925C31.6661 54.8833 30.9288 54.1475 30.0214 54.1475H31.7832C32.6907 54.1475 33.428 54.8834 33.428 55.7925Z" fill="#9FB8C1"/>
<path d="M45.6394 62.6059H40.4715C39.5635 62.6059 38.8274 61.8693 38.8274 60.9612V55.7923C38.8274 54.8843 39.5637 54.1477 40.4715 54.1477H45.6394C46.5476 54.1477 47.2837 54.8843 47.2837 55.7923V60.9612C47.2837 61.8693 46.5476 62.6059 45.6394 62.6059Z" fill="#AFCBD8"/>
<path d="M47.2843 55.7925V60.9604C47.2843 61.8696 46.5471 62.6055 45.6395 62.6055H43.8777C44.7854 62.6055 45.5224 61.8695 45.5224 60.9604V55.7925C45.5224 54.8833 44.7854 54.1475 43.8777 54.1475H45.6395C46.5471 54.1475 47.2843 54.8834 47.2843 55.7925Z" fill="#9FB8C1"/>
<path d="M59.496 62.6059H54.3281C53.4201 62.6059 52.6838 61.8693 52.6838 60.9612V55.7923C52.6838 54.8843 53.4202 54.1477 54.3281 54.1477H59.496C60.404 54.1477 61.1403 54.8843 61.1403 55.7923V60.9612C61.1405 61.8693 60.4042 62.6059 59.496 62.6059Z" fill="#AFCBD8"/>
<path d="M61.1411 55.7925V60.9604C61.1411 61.8696 60.4038 62.6055 59.4963 62.6055H57.7346C58.6424 62.6055 59.3794 61.8695 59.3794 60.9604V55.7925C59.3794 54.8833 58.6422 54.1475 57.7346 54.1475H59.4963C60.4038 54.1475 61.1411 54.8834 61.1411 55.7925Z" fill="#9FB8C1"/>
<path d="M41.8677 37.1128H40.4717C39.5641 37.1128 38.8274 36.376 38.8274 35.4682V31.3981C39.6714 33.4014 40.6919 35.3128 41.8677 37.1128Z" fill="#AFCBD8"/>
<path d="M47.2851 43.0458V43.6048C46.5412 42.9006 45.8285 42.165 45.1467 41.4H45.6394C46.548 41.4002 47.2851 42.137 47.2851 43.0458Z" fill="#AFCBD8"/>
<path d="M47.2849 43.6055V48.2146C47.2849 49.1238 46.548 49.8593 45.6392 49.8593H43.8777C44.7853 49.8593 45.5233 49.1237 45.5233 48.2146V43.0463C45.5233 42.1372 44.785 41.4003 43.8777 41.4003H45.1466C45.8281 42.1655 46.5409 42.901 47.2849 43.6055Z" fill="#9FB8C1"/>
<path d="M56.2798 49.859H54.3279C53.4201 49.859 52.6851 49.1223 52.6851 48.2146V47.8363C53.8395 48.576 55.0393 49.2521 56.2798 49.859Z" fill="#AFCBD8"/>
</svg>
