<svg width="72" height="72" viewBox="0 0 72 72" fill="none" xmlns="http://www.w3.org/2000/svg">
<path d="M2.60693 66.3702L8.71934 72H63.2825L69.395 66.3702" fill="#57BAE5"/>
<path d="M2.60693 66.3702L8.71934 72H13.098L6.98557 66.3702H2.60693Z" fill="#34A9D1"/>
<path d="M37.86 10.9135C35.2667 10.1784 32.1737 10.8772 32.1737 13.4681V18.6957H39.8282V13.4681C39.8283 12.0517 38.9461 11.3052 37.86 10.9135Z" fill="#57BAE5"/>
<path d="M38.1904 11.0484C36.1623 10.1304 32.174 10.5606 32.174 13.468V18.6956H36.5526V13.468C36.5524 12.1987 37.2615 11.4683 38.1904 11.0484Z" fill="#34A9D1"/>
<path d="M57.249 31.6603V25.885C57.249 24.3902 56.0374 23.1785 54.5425 23.1785H17.4588C15.9642 23.1785 14.7526 24.3902 14.7526 25.885V41.9441H57.2493V35.4656" fill="#7C5437"/>
<path d="M54.5428 23.1785H37.0264C36.646 29.8121 38.0233 36.2316 40.9096 41.9441H57.2493C57.2493 40.4134 57.2493 27.6691 57.2493 25.885C57.2493 24.3903 56.0376 23.1785 54.5428 23.1785Z" fill="#8E5E3D"/>
<path d="M48.1193 23.1785V20.0827C48.1193 19.2302 47.4284 18.5393 46.5758 18.5393H25.4261C24.5736 18.5393 23.8826 19.2302 23.8826 20.0827V23.1785H48.1193Z" fill="#FF4B4E"/>
<path d="M46.5758 18.5393H37.5877C37.3062 20.0552 37.1171 21.6035 37.0265 23.1785H48.1195V20.0827C48.1194 19.2303 47.4285 18.5393 46.5758 18.5393Z" fill="#FC5162"/>
<path d="M21.8375 23.1785H17.4586C15.9641 23.1785 14.7524 24.3902 14.7524 25.885V41.9441H19.1311V25.885C19.1311 24.3903 20.3427 23.1785 21.8375 23.1785Z" fill="#603D26"/>
<path d="M29.8046 18.5393H25.4259C24.5735 18.5393 23.8824 19.2302 23.8824 20.0827V23.1785H28.2611V20.0827C28.2611 19.2303 28.9521 18.5393 29.8046 18.5393Z" fill="#EF2235"/>
<path d="M35.8456 0.0188706C34.2301 0.717074 33.1865 2.30473 33.1865 4.06339C33.1865 6.76184 35.5326 8.13996 36.001 8.13996C36.4417 8.13996 38.8154 6.7932 38.8154 4.06339C38.8152 1.31529 36.3244 -0.187989 35.8456 0.0188706Z" fill="#F99830"/>
<path d="M54.5426 23.1785H17.4589C16.2326 23.1785 15.1969 23.9939 14.8645 25.1118C14.7216 25.5942 14.7524 25.7117 14.7524 27.9594L19.7884 31.2313C21.5656 32.3859 23.1216 31.6911 23.6707 31.3687L27.1159 29.1301C27.1162 29.1301 27.1162 29.1301 27.1162 29.1299C28.6909 28.1067 30.0806 28.7425 30.5504 29.0199C36.6051 32.9538 35.3682 32.9721 41.4511 29.0199C41.9209 28.7425 43.3106 28.1067 44.8853 29.1299C44.8853 29.1301 44.8856 29.1301 44.8856 29.1301L48.3307 31.3687C48.8797 31.6911 50.4359 32.3858 52.2131 31.2313L57.249 27.9594V25.8849C57.249 24.3899 56.0371 23.1785 54.5426 23.1785Z" fill="#FFC373"/>
<path d="M54.5427 23.1785H37.0263C36.8646 25.9997 37.0158 28.7823 37.4921 31.574C37.6666 31.4857 37.3411 31.6908 41.4513 29.0202C41.9211 28.7428 43.3107 28.107 44.8855 29.1302C44.8855 29.1303 44.8857 29.1303 44.8857 29.1303L48.3309 31.3689C48.8799 31.6914 50.4361 32.3861 52.2133 31.2316L57.2492 27.9596C57.2492 25.6807 57.2538 25.7958 57.2351 25.6084C57.0963 24.2422 55.9434 23.1785 54.5427 23.1785Z" fill="#FCCA8D"/>
<path d="M19.1311 25.885C19.1311 24.3902 20.3427 23.1786 21.8375 23.1786C17.4212 23.1786 17.159 23.0925 16.454 23.3733C15.3898 23.8027 14.7524 24.8173 14.7524 25.8849V27.9594L19.1311 30.8042V25.885Z" fill="#F7AC52"/>
<path d="M63.8703 51.8855V45.494C63.8703 43.5332 62.2811 41.944 60.3205 41.944H11.6812C9.72064 41.944 8.13171 43.5332 8.13171 45.494V61.8352H63.8703V55.6385" fill="#7C5437"/>
<path d="M60.3203 41.944H40.9094C45.5267 51.0832 53.8319 58.0408 63.8702 60.8596C63.8702 60.1993 63.8702 46.0417 63.8702 45.4941C63.8702 43.5332 62.2809 41.944 60.3203 41.944Z" fill="#8E5E3D"/>
<path d="M69.6227 61.8352H2.37932C1.08374 61.8352 0.0336914 62.8854 0.0336914 64.181C0.0336914 65.4764 1.08374 66.5267 2.37932 66.5267C5.3136 66.5267 67.2399 66.5267 69.6228 66.5267C70.9184 66.5267 71.9687 65.4766 71.9687 64.181C71.9686 62.8855 70.9183 61.8352 69.6227 61.8352Z" fill="#BAD8E8"/>
<path d="M69.6226 64.1809C68.2963 64.1809 4.18321 64.1809 2.37914 64.1809C1.51162 64.1809 0.755479 63.7086 0.350057 63.0081C-0.555287 64.5703 0.576885 66.5266 2.37914 66.5266C5.31342 66.5266 67.2397 66.5266 69.6226 66.5266C70.9182 66.5266 71.9685 65.4764 71.9685 64.1808C71.9685 63.753 71.8521 63.3532 71.652 63.008C71.2463 63.7086 70.4906 64.1809 69.6226 64.1809Z" fill="#91C5DB"/>
<path d="M16.06 41.944H11.6812C9.72064 41.944 8.13171 43.5332 8.13171 45.494V61.8352H12.5104V45.494C12.5104 43.5332 14.0994 41.944 16.06 41.944Z" fill="#603D26"/>
<path d="M8.13171 45.494V47.664L12.6849 50.6225C14.4621 51.7773 16.0181 51.0823 16.5672 50.76L20.0124 48.5214C20.0127 48.5214 20.0127 48.5214 20.0127 48.5213C21.5874 47.4981 22.9774 48.134 23.4469 48.4113C29.4727 52.3259 28.3603 52.3284 34.2195 48.5214C34.2195 48.5214 34.9863 47.9606 36.0091 47.9606C36.5373 47.9649 37.1442 48.1071 37.7819 48.5213C37.7819 48.5214 37.7822 48.5214 37.7822 48.5214C41.2173 50.7534 41.7895 51.2878 42.9665 51.3248C43.6127 51.3553 44.2567 51.1716 44.7652 50.8736C46.8909 49.4923 45.9624 50.0957 48.5547 48.4114C49.0242 48.1341 50.4141 47.4982 51.9889 48.5214C51.9889 48.5215 51.9889 48.5215 51.9891 48.5215L55.4343 50.7601C55.9833 51.0825 57.5393 51.7774 59.317 50.6226L63.8701 47.6641V45.4942C63.8701 43.5334 62.2809 41.9442 60.3203 41.9442C58.7311 41.9442 12.2179 41.9442 11.6812 41.9442C9.72064 41.9441 8.13171 43.5333 8.13171 45.494Z" fill="#FFC373"/>
<path d="M60.3203 41.944C60.1573 41.944 41.2953 41.944 40.9094 41.944C42.3638 44.8232 44.1846 47.4847 46.3103 49.8695C46.554 49.711 46.1931 49.9455 48.5546 48.4111C49.0242 48.1338 50.4141 47.4979 51.9888 48.5211C51.9888 48.5212 51.9888 48.5212 51.9891 48.5212L55.4343 50.7598C55.9833 51.0821 57.5393 51.7771 59.317 50.6223L63.8701 47.6638V45.4938C63.8702 43.5332 62.2809 41.944 60.3203 41.944Z" fill="#FCCA8D"/>
<path d="M12.5104 45.494C12.5104 43.5332 14.0993 41.944 16.06 41.944H11.6812C9.72064 41.944 8.13171 43.5332 8.13171 45.494V47.664L12.5104 50.5089V45.494Z" fill="#F7AC52"/>
<path d="M24.4661 38.9488C25.3072 38.9488 25.9891 38.2669 25.9891 37.4258C25.9891 36.5847 25.3072 35.9028 24.4661 35.9028C23.625 35.9028 22.9431 36.5847 22.9431 37.4258C22.9431 38.2669 23.625 38.9488 24.4661 38.9488Z" fill="#00CDB3"/>
<path d="M39.7919 36.4473C40.633 36.4473 41.3149 35.7655 41.3149 34.9243C41.3149 34.0832 40.633 33.4014 39.7919 33.4014C38.9508 33.4014 38.2689 34.0832 38.2689 34.9243C38.2689 35.7655 38.9508 36.4473 39.7919 36.4473Z" fill="#57BAE5"/>
<path d="M50.102 38.0031C50.9431 38.0031 51.6249 37.3212 51.6249 36.4801C51.6249 35.639 50.9431 34.9572 50.102 34.9572C49.2608 34.9572 48.579 35.639 48.579 36.4801C48.579 37.3212 49.2608 38.0031 50.102 38.0031Z" fill="#00CDB3"/>
<path d="M41.9837 39.4752C41.7082 38.8888 41.9607 38.1902 42.5469 37.915L44.6628 36.9213C45.2493 36.6461 45.948 36.898 46.2232 37.4847C46.4984 38.0708 46.2459 38.7693 45.66 39.0448L43.5438 40.0384C42.9546 40.3143 42.2581 40.0597 41.9837 39.4752Z" fill="#FF4B4E"/>
<path d="M31.0196 37.9662L29.025 36.7477C28.4723 36.4102 28.2978 35.6883 28.6355 35.1354C28.9731 34.5828 29.6949 34.4081 30.2476 34.7459L32.2425 35.9644C32.7954 36.3019 32.9697 37.0239 32.632 37.5765C32.2947 38.1289 31.5737 38.304 31.0196 37.9662Z" fill="#FFCA54"/>
<path d="M45.3006 58.7939C46.1417 58.7939 46.8235 58.1121 46.8235 57.271C46.8235 56.4298 46.1417 55.748 45.3006 55.748C44.4594 55.748 43.7776 56.4298 43.7776 57.271C43.7776 58.1121 44.4594 58.7939 45.3006 58.7939Z" fill="#57BAE5"/>
<path d="M29.9748 56.2925C30.8159 56.2925 31.4977 55.6106 31.4977 54.7695C31.4977 53.9284 30.8159 53.2465 29.9748 53.2465C29.1336 53.2465 28.4518 53.9284 28.4518 54.7695C28.4518 55.6106 29.1336 56.2925 29.9748 56.2925Z" fill="#00CDB3"/>
<path d="M19.6648 57.8469C20.5059 57.8469 21.1878 57.165 21.1878 56.3239C21.1878 55.4828 20.5059 54.801 19.6648 54.801C18.8237 54.801 18.1418 55.4828 18.1418 56.3239C18.1418 57.165 18.8237 57.8469 19.6648 57.8469Z" fill="#FF4B4E"/>
<path d="M26.2228 59.8833L24.107 58.8898C23.5207 58.6144 23.2686 57.9159 23.5438 57.3295C23.819 56.7433 24.5176 56.4914 25.1039 56.7663L27.22 57.76C27.8063 58.0352 28.0584 58.7337 27.7832 59.3201C27.5076 59.9065 26.8095 60.1585 26.2228 59.8833Z" fill="#FFCA54"/>
<path d="M53.3044 58.8898L51.1883 57.8964C50.602 57.6209 50.3499 56.9226 50.6251 56.3362C50.9003 55.7499 51.5989 55.4981 52.1852 55.7728L54.3013 56.7663C54.8873 57.0417 55.1397 57.74 54.8645 58.3266C54.5904 58.9105 53.8941 59.166 53.3044 58.8898Z" fill="#57BAE5"/>
<path d="M37.1349 57.4214C36.7974 56.8687 36.9718 56.1469 37.5244 55.8093L39.5193 54.5906C40.072 54.2531 40.794 54.4275 41.1317 54.9801C41.4692 55.5328 41.2946 56.2546 40.7419 56.5925L38.747 57.8111C38.1942 58.1488 37.4724 57.9743 37.1349 57.4214Z" fill="#FFCA54"/>
</svg>
