<svg width="72" height="72" viewBox="0 0 72 72" fill="none" xmlns="http://www.w3.org/2000/svg">
<path d="M20.3084 51.6945L20.5791 57.2263C17.2944 57.7155 14.1516 54.7254 14.8224 51.4145C15.8531 51.5978 16.963 50.9739 18.0479 50.9739L20.3084 51.6945Z" fill="#FF323F"/>
<path d="M52.4796 17.2798C52.4207 18.3251 52.6721 17.7201 45.8466 27.8233C45.8279 27.7951 39.3434 18.2022 39.3248 18.1748C39.3248 18.1731 39.3231 18.1715 39.3216 18.1699C39.1661 17.8606 39.1024 17.5563 39.0908 17.2798C39.0908 17.2798 52.4796 17.2798 52.4796 17.2798Z" fill="#CCE5F1"/>
<path d="M52.4797 17.2798H39.0909C39.0483 16.3738 39.4112 15.9455 40.5864 13.672C40.9205 13.0327 41.5609 12.6855 42.2062 12.6855H49.4872C50.1678 12.6855 50.7928 13.0667 51.1054 13.6703L52.3569 16.0902V16.0918C52.3586 16.0935 52.3586 16.0935 52.3586 16.0951C52.3751 16.1491 52.5157 16.6529 52.4797 17.2798Z" fill="#ECF1F8"/>
<path d="M41.5222 17.2798L45.8417 27.8167C38.8006 17.3964 39.4024 18.2895 39.3248 18.1748C39.3248 18.1731 39.3231 18.1715 39.3216 18.1699C39.1661 17.8606 39.1024 17.5563 39.0908 17.2798C39.0908 17.2798 41.5222 17.2798 41.5222 17.2798Z" fill="#ECF1F8"/>
<path d="M45.845 27.8233L45.8418 27.8166L45.8435 27.8183L45.845 27.8233Z" fill="#ECF1F8"/>
<path d="M43.7588 12.6869C41.8257 16.4251 41.3847 17.2797 41.3847 17.2797H39.0907C39.0481 16.3737 39.4109 15.9453 40.5861 13.6718C40.9222 13.0287 41.5615 12.6869 42.206 12.6869C42.2061 12.6869 43.7588 12.6869 43.7588 12.6869Z" fill="#CCE5F1"/>
<path d="M54.1214 31.3896C52.0354 29.1921 49.0854 27.8225 45.8163 27.8225C37.3316 27.8225 31.8168 36.7357 35.5263 44.3104H37.1625H39.3696C35.1956 38.9794 38.9899 31.0949 45.8163 31.0949C52.585 31.0949 56.471 38.9358 52.2628 44.3104H56.1062C58.1613 40.1141 57.4926 34.9384 54.1214 31.3896Z" fill="#FFCA54"/>
<path d="M54.1214 31.3896C52.2431 30.1738 49.9412 29.4587 47.4526 29.4587C39.2716 29.4587 35.9994 34.0778 35.9994 39.7749C35.9994 41.4027 36.4181 42.9408 37.1626 44.3104H35.5264C31.8097 36.7211 37.3477 27.8225 45.8164 27.8225C49.0854 27.8225 52.0355 29.1921 54.1214 31.3896Z" fill="#FFB539"/>
<path d="M68.3041 50.8549V51.6945H24.0015V50.8549C24.0015 47.2407 26.9319 44.3102 30.5463 44.3102H61.7596C65.3738 44.3102 68.3041 47.2406 68.3041 50.8549Z" fill="#C9E7F8"/>
<path d="M71.9951 51.6945V68.727C71.9951 70.5343 70.5299 71.9993 68.7227 71.9993H23.5806C21.7735 71.9993 20.3083 70.5343 20.3083 68.727V51.6945H71.9951Z" fill="#FF4B4E"/>
<path d="M20.3085 51.6944H17.9934C8.05796 51.6944 0.00366211 43.6402 0.00366211 33.7046V17.9972C0.00366211 8.06188 8.05796 0.00744629 17.9934 0.00744629H20.3085V51.6944Z" fill="#FF4B4E"/>
<path d="M29.8973 72H23.58C21.7736 72 20.3076 70.534 20.3076 68.7276V51.695H26.6249V68.7276C26.6249 70.534 28.0909 72 29.8973 72Z" fill="#FF323F"/>
<path d="M20.3077 46.3367V51.695H17.9941C8.05771 51.695 0.00439453 43.6402 0.00439453 33.7038V28.3469C0.00439453 38.2817 8.05771 46.3367 17.9941 46.3367H20.3077Z" fill="#FF323F"/>
<path d="M71.9962 51.6951V68.7278C71.9962 69.9173 71.3596 70.9596 70.4106 71.5306C57.961 71.2606 47.4764 63.0126 43.8669 51.6951H71.9962Z" fill="#FF5A62"/>
<path d="M20.3076 0.00835055V22.8591C13.4912 18.2058 9.15381 10.8823 8.12964 2.95346C13.09 -0.307071 17.5124 0.00835055 20.3076 0.00835055Z" fill="#FF5A62"/>
<path d="M37.3647 44.311C33.7504 44.311 30.8199 47.2415 30.8199 50.8558V51.6951H24.002V50.8558C24.002 47.2416 26.9323 44.311 30.5468 44.311H37.3647Z" fill="#ACD7EA"/>
</svg>
