<svg width="72" height="72" viewBox="0 0 72 72" fill="none" xmlns="http://www.w3.org/2000/svg">
<g clip-path="url(#clip0)">
<path d="M53.9457 10.6365H68.6545C70.5022 10.6365 72 12.1343 72 13.9819V58.0181C72 59.8659 70.5022 61.3637 68.6545 61.3637H3.34571C1.49804 61.3637 0.000244141 59.8659 0.000244141 58.0181V13.9819C0.000244141 12.1343 1.49804 10.6365 3.34571 10.6365H40.3094" fill="#FFCA54"/>
<path d="M72 58.0189L35.8577 31.5818L0 58.0189C0 59.8665 1.49723 61.3637 3.34631 61.3637H68.6535C70.5026 61.3637 72 59.8665 72 58.0189Z" fill="#FFA837"/>
<path d="M72 13.9811L35.8577 40.4183L0 13.9811C0 12.1337 1.49723 10.6364 3.34631 10.6364H68.6535C70.5026 10.6364 72 12.1337 72 13.9811Z" fill="#FFD278"/>
<path d="M71.9998 13.9811V58.0189L41.8972 36L71.9998 13.9811Z" fill="#FFCD69"/>
<path d="M29.8652 36L25.6516 39.1059C23.6044 36.0017 21.8879 32.6602 20.5493 29.1322L29.8652 36Z" fill="#FFCD69"/>
<path d="M71.9999 58.0189C71.9999 59.8665 70.5026 61.3637 68.6535 61.3637H59.3852C45.3108 58.8585 33.2262 50.5995 25.6516 39.1058L29.8652 36L35.8576 40.4183L41.8973 36L71.9999 58.0189Z" fill="#FFB052"/>
<path d="M72 13.9811C70.4847 15.0895 45.5049 33.3611 35.8577 40.4183C28.3323 34.8697 32.1819 37.7079 20.5494 29.1322C18.1691 22.8574 17.0892 15.9227 17.2408 10.6364H68.6536C70.5027 10.6364 72 12.1337 72 13.9811Z" fill="#FFD78F"/>
<path d="M47.4544 33.5455C47.4544 39.9309 41.8927 44.8331 38.5204 47.2185C37.0091 48.2874 34.9913 48.2878 33.4801 47.2191C30.1903 44.892 24.8168 40.1701 24.5552 34.0127C24.405 30.4778 27.1386 27.4237 30.6766 27.4365C32.9673 27.4448 34.9616 28.7146 35.9998 30.587C37.0414 28.7086 39.0451 27.4363 41.3453 27.4363C44.7191 27.4363 47.4544 30.1718 47.4544 33.5455Z" fill="#FF4B4E"/>
<path d="M47.4546 33.5455C47.4546 39.9306 41.8927 44.8332 38.5202 47.2189C37.4108 48.0043 36.028 48.2123 34.7729 47.844C35.2277 47.7115 35.6648 47.5037 36.0657 47.2189C47.7809 38.9312 46.6414 28.8897 40.1173 27.5597C43.9372 26.7865 47.4546 29.7041 47.4546 33.5455Z" fill="#FF323F"/>
<path opacity="0.07" d="M8.45986 61.3637H3.34631C1.49723 61.3637 0 59.8665 0 58.019V13.9811C0 12.1337 1.49723 10.6364 3.34631 10.6364H8.45986C6.61078 10.6364 5.11355 12.1337 5.11355 13.9811V58.019C5.11355 59.8665 6.61078 61.3637 8.45986 61.3637Z" fill="#2D0E0E"/>
</g>
<defs>
<clipPath id="clip0">
<rect width="72" height="72" fill="white"/>
</clipPath>
</defs>
</svg>
