<svg width="24" height="24" viewBox="0 0 24 24" fill="none" xmlns="http://www.w3.org/2000/svg">
<path d="M21.5421 7.10466C21.5567 7.31623 21.5567 7.5278 21.5567 7.74132C21.5567 14.2473 16.6038 21.7507 7.54729 21.7507V21.7468C4.87195 21.7507 2.25219 20.9844 0 19.5395C0.389015 19.5863 0.77998 19.6097 1.17192 19.6107C3.38901 19.6126 5.54274 18.8687 7.28697 17.4989C5.18004 17.4589 3.33247 16.0852 2.68703 14.0796C3.42509 14.222 4.18557 14.1927 4.90998 13.9948C2.61293 13.5307 0.960351 11.5125 0.960351 9.16868C0.960351 9.14723 0.960351 9.12676 0.960351 9.10629C1.64478 9.4875 2.41111 9.69907 3.19499 9.72247C1.03152 8.27658 0.364641 5.39845 1.67111 3.14821C4.17094 6.22426 7.85928 8.09426 11.8187 8.29218C11.4218 6.58207 11.9639 4.79007 13.2431 3.58792C15.2262 1.72377 18.3451 1.81932 20.2093 3.80144C21.312 3.58402 22.3689 3.17941 23.336 2.60612C22.9685 3.74587 22.1992 4.71402 21.1716 5.32923C22.1475 5.21418 23.1011 4.95289 23.999 4.55412C23.338 5.5447 22.5054 6.40755 21.5421 7.10466Z" fill="white"/>
</svg>
